<svg width="20" height="20" viewBox="0 0 20 20" fill="none" xmlns="http://www.w3.org/2000/svg">
<path d="M7.57505 7.50023C7.77097 6.94329 8.15768 6.47365 8.66668 6.17451C9.17568 5.87536 9.77413 5.76601 10.356 5.86582C10.9379 5.96564 11.4657 6.26817 11.8459 6.71984C12.2262 7.17151 12.4343 7.74317 12.4334 8.33356C12.4334 10.0002 9.93339 10.8336 9.93339 10.8336M10.0001 14.1668H10.0084M6.58341 16.6669C8.1739 17.4827 10.0035 17.7037 11.7425 17.29C13.4815 16.8763 15.0155 15.8551 16.0682 14.4104C17.1209 12.9656 17.6229 11.1925 17.4839 9.41034C17.3449 7.62821 16.5739 5.95434 15.3099 4.69036C14.0459 3.42638 12.3721 2.65541 10.5899 2.51638C8.80782 2.37735 7.03464 2.87941 5.58993 3.93207C4.14522 4.98474 3.12399 6.51879 2.71027 8.2578C2.29654 9.9968 2.51753 11.8264 3.33341 13.4169L1.66675 18.3335L6.58341 16.6669Z" stroke="#899BC7" stroke-width="2" stroke-linecap="round" stroke-linejoin="round"/>
</svg>
