<svg width="21.000000" height="21.000000" viewBox="0 0 21 21" fill="none" xmlns="http://www.w3.org/2000/svg" xmlns:xlink="http://www.w3.org/1999/xlink">
	<desc>
			Created with Pixso.
	</desc>
	<defs/>
	<path id="Vector" d="M10.5 0C4.7 0 0 4.72 0 10.54C0 13.3 1.05 15.8 2.78 17.68C5.23 20.34 8.74 17.62 8.74 14.01C8.74 13.31 8.18 12.74 7.48 12.74C6.78 12.74 6.21 12.17 6.21 11.47L6.21 11.06C6.21 10.36 6.78 9.79 7.48 9.79C8.18 9.79 8.74 9.23 8.74 8.53L8.74 7.62C8.74 5.1 10.28 3.73 12.52 3.73C12.89 3.73 13.24 3.74 13.55 3.75C14.25 3.78 14.78 4.37 14.78 5.07C14.78 5.85 14.15 6.48 13.37 6.48L13.22 6.48C12.01 6.48 11.77 7.06 11.77 7.91L11.77 8.43C11.77 9.18 12.38 9.79 13.13 9.79C13.95 9.79 14.58 10.51 14.48 11.32L14.45 11.56C14.36 12.24 13.79 12.74 13.12 12.74C12.37 12.74 11.77 13.34 11.77 14.08L11.77 16.61C11.77 18.94 13.89 20.78 15.88 19.58C18.95 17.74 21 14.38 21 10.54C21 4.72 16.29 0 10.5 0Z" fill="#FFFFFF" fill-opacity="1.000000" fill-rule="nonzero"/>
</svg>
