<svg width="18.000000" height="18.000000" viewBox="0 0 18 18" fill="none" xmlns="http://www.w3.org/2000/svg" xmlns:xlink="http://www.w3.org/1999/xlink">
	<desc>
			Created with Pixso.
	</desc>
	<defs/>
	<path id="Vector" d="M10.74 15.28C12.48 14.87 14.01 13.85 15.06 12.4C16.12 10.96 16.62 9.19 16.48 7.4C16.34 5.62 15.57 3.95 14.3 2.68C13.04 1.42 11.37 0.65 9.58 0.51C7.8 0.37 6.03 0.87 4.58 1.93C3.14 2.98 2.12 4.51 1.7 6.25C1.29 7.99 1.51 9.82 2.33 11.41L0.66 16.33L5.58 14.66C7.17 15.48 9 15.7 10.74 15.28ZM6.57 5.49C6.77 4.94 7.15 4.47 7.66 4.17C8.17 3.87 8.77 3.76 9.35 3.86C9.93 3.96 10.46 4.26 10.84 4.71C11.22 5.17 11.43 5.74 11.43 6.33C11.43 7.99 8.93 8.83 8.93 8.83M8.99 12.16L9 12.16" stroke="#899AC6" stroke-opacity="1.000000" stroke-width="2.000000" stroke-linejoin="round"/>
</svg>
