<svg width="17.000000" height="17.000000" viewBox="0 0 17 17" fill="none" xmlns="http://www.w3.org/2000/svg" xmlns:xlink="http://www.w3.org/1999/xlink">
	<desc>
			Created with Pixso.
	</desc>
	<defs/>
	<path id="Vector" d="M12.16 9.66L12.17 9.66M3.83 3.83L13.83 3.83C14.27 3.83 14.69 4 15.01 4.32C15.32 4.63 15.5 5.05 15.5 5.5L15.5 13.83C15.5 14.27 15.32 14.69 15.01 15.01C14.69 15.32 14.27 15.5 13.83 15.5L2.16 15.5C1.72 15.5 1.3 15.32 0.98 15.01C0.67 14.69 0.5 14.27 0.5 13.83L0.5 2.16C0.5 1.72 0.67 1.3 0.98 0.98C1.3 0.67 1.72 0.5 2.16 0.5L13.83 0.5" stroke="#899AC6" stroke-opacity="1.000000" stroke-width="2.000000" stroke-linejoin="round"/>
</svg>
