<svg width="53.000000" height="53.000000" viewBox="0 0 53 53" fill="none" xmlns="http://www.w3.org/2000/svg" xmlns:xlink="http://www.w3.org/1999/xlink">
	<desc>
			Created with Pixso.
	</desc>
	<defs>
		<clipPath id="clip2388_3518">
			<rect id="ton_symbol 2" width="27.471861" height="27.471861" transform="translate(13.656250 11.000000) rotate(5.549999)" fill="white" fill-opacity="0"/>
		</clipPath>
		<linearGradient id="paint_linear_2388_3354_0" x1="4.451172" y1="23.643555" x2="52.451172" y2="23.643555" gradientUnits="userSpaceOnUse">
			<stop stop-color="#00F5A0"/>
			<stop offset="1.000000" stop-color="#00D9F5"/>
		</linearGradient>
	</defs>
	<rect id="Rectangle 14385" x="4.451172" y="-0.356445" rx="10.000000" width="48.000000" height="48.000000" transform="rotate(5.5505 4.451172 -0.356445)" fill="url(#paint_linear_2388_3354_0)" fill-opacity="1.000000"/>
	<rect id="Rectangle 14385" x="4.451172" y="-0.356445" rx="10.000000" width="48.000000" height="48.000000" transform="rotate(5.5505 4.451172 -0.356445)" fill="#FFFFFF" fill-opacity="1.000000"/>
	<rect id="ton_symbol 2" width="27.471861" height="27.471861" transform="translate(13.656250 11.000000) rotate(5.549999)" fill="#FFFFFF" fill-opacity="0"/>
	<g clip-path="url(#clip2388_3518)">
		<path id="Vector" d="M24.67 39.67C32.22 40.4 38.93 34.87 39.67 27.32C40.4 19.77 34.87 13.06 27.32 12.32C19.77 11.59 13.06 17.12 12.32 24.67C11.59 32.22 17.12 38.93 24.67 39.67Z" fill="#0098EA" fill-opacity="1.000000" fill-rule="nonzero"/>
		<path id="Vector" d="M31.25 20.41L21.91 19.5C20.2 19.33 18.93 21.08 19.65 22.66L24.44 33.21C24.75 33.9 25.69 33.99 26.13 33.37L32.87 23.94C33.87 22.53 32.97 20.57 31.25 20.41L31.25 20.41ZM24.72 30.21L23.71 27.66L21.2 21.95C21.04 21.59 21.33 21.17 21.75 21.21L25.56 21.58L24.72 30.21L24.72 30.21ZM31.47 22.95L27.92 28.07L26.43 30.38L27.27 21.74L31.08 22.11C31.5 22.15 31.7 22.62 31.47 22.95Z" fill="#FFFFFF" fill-opacity="1.000000" fill-rule="nonzero"/>
	</g>
</svg>
