<svg width="30.000000" height="30.000000" viewBox="0 0 30 30" fill="none" xmlns="http://www.w3.org/2000/svg" xmlns:xlink="http://www.w3.org/1999/xlink">
	<desc>
			Created with Pixso.
	</desc>
	<defs>
		<clipPath id="clip2388_3518">
			<rect id="ton_symbol 2" width="27.471861" height="27.471861" transform="translate(2.656250 0.000000) rotate(5.550000)" fill="white" fill-opacity="0"/>
		</clipPath>
	</defs>
	<rect id="ton_symbol 2" width="27.471861" height="27.471861" transform="translate(2.656250 0.000000) rotate(5.550000)" fill="#FFFFFF" fill-opacity="0"/>
	<g clip-path="url(#clip2388_3518)">
		<path id="Vector" d="M13.67 28.67C21.22 29.4 27.93 23.87 28.67 16.32C29.4 8.77 23.87 2.06 16.32 1.32C8.77 0.59 2.06 6.12 1.32 13.67C0.59 21.22 6.12 27.93 13.67 28.67Z" fill="#0098EA" fill-opacity="1.000000" fill-rule="nonzero"/>
		<path id="Vector" d="M20.25 9.41L10.91 8.5C9.2 8.33 7.93 10.08 8.65 11.66L13.44 22.21C13.75 22.9 14.69 22.99 15.13 22.37L21.87 12.94C22.87 11.53 21.97 9.57 20.25 9.41L20.25 9.41ZM13.72 19.21L12.71 16.66L10.2 10.95C10.04 10.59 10.33 10.17 10.75 10.21L14.56 10.58L13.72 19.21L13.72 19.21ZM20.47 11.95L16.92 17.07L15.43 19.38L16.27 10.74L20.08 11.11C20.5 11.15 20.7 11.62 20.47 11.95Z" fill="#FFFFFF" fill-opacity="1.000000" fill-rule="nonzero"/>
	</g>
</svg>
