<svg width="32.000000" height="30.000000" viewBox="0 0 32 30" fill="none" xmlns="http://www.w3.org/2000/svg" xmlns:xlink="http://www.w3.org/1999/xlink">
	<desc>
			Created with Pixso.
	</desc>
	<defs>
		<linearGradient id="paint_linear_2_955_0" x1="7.721982" y1="20.028200" x2="30.145655" y2="20.534903" gradientUnits="userSpaceOnUse">
			<stop stop-color="#2C9FDB"/>
			<stop offset="1.000000" stop-color="#574DCE"/>
		</linearGradient>
	</defs>
	<path id="Star" d="M25.3 17.91C24.88 18.31 24.68 18.89 24.78 19.46L26.23 27.33C26.36 28 26.07 28.67 25.5 29.06C24.94 29.46 24.19 29.51 23.58 29.19L16.34 25.49C16.09 25.36 15.81 25.29 15.52 25.28L15.08 25.28C14.93 25.3 14.78 25.35 14.64 25.43L7.39 29.14C7.03 29.32 6.63 29.38 6.23 29.32C5.26 29.14 4.62 28.23 4.78 27.28L6.23 19.41C6.33 18.84 6.13 18.25 5.71 17.84L-0.2 12.24C-0.69 11.77 -0.86 11.07 -0.64 10.44C-0.42 9.8 0.14 9.34 0.82 9.24L8.95 8.08C9.56 8.02 10.11 7.65 10.39 7.11L13.97 -0.08C14.05 -0.24 14.16 -0.38 14.29 -0.51L14.44 -0.62C14.52 -0.7 14.61 -0.77 14.71 -0.83L14.88 -0.89L15.16 -1L15.85 -1C16.46 -0.94 17.01 -0.58 17.29 -0.04L20.92 7.11C21.18 7.63 21.69 7.99 22.28 8.08L30.4 9.24C31.09 9.33 31.67 9.8 31.89 10.44C32.11 11.08 31.92 11.78 31.42 12.24L25.3 17.91Z" fill="url(#paint_linear_2_955_0)" fill-opacity="1.000000" fill-rule="nonzero"/>
</svg>
