<svg width="32.000000" height="32.000000" viewBox="0 0 32 32" fill="none" xmlns="http://www.w3.org/2000/svg" xmlns:xlink="http://www.w3.org/1999/xlink">
	<desc>
			Created with Pixso.
	</desc>
	<defs>
		<linearGradient id="paint_linear_2_857_0" x1="7.667055" y1="22.133097" x2="29.600391" y2="22.666430" gradientUnits="userSpaceOnUse">
			<stop stop-color="#2C9FDB"/>
			<stop offset="1.000000" stop-color="#574DCE"/>
		</linearGradient>
	</defs>
	<path id="Send" d="M30.49 0.93C29.69 0.1 28.51 -0.2 27.4 0.12L1.65 7.61C0.48 7.93 -0.34 8.86 -0.57 10.04C-0.79 11.25 0 12.77 1.04 13.41L9.09 18.36C9.92 18.87 10.98 18.74 11.67 18.05L20.89 8.77C21.35 8.29 22.12 8.29 22.58 8.77C23.05 9.24 23.05 9.99 22.58 10.48L13.35 19.76C12.66 20.45 12.53 21.52 13.04 22.35L17.96 30.48C18.54 31.45 19.53 31.99 20.62 31.99C20.74 31.99 20.89 31.99 21.02 31.98C22.26 31.82 23.26 30.96 23.63 29.76L31.26 4.03C31.6 2.94 31.29 1.75 30.49 0.93Z" fill="url(#paint_linear_2_857_0)" fill-opacity="1.000000" fill-rule="nonzero"/>
</svg>
