<svg width="12.000000" height="19.000000" viewBox="0 0 12 19" fill="none" xmlns="http://www.w3.org/2000/svg" xmlns:xlink="http://www.w3.org/1999/xlink">
	<desc>
			Created with Pixso.
	</desc>
	<defs/>
	<path id="Vector" d="M6 0.66L6 17.33M10.16 3.16L3.91 3.16C3.14 3.16 2.4 3.47 1.85 4.02C1.3 4.56 1 5.3 1 6.08C1 6.85 1.3 7.59 1.85 8.14C2.4 8.69 3.14 9 3.91 9L8.08 9C8.85 9 9.59 9.3 10.14 9.85C10.69 10.4 11 11.14 11 11.91C11 12.68 10.69 13.43 10.14 13.97C9.59 14.52 8.85 14.83 8.08 14.83L1 14.83" stroke="#899AC6" stroke-opacity="1.000000" stroke-width="2.000000" stroke-linejoin="round"/>
</svg>
