<svg width="23.000000" height="19.000000" viewBox="0 0 23 19" fill="none" xmlns="http://www.w3.org/2000/svg" xmlns:xlink="http://www.w3.org/1999/xlink">
	<desc>
			Created with Pixso.
	</desc>
	<defs/>
	<path id="Vector" d="M22.28 3.2C22.51 2.93 22.21 2.56 21.88 2.66C21.52 2.77 21.27 2.22 21.51 1.93C21.63 1.78 21.74 1.63 21.84 1.47C22.07 1.11 21.65 0.75 21.26 0.92C20.82 1.11 20.38 1.26 19.91 1.38C19.57 1.47 19.22 1.35 18.95 1.12C18.13 0.42 17.06 0 15.92 0C13.31 0 11.21 2.15 11.21 4.79C11.21 5.34 10.77 5.86 10.22 5.78C7.62 5.44 5.26 4.33 3.35 2.69C2.43 1.9 0.95 2.08 0.95 3.29C0.95 4.16 1.18 4.98 1.58 5.69C1.9 6.25 1.53 7.02 0.96 6.71C0.94 6.7 0.91 6.71 0.91 6.74C0.91 8.62 1.98 10.24 3.52 11.03C3.8 11.18 3.77 11.61 3.46 11.61C3.06 11.61 2.73 12 2.92 12.35C3.14 12.76 3.41 13.13 3.74 13.46C4.6 14.33 4.96 16.18 3.79 16.52C2.94 16.77 2.05 16.91 1.12 16.91C0.85 16.91 0.72 17.29 0.97 17.42C2.84 18.43 4.96 19 7.23 19C15.91 19 20.65 11.69 20.65 5.35C20.65 5.3 20.65 5.25 20.65 5.2C20.65 4.91 20.78 4.63 21.01 4.45C21.47 4.07 21.9 3.65 22.28 3.2Z" fill="#FFFFFF" fill-opacity="1.000000" fill-rule="nonzero"/>
</svg>
