<svg width="19" height="19" viewBox="0 0 19 19" fill="none" xmlns="http://www.w3.org/2000/svg">
<g clip-path="url(#clip0_2436_24880)">
<path d="M10.5873 18.8836C15.5231 18.4031 19.1329 14.0059 18.6501 9.0621C18.1672 4.11827 13.7746 0.49998 8.83885 0.980402C3.90307 1.46082 0.293269 5.85803 0.776103 10.8019C1.25894 15.7457 5.65157 19.364 10.5873 18.8836Z" fill="#0098EA"/>
<path d="M12.7777 5.95764H6.64565C5.51818 5.95764 4.80396 7.17587 5.37151 8.1607L9.15814 14.7312C9.40524 15.1602 10.0241 15.1602 10.271 14.7312L14.0541 8.1607C14.6202 7.17744 13.9052 5.95764 12.7785 5.95764H12.7777ZM9.15442 12.7608L8.3297 11.163L6.33983 7.60027C6.20857 7.37223 6.37052 7.08002 6.64525 7.08002H9.1518L9.15365 12.7616L9.15442 12.7608ZM13.0831 7.5995L11.0963 11.1638L10.2726 12.7608L10.2708 7.07925H12.7773C13.0521 7.07925 13.2142 7.37146 13.0831 7.5995Z" fill="white"/>
</g>
<defs>
<clipPath id="clip0_2436_24880">
<rect width="17.9584" height="17.9883" fill="white" transform="matrix(1 0 0.000326253 1 0.730957 0.937958)"/>
</clipPath>
</defs>
</svg>
