<svg width="1160" height="60" viewBox="0 0 1160 60" fill="none" xmlns="http://www.w3.org/2000/svg">
<path d="M36.5425 19.9286L55.1853 48.75V28.1786L36.5425 19.9286Z" fill="#424147"/>
<path d="M73.9355 19.8214L55.1855 28.1786V48.75L73.9355 19.8214Z" fill="#222224"/>
<path d="M36.6496 19.5L36.5425 19.9286L55.1853 28.1786L73.9353 19.8214L54.9711 11.25L36.6496 19.5Z" fill="#74727F"/>
<path d="M109.706 16.825V21.0625H102.731V43H97.4814V21.0625H90.5064V16.825H109.706ZM123.137 43.3375C121.137 43.3375 119.337 42.9 117.737 42.025C116.137 41.125 114.874 39.8625 113.949 38.2375C113.049 36.6125 112.599 34.7375 112.599 32.6125C112.599 30.4875 113.062 28.6125 113.987 26.9875C114.937 25.3625 116.224 24.1125 117.849 23.2375C119.474 22.3375 121.287 21.8875 123.287 21.8875C125.287 21.8875 127.099 22.3375 128.724 23.2375C130.349 24.1125 131.624 25.3625 132.549 26.9875C133.499 28.6125 133.974 30.4875 133.974 32.6125C133.974 34.7375 133.487 36.6125 132.512 38.2375C131.562 39.8625 130.262 41.125 128.612 42.025C126.987 42.9 125.162 43.3375 123.137 43.3375ZM123.137 38.7625C124.087 38.7625 124.974 38.5375 125.799 38.0875C126.649 37.6125 127.324 36.9125 127.824 35.9875C128.324 35.0625 128.574 33.9375 128.574 32.6125C128.574 30.6375 128.049 29.125 126.999 28.075C125.974 27 124.712 26.4625 123.212 26.4625C121.712 26.4625 120.449 27 119.424 28.075C118.424 29.125 117.924 30.6375 117.924 32.6125C117.924 34.5875 118.412 36.1125 119.387 37.1875C120.387 38.2375 121.637 38.7625 123.137 38.7625ZM149.713 21.925C152.188 21.925 154.188 22.7125 155.713 24.2875C157.238 25.8375 158.001 28.0125 158.001 30.8125V43H152.751V31.525C152.751 29.875 152.338 28.6125 151.513 27.7375C150.688 26.8375 149.563 26.3875 148.138 26.3875C146.688 26.3875 145.538 26.8375 144.688 27.7375C143.863 28.6125 143.451 29.875 143.451 31.525V43H138.201V22.225H143.451V24.8125C144.151 23.9125 145.038 23.2125 146.113 22.7125C147.213 22.1875 148.413 21.925 149.713 21.925ZM175.668 43L168.618 34.15V43H163.368V15.25H168.618V31.0375L175.593 22.225H182.418L173.268 32.65L182.493 43H175.668ZM204.955 32.1625C204.955 32.9125 204.905 33.5875 204.805 34.1875H189.617C189.742 35.6875 190.267 36.8625 191.192 37.7125C192.117 38.5625 193.255 38.9875 194.605 38.9875C196.555 38.9875 197.942 38.15 198.767 36.475H204.43C203.83 38.475 202.68 40.125 200.98 41.425C199.28 42.7 197.192 43.3375 194.717 43.3375C192.717 43.3375 190.917 42.9 189.317 42.025C187.742 41.125 186.505 39.8625 185.605 38.2375C184.73 36.6125 184.292 34.7375 184.292 32.6125C184.292 30.4625 184.73 28.575 185.605 26.95C186.48 25.325 187.705 24.075 189.28 23.2C190.855 22.325 192.667 21.8875 194.717 21.8875C196.692 21.8875 198.455 22.3125 200.005 23.1625C201.58 24.0125 202.792 25.225 203.642 26.8C204.517 28.35 204.955 30.1375 204.955 32.1625ZM199.517 30.6625C199.492 29.3125 199.005 28.2375 198.055 27.4375C197.105 26.6125 195.942 26.2 194.567 26.2C193.267 26.2 192.167 26.6 191.267 27.4C190.392 28.175 189.855 29.2625 189.655 30.6625H199.517ZM228.474 32.1625C228.474 32.9125 228.424 33.5875 228.324 34.1875H213.137C213.262 35.6875 213.787 36.8625 214.712 37.7125C215.637 38.5625 216.774 38.9875 218.124 38.9875C220.074 38.9875 221.462 38.15 222.287 36.475H227.949C227.349 38.475 226.199 40.125 224.499 41.425C222.799 42.7 220.712 43.3375 218.237 43.3375C216.237 43.3375 214.437 42.9 212.837 42.025C211.262 41.125 210.024 39.8625 209.124 38.2375C208.249 36.6125 207.812 34.7375 207.812 32.6125C207.812 30.4625 208.249 28.575 209.124 26.95C209.999 25.325 211.224 24.075 212.799 23.2C214.374 22.325 216.187 21.8875 218.237 21.8875C220.212 21.8875 221.974 22.3125 223.524 23.1625C225.099 24.0125 226.312 25.225 227.162 26.8C228.037 28.35 228.474 30.1375 228.474 32.1625ZM223.037 30.6625C223.012 29.3125 222.524 28.2375 221.574 27.4375C220.624 26.6125 219.462 26.2 218.087 26.2C216.787 26.2 215.687 26.6 214.787 27.4C213.912 28.175 213.374 29.2625 213.174 30.6625H223.037ZM237.931 25.225C238.606 24.275 239.531 23.4875 240.706 22.8625C241.906 22.2125 243.269 21.8875 244.794 21.8875C246.569 21.8875 248.169 22.325 249.594 23.2C251.044 24.075 252.181 25.325 253.006 26.95C253.856 28.55 254.281 30.4125 254.281 32.5375C254.281 34.6625 253.856 36.55 253.006 38.2C252.181 39.825 251.044 41.0875 249.594 41.9875C248.169 42.8875 246.569 43.3375 244.794 43.3375C243.269 43.3375 241.919 43.025 240.744 42.4C239.594 41.775 238.656 40.9875 237.931 40.0375V52.9H232.681V22.225H237.931V25.225ZM248.919 32.5375C248.919 31.2875 248.656 30.2125 248.131 29.3125C247.631 28.3875 246.956 27.6875 246.106 27.2125C245.281 26.7375 244.381 26.5 243.406 26.5C242.456 26.5 241.556 26.75 240.706 27.25C239.881 27.725 239.206 28.425 238.681 29.35C238.181 30.275 237.931 31.3625 237.931 32.6125C237.931 33.8625 238.181 34.95 238.681 35.875C239.206 36.8 239.881 37.5125 240.706 38.0125C241.556 38.4875 242.456 38.725 243.406 38.725C244.381 38.725 245.281 38.475 246.106 37.975C246.956 37.475 247.631 36.7625 248.131 35.8375C248.656 34.9125 248.919 33.8125 248.919 32.5375ZM277.784 32.1625C277.784 32.9125 277.734 33.5875 277.634 34.1875H262.447C262.572 35.6875 263.097 36.8625 264.022 37.7125C264.947 38.5625 266.084 38.9875 267.434 38.9875C269.384 38.9875 270.772 38.15 271.597 36.475H277.259C276.659 38.475 275.509 40.125 273.809 41.425C272.109 42.7 270.022 43.3375 267.547 43.3375C265.547 43.3375 263.747 42.9 262.147 42.025C260.572 41.125 259.334 39.8625 258.434 38.2375C257.559 36.6125 257.122 34.7375 257.122 32.6125C257.122 30.4625 257.559 28.575 258.434 26.95C259.309 25.325 260.534 24.075 262.109 23.2C263.684 22.325 265.497 21.8875 267.547 21.8875C269.522 21.8875 271.284 22.3125 272.834 23.1625C274.409 24.0125 275.622 25.225 276.472 26.8C277.347 28.35 277.784 30.1375 277.784 32.1625ZM272.347 30.6625C272.322 29.3125 271.834 28.2375 270.884 27.4375C269.934 26.6125 268.772 26.2 267.397 26.2C266.097 26.2 264.997 26.6 264.097 27.4C263.222 28.175 262.684 29.2625 262.484 30.6625H272.347ZM287.241 25.45C287.916 24.35 288.791 23.4875 289.866 22.8625C290.966 22.2375 292.216 21.925 293.616 21.925V27.4375H292.229C290.579 27.4375 289.329 27.825 288.479 28.6C287.654 29.375 287.241 30.725 287.241 32.65V43H281.991V22.225H287.241V25.45Z" fill="#424147"/>
<path fill-rule="evenodd" clip-rule="evenodd" d="M366.868 0C368.941 0 371.464 0.150181 372.726 0.39047C373.898 0.630758 375.76 1.14137 376.842 1.56188C377.923 1.95235 379.756 2.76332 380.897 3.36405C382.039 3.93473 383.812 5.01603 384.803 5.7369C385.794 6.4878 387.387 7.86946 388.348 8.86065C389.309 9.82181 390.691 11.4438 391.382 12.435C392.103 13.4261 393.125 15.1082 393.666 16.1895C394.206 17.2708 394.837 18.6825 395.078 19.3433C395.318 20.0041 395.799 21.5059 396.129 22.6472C396.49 23.9989 396.76 26.1915 396.88 28.8046C397 31.9885 396.94 33.4002 396.55 35.4126C396.249 36.8243 395.738 38.7766 395.408 39.7678C395.048 40.759 394.387 42.381 393.876 43.3722C393.395 44.3633 392.284 46.1655 391.442 47.397C390.601 48.5984 388.829 50.6409 387.507 51.9024C386.185 53.194 384.022 54.846 382.7 55.6269C381.378 56.4078 379.275 57.4591 378.043 57.9697C376.812 58.5104 374.498 59.1712 372.936 59.5016C370.593 59.9821 369.271 60.0722 365.726 59.9521C362.181 59.832 360.889 59.6818 358.756 59.021C357.284 58.6005 355.001 57.6693 353.649 57.0086C352.267 56.3177 350.344 55.1763 349.353 54.4855C348.361 53.7947 346.619 52.2328 345.447 51.0614C344.306 49.86 342.774 48.0578 342.053 47.0366C341.331 46.0153 340.28 44.1831 339.709 43.0117C339.138 41.8103 338.327 39.6477 337.907 38.1759C337.276 36.1334 337.095 34.6917 336.975 31.5079C336.885 28.9849 336.945 26.612 337.186 25.2003C337.396 23.9688 337.817 22.0765 338.147 20.9952C338.477 19.9139 339.289 17.9616 339.95 16.64C340.61 15.3184 341.782 13.3661 342.533 12.2848C343.314 11.2035 344.756 9.52145 345.748 8.56029C346.739 7.59914 348.361 6.21748 349.353 5.49661C350.344 4.80578 352.237 3.69444 353.559 3.03365C354.881 2.37285 356.924 1.53184 358.065 1.20144C359.207 0.841011 360.859 0.420506 361.67 0.300361C362.511 0.150181 364.825 0.0300361 366.868 0V0ZM360.318 3.15379C360.018 3.2439 360.288 3.5743 361.22 4.17502C361.971 4.6556 362.572 5.01603 362.602 4.986C362.602 4.95596 363.022 4.35524 363.533 3.66441C364.044 2.94354 364.314 2.40289 364.134 2.40289C363.923 2.43293 363.112 2.55307 362.271 2.70325C361.46 2.85343 360.559 3.06368 360.318 3.15379ZM370.323 3.54426C370.833 4.20506 371.434 4.77574 371.584 4.77574C371.765 4.74571 372.335 4.50542 372.876 4.17502C373.387 3.84462 373.777 3.45415 373.687 3.27394C373.597 3.12376 372.966 2.9135 372.275 2.79336C371.554 2.70325 370.623 2.55307 370.172 2.46296L369.331 2.31278L370.323 3.54426ZM365.155 5.52665L364.464 6.42773C366.507 9.13098 367.138 9.91192 367.168 9.91192C367.228 9.88188 367.799 9.13098 368.46 8.2299L369.662 6.57791C367.679 4.02484 367.018 3.27394 366.958 3.27394C366.868 3.30397 366.597 3.60433 366.327 3.96477C366.056 4.3252 365.546 5.04607 365.155 5.52665ZM357.104 6.72809C356.473 8.59033 356.473 8.71047 356.954 9.10094C357.254 9.3112 358.095 9.91192 358.846 10.4225L360.198 11.3236C361.009 8.59033 361.22 7.59914 361.22 7.35885C361.19 7.11856 360.769 6.66802 360.228 6.36766C359.718 6.03726 358.936 5.55668 358.546 5.28636L357.765 4.77574L357.104 6.72809ZM372.846 6.87827C372.726 6.96838 372.876 7.83943 373.147 8.83062C373.417 9.82181 373.747 10.783 373.868 10.9331C374.048 11.1134 374.739 10.813 375.73 10.0621C376.601 9.40131 377.383 8.83062 377.473 8.77055C377.563 8.71047 377.352 7.83943 377.022 6.84823C376.692 5.82701 376.331 4.986 376.241 4.92592C376.151 4.89589 375.4 5.28636 374.559 5.79697C373.717 6.30758 372.936 6.78816 372.846 6.87827ZM351.576 7.11856C351.606 7.2387 352.057 7.44896 352.597 7.5691C353.138 7.68925 353.769 7.77935 353.979 7.77935C354.16 7.77935 354.52 7.17863 354.73 6.42773C354.911 5.67683 355.031 5.0761 354.941 5.0761C354.851 5.0761 354.07 5.49661 353.168 6.00722C352.297 6.4878 351.576 6.99842 351.576 7.11856ZM379.365 6.69805C379.696 7.80939 379.756 7.83943 380.777 7.65921C381.348 7.5691 382.009 7.47899 382.219 7.47899C382.4 7.47899 382.61 7.35885 382.64 7.2387C382.67 7.08852 381.949 6.57791 381.048 6.09733C380.176 5.61675 379.335 5.19625 379.245 5.13618C379.125 5.0761 379.035 5.13618 379.005 5.28636C379.005 5.4065 379.155 6.0673 379.365 6.69805ZM363.112 10.0921C362.872 10.7229 362.752 11.2635 362.812 11.3236C362.872 11.3837 363.323 11.2936 363.833 11.1734L364.795 10.9331L363.503 8.95076L363.112 10.0921ZM349.773 11.2035C349.803 12.2247 349.954 13.1859 350.074 13.3661C350.194 13.5763 351.125 13.9668 352.147 14.2672C353.198 14.5976 354.1 14.7778 354.16 14.6877C354.22 14.5976 354.22 13.5763 354.13 12.435L353.979 10.3324L349.713 9.37127L349.773 11.2035ZM369.722 11.0833C369.932 11.0833 370.413 11.2035 370.803 11.3236C371.464 11.5339 371.464 11.5038 371.164 10.4826C370.983 9.91192 370.803 9.40131 370.743 9.34123C370.713 9.28116 370.353 9.67163 370.022 10.1822C369.602 10.7529 369.481 11.0833 369.722 11.0833ZM380.086 11.624C379.966 12.4049 379.876 13.4261 379.876 13.8767C379.876 14.5074 379.996 14.6576 380.387 14.5675C380.687 14.5074 381.619 14.2972 382.49 14.117L384.082 13.7866C384.082 9.70167 384.052 9.58152 383.391 9.61156C383.031 9.64159 382.189 9.76174 381.528 9.91192C380.387 10.1822 380.297 10.2423 380.086 11.624ZM386.485 13.6364C388.919 13.9368 389.67 13.9968 389.7 13.9968C389.76 13.9668 389.039 13.1258 388.138 12.1346L386.515 10.3324L386.485 13.6364ZM344.516 13.9968C344.546 13.9968 345.297 13.9368 346.168 13.8467C347.731 13.6364 347.731 13.6364 347.731 12.5851C347.731 12.0144 347.61 11.3537 347.49 11.1434C347.31 10.843 346.859 11.1734 345.838 12.3448C345.087 13.2159 344.486 13.9668 344.516 13.9968ZM356.443 14.0869C357.855 13.276 358.275 12.9756 358.275 12.8855C358.306 12.7954 357.885 12.465 357.404 12.1947L356.503 11.654L356.443 14.0869ZM375.64 13.0357C377.413 14.0569 377.473 14.0569 377.473 13.5763C377.473 13.276 377.533 12.7353 377.593 12.3749C377.653 11.9844 377.623 11.6841 377.533 11.6841C377.413 11.6841 376.932 11.9844 376.481 12.3749L375.64 13.0357ZM360.949 14.5074C359.868 14.928 358.035 15.9792 356.894 16.8503C355.451 17.9316 354.34 19.133 353.288 20.6949C352.447 21.9264 351.516 23.6685 351.185 24.5996C350.885 25.5007 350.585 27.483 350.494 29.105C350.404 30.787 350.494 32.6192 350.705 33.6104C350.915 34.5115 351.576 36.2536 352.177 37.5151C352.928 39.077 353.859 40.3685 355.301 41.7802C356.803 43.282 357.975 44.1231 359.808 44.9941C361.55 45.8351 362.992 46.2857 364.705 46.4959C366.387 46.7362 367.769 46.7362 369.361 46.5259C370.803 46.3157 372.395 45.8051 373.868 45.1143C375.099 44.5436 376.722 43.5824 377.473 42.9817C378.194 42.381 379.335 41.2997 379.966 40.5187C380.567 39.7678 381.558 38.2059 382.099 37.0646C382.67 35.8932 383.301 34.0009 383.481 32.8595C383.691 31.628 383.782 29.8259 383.661 28.5643C383.541 27.3629 383.151 25.5307 382.79 24.5095C382.4 23.4882 381.739 22.0165 381.318 21.2956C380.867 20.5447 379.846 19.2832 379.065 18.4722C378.254 17.6913 376.872 16.5499 375.971 15.9492C375.039 15.3485 373.357 14.5675 372.215 14.177C371.044 13.8166 369.211 13.4562 368.159 13.3661C367.078 13.276 365.456 13.336 364.554 13.4562C363.623 13.6064 362.001 14.0869 360.949 14.5074ZM344.786 16.3396L343.825 16.4898L345.237 20.2443C348.271 20.2443 349.293 20.1242 349.413 20.0041C349.563 19.8839 349.263 18.8927 348.782 17.8114C348.271 16.7301 347.791 15.8891 347.731 15.9191C347.64 15.9492 347.16 16.0093 346.679 16.0693C346.168 16.1294 345.327 16.2495 344.786 16.3396ZM384.443 20.0041C384.473 20.0341 385.464 20.1542 386.636 20.2744L388.739 20.4546C390 17.0004 390.06 16.5799 389.73 16.3997C389.52 16.2796 388.829 16.1895 388.198 16.1895C387.567 16.1895 386.876 16.0994 386.666 16.0093C386.365 15.8591 385.975 16.4298 385.314 17.8715C384.773 19.0129 384.412 19.974 384.443 20.0041ZM381.318 17.3008C381.468 17.6012 381.769 17.9916 382.009 18.2019C382.34 18.5022 382.52 18.3521 382.94 17.3609C383.241 16.7001 383.361 16.1895 383.241 16.1895C383.121 16.2195 382.58 16.3396 382.039 16.4898C381.258 16.7301 381.108 16.8803 381.318 17.3008ZM351.666 18.3821C351.786 18.4121 352.147 18.0517 352.507 17.6012L353.138 16.7902C351.606 16.5499 351.095 16.4598 350.975 16.4598C350.855 16.4898 350.915 16.8803 351.125 17.3909C351.306 17.9015 351.576 18.3521 351.666 18.3821ZM391.503 21.5359C391.803 21.7461 392.404 22.1066 392.854 22.3469C393.335 22.5872 393.696 22.6472 393.696 22.4971C393.696 22.3168 393.395 21.4158 393.035 20.4546C392.704 19.4934 392.314 18.6224 392.224 18.5022C392.103 18.3821 391.803 18.9228 391.503 19.7037C390.992 21.0854 390.992 21.1454 391.503 21.5359ZM340.791 21.2055C340.46 22.0765 340.25 22.7974 340.28 22.7974C340.31 22.7974 340.971 22.467 341.722 22.0465L343.074 21.2956C342.533 19.1931 342.233 18.5924 342.053 18.5924C341.902 18.5924 341.662 18.8026 341.542 19.103C341.452 19.4033 341.091 20.3345 340.791 21.2055ZM347.941 23.7586L348.782 24.5695C349.353 22.5872 349.323 22.4971 348.782 22.5271C348.452 22.5271 347.941 22.6172 347.64 22.7373C347.13 22.9176 347.16 23.0077 347.941 23.7586ZM384.983 23.6084L385.284 24.4494C386.425 23.278 386.696 22.8274 386.606 22.7073C386.545 22.5872 386.065 22.4971 385.584 22.4971C385.073 22.4971 384.683 22.5571 384.683 22.6472C384.683 22.7073 384.803 23.1578 384.983 23.6084ZM340.55 25.3505L343.374 28.4442L347.43 26.5519L344.246 23.4282L340.55 25.3505ZM386.786 26.5219C386.876 26.582 387.777 27.0625 388.799 27.5732L390.691 28.5043C392.764 26.3116 393.365 25.5607 393.365 25.4406C393.395 25.3204 392.584 24.8098 391.593 24.2992C390.601 23.8186 389.76 23.3981 389.7 23.3981C389.64 23.3981 388.949 24.089 388.108 24.8999C387.297 25.7109 386.696 26.4618 386.786 26.5219ZM339.319 32.5592C340.941 30.8171 341.422 30.2163 341.392 30.0962C341.392 29.976 340.911 29.3153 340.34 28.6545L339.289 27.453L339.319 32.5592ZM392.344 30.0061C393.966 31.628 394.537 32.0185 394.657 31.9584C394.777 31.8683 394.897 30.9973 394.927 30.0361C394.927 29.0449 394.807 28.1739 394.657 28.0838C394.477 27.9937 393.906 28.4142 393.335 28.9849L392.344 30.0061ZM345.477 30.0662C347.25 30.9372 347.821 31.1475 347.911 31.1174C347.971 31.0874 348.001 30.5467 347.971 29.946L347.851 28.8347L345.477 30.0662ZM386.185 31.1775C387.927 30.4266 388.468 30.1563 388.528 30.0962C388.558 30.0361 388.048 29.7057 387.417 29.3753L386.215 28.7746L386.185 31.1775ZM388.769 32.439C387.777 32.9196 386.876 33.3701 386.786 33.4602C386.696 33.5203 387.297 34.2712 388.138 35.0822C388.949 35.8932 389.76 36.584 389.94 36.554C390.091 36.554 390.992 36.1334 391.923 35.5928L393.636 34.6316L390.631 31.598L388.769 32.439ZM340.34 34.6917L344.396 36.8543C346.499 34.4214 347.13 33.6405 347.13 33.5503C347.13 33.4602 346.349 33.0397 345.387 32.5892C344.426 32.1386 343.585 31.7482 343.495 31.7482C343.404 31.7482 342.653 32.409 341.842 33.2199L340.34 34.6917ZM346.949 37.4851C349.323 37.455 349.473 37.395 349.233 36.9444C349.082 36.6441 348.932 36.2236 348.842 36.0133C348.762 35.753 348.422 35.9332 347.821 36.554L346.949 37.4851ZM385.043 36.4338C384.833 36.9144 384.683 37.3649 384.743 37.395C384.773 37.455 385.344 37.455 385.975 37.395L387.116 37.3049L385.404 35.5628L385.043 36.4338ZM340.791 38.7466C341.091 39.6176 341.422 40.5488 341.542 40.8491C341.632 41.1194 341.812 41.3597 341.932 41.3597C342.053 41.3597 342.383 40.789 342.623 40.0682L343.074 38.7466L340.22 37.1547L340.791 38.7466ZM391.172 39.3473C391.292 39.7378 391.533 40.4286 391.743 40.9392L392.103 41.8403C393.035 39.7378 393.365 38.7466 393.455 38.2961C393.515 37.8455 393.515 37.4851 393.425 37.4851C393.305 37.5151 392.734 37.7854 392.103 38.0858C391.172 38.5664 391.022 38.8067 391.172 39.3473ZM344.666 41.4198C344.216 42.4711 343.975 43.4322 344.065 43.5223C344.186 43.6425 345.087 43.7927 346.078 43.9128L347.881 44.1231L349.834 39.888C348.091 39.888 347.1 39.7979 346.499 39.7077L345.447 39.5275L344.666 41.4198ZM384.473 40.0982C384.503 40.2184 384.863 41.1795 385.284 42.2308L386.035 44.1231C388.138 43.8527 389.039 43.7626 389.43 43.7626C389.79 43.7626 390.091 43.6124 390.091 43.4022C390.091 43.1919 389.79 42.2308 389.4 41.2696C388.769 39.5876 388.709 39.5576 387.687 39.6176C387.116 39.6477 386.125 39.7077 385.524 39.7678C384.893 39.8279 384.412 39.9781 384.473 40.0982ZM350.795 43.6725C350.855 43.7326 351.426 43.6124 352.087 43.4322L353.288 43.1319C352.117 41.8703 351.786 41.4799 351.786 41.4498C351.756 41.4198 351.516 41.8703 351.246 42.5011C350.945 43.1018 350.765 43.6425 350.795 43.6725ZM380.777 43.0117C382.76 43.5824 383.361 43.7025 383.361 43.6725C383.391 43.6425 383.181 43.1018 382.91 42.4711L382.43 41.3297L380.777 43.0117ZM350.164 46.586C349.984 46.7662 349.834 47.7574 349.834 48.8087V50.6709C351.366 50.4006 352.297 50.1904 352.928 50.0402C354.009 49.7999 354.039 49.7398 354.039 48.5083C354.039 47.7875 354.1 46.7963 354.19 46.2556C354.25 45.715 354.22 45.2945 354.1 45.2945C353.979 45.3245 353.138 45.5348 352.207 45.8051C351.246 46.0754 350.344 46.4358 350.164 46.586ZM380.116 48.6585C380.297 49.6497 380.477 49.8299 381.378 50.0702C381.949 50.2204 382.85 50.4006 383.331 50.5208L384.232 50.701L384.172 46.2556C381.498 45.6549 380.567 45.4146 380.357 45.3545C380.086 45.2644 379.966 45.5648 379.936 46.3758C379.906 47.0065 379.996 48.0278 380.116 48.6585ZM356.443 48.268C357.855 47.4571 358.275 47.1567 358.275 47.0666C358.306 46.9765 357.915 46.6461 357.404 46.3758L356.503 45.8351L356.443 48.268ZM375.67 47.0666C375.67 47.1567 376.151 47.5171 376.722 47.9076C377.653 48.5083 377.773 48.5083 377.743 48.0578C377.713 47.7574 377.593 47.1567 377.473 46.7362C377.232 45.9853 377.202 45.9853 376.451 46.4358C376.031 46.7062 375.67 46.9765 375.67 47.0666ZM346.379 48.208C347.01 48.8988 347.34 49.049 347.49 48.8087C347.61 48.5984 347.731 47.9677 347.731 47.4571C347.731 46.6761 347.58 46.4358 347.07 46.3157C346.679 46.2256 345.988 46.1655 345.477 46.1655C344.666 46.1655 344.636 46.2256 345.027 46.7062C345.267 46.9765 345.868 47.6673 346.379 48.208ZM386.425 48.0878L386.485 49.6197C387.927 48.238 388.588 47.4571 388.919 47.0065L389.49 46.1655C387.477 46.1655 386.786 46.2556 386.636 46.3758C386.485 46.4659 386.395 47.2468 386.425 48.0878ZM363.082 50.0702L363.413 51.1215L364.885 49.0189C363.803 48.7186 363.323 48.6285 363.142 48.5984C362.932 48.5684 362.752 48.6585 362.752 48.8087C362.752 48.9288 362.902 49.4995 363.082 50.0702ZM369.331 49.0189L370.803 51.1215C371.074 49.9501 371.164 49.3794 371.224 49.1091C371.284 48.8087 371.194 48.5684 371.014 48.5984C370.863 48.6285 370.413 48.7186 370.022 48.8387L369.331 49.0189ZM356.443 51.2717L357.795 55.1463C359.417 54.1251 360.198 53.6745 360.559 53.4643C360.949 53.224 361.25 52.8636 361.25 52.6233C361.25 52.353 361.039 51.4218 360.799 50.5208C360.559 49.5896 360.258 48.8688 360.108 48.8688C359.988 48.8688 359.117 49.4094 358.155 50.0702L356.443 51.2717ZM373.147 51.1215C372.876 52.1127 372.696 52.9537 372.756 52.9537C372.786 52.9837 373.597 53.4943 374.559 54.0951C375.76 54.846 376.331 55.0562 376.421 54.8159C376.511 54.6057 376.782 53.8247 377.052 53.0738C377.292 52.3229 377.503 51.6021 377.503 51.4218C377.473 51.2717 377.052 50.8512 376.511 50.4907C375.971 50.1603 375.189 49.6497 374.739 49.3493C374.318 49.079 373.898 48.9589 373.807 49.079C373.717 49.1992 373.417 50.1303 373.147 51.1215ZM365.846 51.6922C365.155 52.6233 364.614 53.4943 364.644 53.6145C364.675 53.7346 365.185 54.4855 365.756 55.2364C366.357 56.0174 366.898 56.6782 366.958 56.6782C367.048 56.6782 367.679 55.9873 368.37 55.1163C369.571 53.5844 369.602 53.4943 369.181 52.7735C368.941 52.353 368.37 51.572 367.919 51.0314L367.108 50.0101L365.846 51.6922ZM351.967 52.6533C351.666 52.7534 352.067 53.1539 353.168 53.8548C354.07 54.4254 354.911 54.876 355.031 54.876C355.181 54.876 355.091 54.3053 354.851 53.6145C354.64 52.8936 354.28 52.2929 354.039 52.2929C353.799 52.2628 353.349 52.2929 353.018 52.383C352.688 52.4431 352.207 52.5632 351.967 52.6533ZM378.704 55.1763C380.928 53.9148 381.799 53.3742 382.069 53.1639C382.37 52.9537 382.52 52.7134 382.37 52.6533C382.249 52.5932 381.619 52.4431 380.958 52.353L379.756 52.1427L378.704 55.1763ZM361.22 55.7771C360.499 56.2276 360.048 56.6782 360.228 56.7683C360.378 56.8584 361.4 57.0686 362.481 57.2488C363.533 57.4291 364.434 57.5192 364.464 57.4891C364.494 57.4591 364.044 56.8884 363.503 56.1976L362.511 54.9661L361.22 55.7771ZM369.241 57.6693C370.623 57.399 371.614 57.2488 372.305 57.1287C373.026 57.0386 373.657 56.8283 373.747 56.6782C373.838 56.4979 373.447 56.1075 372.906 55.7771C372.365 55.4467 371.795 55.1763 371.644 55.1763C371.464 55.1763 370.863 55.747 370.292 56.4379L369.241 57.6693Z" fill="#424147"/>
<path fill-rule="evenodd" clip-rule="evenodd" d="M366.868 0C368.941 0 371.464 0.150181 372.726 0.39047C373.898 0.630758 375.76 1.14137 376.842 1.56188C377.923 1.95235 379.756 2.76332 380.897 3.36405C382.039 3.93473 383.812 5.01603 384.803 5.7369C385.794 6.4878 387.387 7.86946 388.348 8.86065C389.309 9.82181 390.691 11.4438 391.382 12.435C392.103 13.4261 393.125 15.1082 393.666 16.1895C394.206 17.2708 394.837 18.6825 395.078 19.3433C395.318 20.0041 395.799 21.5059 396.129 22.6472C396.49 23.9989 396.76 26.1915 396.88 28.8046C397 31.9885 396.94 33.4002 396.55 35.4126C396.249 36.8243 395.738 38.7766 395.408 39.7678C395.048 40.759 394.387 42.381 393.876 43.3722C393.395 44.3633 392.284 46.1655 391.442 47.397C390.601 48.5984 388.829 50.6409 387.507 51.9024C386.185 53.194 384.022 54.846 382.7 55.6269C381.378 56.4078 379.275 57.4591 378.043 57.9697C376.812 58.5104 374.498 59.1712 372.936 59.5016C370.593 59.9821 369.271 60.0722 365.726 59.9521C362.181 59.832 360.889 59.6818 358.756 59.021C357.284 58.6005 355.001 57.6693 353.649 57.0086C352.267 56.3177 350.344 55.1763 349.353 54.4855C348.361 53.7947 346.619 52.2328 345.447 51.0614C344.306 49.86 342.774 48.0578 342.053 47.0366C341.331 46.0153 340.28 44.1831 339.709 43.0117C339.138 41.8103 338.327 39.6477 337.907 38.1759C337.276 36.1334 337.095 34.6917 336.975 31.5079C336.885 28.9849 336.945 26.612 337.186 25.2003C337.396 23.9688 337.817 22.0765 338.147 20.9952C338.477 19.9139 339.289 17.9616 339.95 16.64C340.61 15.3184 341.782 13.3661 342.533 12.2848C343.314 11.2035 344.756 9.52145 345.748 8.56029C346.739 7.59914 348.361 6.21748 349.353 5.49661C350.344 4.80578 352.237 3.69444 353.559 3.03365C354.881 2.37285 356.924 1.53184 358.065 1.20144C359.207 0.841011 360.859 0.420506 361.67 0.300361C362.511 0.150181 364.825 0.0300361 366.868 0V0ZM360.318 3.15379C360.018 3.2439 360.288 3.5743 361.22 4.17502C361.971 4.6556 362.572 5.01603 362.602 4.986C362.602 4.95596 363.022 4.35524 363.533 3.66441C364.044 2.94354 364.314 2.40289 364.134 2.40289C363.923 2.43293 363.112 2.55307 362.271 2.70325C361.46 2.85343 360.559 3.06368 360.318 3.15379ZM370.323 3.54426C370.833 4.20506 371.434 4.77574 371.584 4.77574C371.765 4.74571 372.335 4.50542 372.876 4.17502C373.387 3.84462 373.777 3.45415 373.687 3.27394C373.597 3.12376 372.966 2.9135 372.275 2.79336C371.554 2.70325 370.623 2.55307 370.172 2.46296L369.331 2.31278L370.323 3.54426ZM365.155 5.52665L364.464 6.42773C366.507 9.13098 367.138 9.91192 367.168 9.91192C367.228 9.88188 367.799 9.13098 368.46 8.2299L369.662 6.57791C367.679 4.02484 367.018 3.27394 366.958 3.27394C366.868 3.30397 366.597 3.60433 366.327 3.96477C366.056 4.3252 365.546 5.04607 365.155 5.52665ZM357.104 6.72809C356.473 8.59033 356.473 8.71047 356.954 9.10094C357.254 9.3112 358.095 9.91192 358.846 10.4225L360.198 11.3236C361.009 8.59033 361.22 7.59914 361.22 7.35885C361.19 7.11856 360.769 6.66802 360.228 6.36766C359.718 6.03726 358.936 5.55668 358.546 5.28636L357.765 4.77574L357.104 6.72809ZM372.846 6.87827C372.726 6.96838 372.876 7.83943 373.147 8.83062C373.417 9.82181 373.747 10.783 373.868 10.9331C374.048 11.1134 374.739 10.813 375.73 10.0621C376.601 9.40131 377.383 8.83062 377.473 8.77055C377.563 8.71047 377.352 7.83943 377.022 6.84823C376.692 5.82701 376.331 4.986 376.241 4.92592C376.151 4.89589 375.4 5.28636 374.559 5.79697C373.717 6.30758 372.936 6.78816 372.846 6.87827ZM351.576 7.11856C351.606 7.2387 352.057 7.44896 352.597 7.5691C353.138 7.68925 353.769 7.77935 353.979 7.77935C354.16 7.77935 354.52 7.17863 354.73 6.42773C354.911 5.67683 355.031 5.0761 354.941 5.0761C354.851 5.0761 354.07 5.49661 353.168 6.00722C352.297 6.4878 351.576 6.99842 351.576 7.11856ZM379.365 6.69805C379.696 7.80939 379.756 7.83943 380.777 7.65921C381.348 7.5691 382.009 7.47899 382.219 7.47899C382.4 7.47899 382.61 7.35885 382.64 7.2387C382.67 7.08852 381.949 6.57791 381.048 6.09733C380.176 5.61675 379.335 5.19625 379.245 5.13618C379.125 5.0761 379.035 5.13618 379.005 5.28636C379.005 5.4065 379.155 6.0673 379.365 6.69805ZM363.112 10.0921C362.872 10.7229 362.752 11.2635 362.812 11.3236C362.872 11.3837 363.323 11.2936 363.833 11.1734L364.795 10.9331L363.503 8.95076L363.112 10.0921ZM349.773 11.2035C349.803 12.2247 349.954 13.1859 350.074 13.3661C350.194 13.5763 351.125 13.9668 352.147 14.2672C353.198 14.5976 354.1 14.7778 354.16 14.6877C354.22 14.5976 354.22 13.5763 354.13 12.435L353.979 10.3324L349.713 9.37127L349.773 11.2035ZM369.722 11.0833C369.932 11.0833 370.413 11.2035 370.803 11.3236C371.464 11.5339 371.464 11.5038 371.164 10.4826C370.983 9.91192 370.803 9.40131 370.743 9.34123C370.713 9.28116 370.353 9.67163 370.022 10.1822C369.602 10.7529 369.481 11.0833 369.722 11.0833ZM380.086 11.624C379.966 12.4049 379.876 13.4261 379.876 13.8767C379.876 14.5074 379.996 14.6576 380.387 14.5675C380.687 14.5074 381.619 14.2972 382.49 14.117L384.082 13.7866C384.082 9.70167 384.052 9.58152 383.391 9.61156C383.031 9.64159 382.189 9.76174 381.528 9.91192C380.387 10.1822 380.297 10.2423 380.086 11.624ZM386.485 13.6364C388.919 13.9368 389.67 13.9968 389.7 13.9968C389.76 13.9668 389.039 13.1258 388.138 12.1346L386.515 10.3324L386.485 13.6364ZM344.516 13.9968C344.546 13.9968 345.297 13.9368 346.168 13.8467C347.731 13.6364 347.731 13.6364 347.731 12.5851C347.731 12.0144 347.61 11.3537 347.49 11.1434C347.31 10.843 346.859 11.1734 345.838 12.3448C345.087 13.2159 344.486 13.9668 344.516 13.9968ZM356.443 14.0869C357.855 13.276 358.275 12.9756 358.275 12.8855C358.306 12.7954 357.885 12.465 357.404 12.1947L356.503 11.654L356.443 14.0869ZM375.64 13.0357C377.413 14.0569 377.473 14.0569 377.473 13.5763C377.473 13.276 377.533 12.7353 377.593 12.3749C377.653 11.9844 377.623 11.6841 377.533 11.6841C377.413 11.6841 376.932 11.9844 376.481 12.3749L375.64 13.0357ZM360.949 14.5074C359.868 14.928 358.035 15.9792 356.894 16.8503C355.451 17.9316 354.34 19.133 353.288 20.6949C352.447 21.9264 351.516 23.6685 351.185 24.5996C350.885 25.5007 350.585 27.483 350.494 29.105C350.404 30.787 350.494 32.6192 350.705 33.6104C350.915 34.5115 351.576 36.2536 352.177 37.5151C352.928 39.077 353.859 40.3685 355.301 41.7802C356.803 43.282 357.975 44.1231 359.808 44.9941C361.55 45.8351 362.992 46.2857 364.705 46.4959C366.387 46.7362 367.769 46.7362 369.361 46.5259C370.803 46.3157 372.395 45.8051 373.868 45.1143C375.099 44.5436 376.722 43.5824 377.473 42.9817C378.194 42.381 379.335 41.2997 379.966 40.5187C380.567 39.7678 381.558 38.2059 382.099 37.0646C382.67 35.8932 383.301 34.0009 383.481 32.8595C383.691 31.628 383.782 29.8259 383.661 28.5643C383.541 27.3629 383.151 25.5307 382.79 24.5095C382.4 23.4882 381.739 22.0165 381.318 21.2956C380.867 20.5447 379.846 19.2832 379.065 18.4722C378.254 17.6913 376.872 16.5499 375.971 15.9492C375.039 15.3485 373.357 14.5675 372.215 14.177C371.044 13.8166 369.211 13.4562 368.159 13.3661C367.078 13.276 365.456 13.336 364.554 13.4562C363.623 13.6064 362.001 14.0869 360.949 14.5074ZM344.786 16.3396L343.825 16.4898L345.237 20.2443C348.271 20.2443 349.293 20.1242 349.413 20.0041C349.563 19.8839 349.263 18.8927 348.782 17.8114C348.271 16.7301 347.791 15.8891 347.731 15.9191C347.64 15.9492 347.16 16.0093 346.679 16.0693C346.168 16.1294 345.327 16.2495 344.786 16.3396ZM384.443 20.0041C384.473 20.0341 385.464 20.1542 386.636 20.2744L388.739 20.4546C390 17.0004 390.06 16.5799 389.73 16.3997C389.52 16.2796 388.829 16.1895 388.198 16.1895C387.567 16.1895 386.876 16.0994 386.666 16.0093C386.365 15.8591 385.975 16.4298 385.314 17.8715C384.773 19.0129 384.412 19.974 384.443 20.0041ZM381.318 17.3008C381.468 17.6012 381.769 17.9916 382.009 18.2019C382.34 18.5022 382.52 18.3521 382.94 17.3609C383.241 16.7001 383.361 16.1895 383.241 16.1895C383.121 16.2195 382.58 16.3396 382.039 16.4898C381.258 16.7301 381.108 16.8803 381.318 17.3008ZM351.666 18.3821C351.786 18.4121 352.147 18.0517 352.507 17.6012L353.138 16.7902C351.606 16.5499 351.095 16.4598 350.975 16.4598C350.855 16.4898 350.915 16.8803 351.125 17.3909C351.306 17.9015 351.576 18.3521 351.666 18.3821ZM391.503 21.5359C391.803 21.7461 392.404 22.1066 392.854 22.3469C393.335 22.5872 393.696 22.6472 393.696 22.4971C393.696 22.3168 393.395 21.4158 393.035 20.4546C392.704 19.4934 392.314 18.6224 392.224 18.5022C392.103 18.3821 391.803 18.9228 391.503 19.7037C390.992 21.0854 390.992 21.1454 391.503 21.5359ZM340.791 21.2055C340.46 22.0765 340.25 22.7974 340.28 22.7974C340.31 22.7974 340.971 22.467 341.722 22.0465L343.074 21.2956C342.533 19.1931 342.233 18.5924 342.053 18.5924C341.902 18.5924 341.662 18.8026 341.542 19.103C341.452 19.4033 341.091 20.3345 340.791 21.2055ZM347.941 23.7586L348.782 24.5695C349.353 22.5872 349.323 22.4971 348.782 22.5271C348.452 22.5271 347.941 22.6172 347.64 22.7373C347.13 22.9176 347.16 23.0077 347.941 23.7586ZM384.983 23.6084L385.284 24.4494C386.425 23.278 386.696 22.8274 386.606 22.7073C386.545 22.5872 386.065 22.4971 385.584 22.4971C385.073 22.4971 384.683 22.5571 384.683 22.6472C384.683 22.7073 384.803 23.1578 384.983 23.6084ZM340.55 25.3505L343.374 28.4442L347.43 26.5519L344.246 23.4282L340.55 25.3505ZM386.786 26.5219C386.876 26.582 387.777 27.0625 388.799 27.5732L390.691 28.5043C392.764 26.3116 393.365 25.5607 393.365 25.4406C393.395 25.3204 392.584 24.8098 391.593 24.2992C390.601 23.8186 389.76 23.3981 389.7 23.3981C389.64 23.3981 388.949 24.089 388.108 24.8999C387.297 25.7109 386.696 26.4618 386.786 26.5219ZM339.319 32.5592C340.941 30.8171 341.422 30.2163 341.392 30.0962C341.392 29.976 340.911 29.3153 340.34 28.6545L339.289 27.453L339.319 32.5592ZM392.344 30.0061C393.966 31.628 394.537 32.0185 394.657 31.9584C394.777 31.8683 394.897 30.9973 394.927 30.0361C394.927 29.0449 394.807 28.1739 394.657 28.0838C394.477 27.9937 393.906 28.4142 393.335 28.9849L392.344 30.0061ZM345.477 30.0662C347.25 30.9372 347.821 31.1475 347.911 31.1174C347.971 31.0874 348.001 30.5467 347.971 29.946L347.851 28.8347L345.477 30.0662ZM386.185 31.1775C387.927 30.4266 388.468 30.1563 388.528 30.0962C388.558 30.0361 388.048 29.7057 387.417 29.3753L386.215 28.7746L386.185 31.1775ZM388.769 32.439C387.777 32.9196 386.876 33.3701 386.786 33.4602C386.696 33.5203 387.297 34.2712 388.138 35.0822C388.949 35.8932 389.76 36.584 389.94 36.554C390.091 36.554 390.992 36.1334 391.923 35.5928L393.636 34.6316L390.631 31.598L388.769 32.439ZM340.34 34.6917L344.396 36.8543C346.499 34.4214 347.13 33.6405 347.13 33.5503C347.13 33.4602 346.349 33.0397 345.387 32.5892C344.426 32.1386 343.585 31.7482 343.495 31.7482C343.404 31.7482 342.653 32.409 341.842 33.2199L340.34 34.6917ZM346.949 37.4851C349.323 37.455 349.473 37.395 349.233 36.9444C349.082 36.6441 348.932 36.2236 348.842 36.0133C348.762 35.753 348.422 35.9332 347.821 36.554L346.949 37.4851ZM385.043 36.4338C384.833 36.9144 384.683 37.3649 384.743 37.395C384.773 37.455 385.344 37.455 385.975 37.395L387.116 37.3049L385.404 35.5628L385.043 36.4338ZM340.791 38.7466C341.091 39.6176 341.422 40.5488 341.542 40.8491C341.632 41.1194 341.812 41.3597 341.932 41.3597C342.053 41.3597 342.383 40.789 342.623 40.0682L343.074 38.7466L340.22 37.1547L340.791 38.7466ZM391.172 39.3473C391.292 39.7378 391.533 40.4286 391.743 40.9392L392.103 41.8403C393.035 39.7378 393.365 38.7466 393.455 38.2961C393.515 37.8455 393.515 37.4851 393.425 37.4851C393.305 37.5151 392.734 37.7854 392.103 38.0858C391.172 38.5664 391.022 38.8067 391.172 39.3473ZM344.666 41.4198C344.216 42.4711 343.975 43.4322 344.065 43.5223C344.186 43.6425 345.087 43.7927 346.078 43.9128L347.881 44.1231L349.834 39.888C348.091 39.888 347.1 39.7979 346.499 39.7077L345.447 39.5275L344.666 41.4198ZM384.473 40.0982C384.503 40.2184 384.863 41.1795 385.284 42.2308L386.035 44.1231C388.138 43.8527 389.039 43.7626 389.43 43.7626C389.79 43.7626 390.091 43.6124 390.091 43.4022C390.091 43.1919 389.79 42.2308 389.4 41.2696C388.769 39.5876 388.709 39.5576 387.687 39.6176C387.116 39.6477 386.125 39.7077 385.524 39.7678C384.893 39.8279 384.412 39.9781 384.473 40.0982ZM350.795 43.6725C350.855 43.7326 351.426 43.6124 352.087 43.4322L353.288 43.1319C352.117 41.8703 351.786 41.4799 351.786 41.4498C351.756 41.4198 351.516 41.8703 351.246 42.5011C350.945 43.1018 350.765 43.6425 350.795 43.6725ZM380.777 43.0117C382.76 43.5824 383.361 43.7025 383.361 43.6725C383.391 43.6425 383.181 43.1018 382.91 42.4711L382.43 41.3297L380.777 43.0117ZM350.164 46.586C349.984 46.7662 349.834 47.7574 349.834 48.8087V50.6709C351.366 50.4006 352.297 50.1904 352.928 50.0402C354.009 49.7999 354.039 49.7398 354.039 48.5083C354.039 47.7875 354.1 46.7963 354.19 46.2556C354.25 45.715 354.22 45.2945 354.1 45.2945C353.979 45.3245 353.138 45.5348 352.207 45.8051C351.246 46.0754 350.344 46.4358 350.164 46.586ZM380.116 48.6585C380.297 49.6497 380.477 49.8299 381.378 50.0702C381.949 50.2204 382.85 50.4006 383.331 50.5208L384.232 50.701L384.172 46.2556C381.498 45.6549 380.567 45.4146 380.357 45.3545C380.086 45.2644 379.966 45.5648 379.936 46.3758C379.906 47.0065 379.996 48.0278 380.116 48.6585ZM356.443 48.268C357.855 47.4571 358.275 47.1567 358.275 47.0666C358.306 46.9765 357.915 46.6461 357.404 46.3758L356.503 45.8351L356.443 48.268ZM375.67 47.0666C375.67 47.1567 376.151 47.5171 376.722 47.9076C377.653 48.5083 377.773 48.5083 377.743 48.0578C377.713 47.7574 377.593 47.1567 377.473 46.7362C377.232 45.9853 377.202 45.9853 376.451 46.4358C376.031 46.7062 375.67 46.9765 375.67 47.0666ZM346.379 48.208C347.01 48.8988 347.34 49.049 347.49 48.8087C347.61 48.5984 347.731 47.9677 347.731 47.4571C347.731 46.6761 347.58 46.4358 347.07 46.3157C346.679 46.2256 345.988 46.1655 345.477 46.1655C344.666 46.1655 344.636 46.2256 345.027 46.7062C345.267 46.9765 345.868 47.6673 346.379 48.208ZM386.425 48.0878L386.485 49.6197C387.927 48.238 388.588 47.4571 388.919 47.0065L389.49 46.1655C387.477 46.1655 386.786 46.2556 386.636 46.3758C386.485 46.4659 386.395 47.2468 386.425 48.0878ZM363.082 50.0702L363.413 51.1215L364.885 49.0189C363.803 48.7186 363.323 48.6285 363.142 48.5984C362.932 48.5684 362.752 48.6585 362.752 48.8087C362.752 48.9288 362.902 49.4995 363.082 50.0702ZM369.331 49.0189L370.803 51.1215C371.074 49.9501 371.164 49.3794 371.224 49.1091C371.284 48.8087 371.194 48.5684 371.014 48.5984C370.863 48.6285 370.413 48.7186 370.022 48.8387L369.331 49.0189ZM356.443 51.2717L357.795 55.1463C359.417 54.1251 360.198 53.6745 360.559 53.4643C360.949 53.224 361.25 52.8636 361.25 52.6233C361.25 52.353 361.039 51.4218 360.799 50.5208C360.559 49.5896 360.258 48.8688 360.108 48.8688C359.988 48.8688 359.117 49.4094 358.155 50.0702L356.443 51.2717ZM373.147 51.1215C372.876 52.1127 372.696 52.9537 372.756 52.9537C372.786 52.9837 373.597 53.4943 374.559 54.0951C375.76 54.846 376.331 55.0562 376.421 54.8159C376.511 54.6057 376.782 53.8247 377.052 53.0738C377.292 52.3229 377.503 51.6021 377.503 51.4218C377.473 51.2717 377.052 50.8512 376.511 50.4907C375.971 50.1603 375.189 49.6497 374.739 49.3493C374.318 49.079 373.898 48.9589 373.807 49.079C373.717 49.1992 373.417 50.1303 373.147 51.1215ZM365.846 51.6922C365.155 52.6233 364.614 53.4943 364.644 53.6145C364.675 53.7346 365.185 54.4855 365.756 55.2364C366.357 56.0174 366.898 56.6782 366.958 56.6782C367.048 56.6782 367.679 55.9873 368.37 55.1163C369.571 53.5844 369.602 53.4943 369.181 52.7735C368.941 52.353 368.37 51.572 367.919 51.0314L367.108 50.0101L365.846 51.6922ZM351.967 52.6533C351.666 52.7534 352.067 53.1539 353.168 53.8548C354.07 54.4254 354.911 54.876 355.031 54.876C355.181 54.876 355.091 54.3053 354.851 53.6145C354.64 52.8936 354.28 52.2929 354.039 52.2929C353.799 52.2628 353.349 52.2929 353.018 52.383C352.688 52.4431 352.207 52.5632 351.967 52.6533ZM378.704 55.1763C380.928 53.9148 381.799 53.3742 382.069 53.1639C382.37 52.9537 382.52 52.7134 382.37 52.6533C382.249 52.5932 381.619 52.4431 380.958 52.353L379.756 52.1427L378.704 55.1763ZM361.22 55.7771C360.499 56.2276 360.048 56.6782 360.228 56.7683C360.378 56.8584 361.4 57.0686 362.481 57.2488C363.533 57.4291 364.434 57.5192 364.464 57.4891C364.494 57.4591 364.044 56.8884 363.503 56.1976L362.511 54.9661L361.22 55.7771ZM369.241 57.6693C370.623 57.399 371.614 57.2488 372.305 57.1287C373.026 57.0386 373.657 56.8283 373.747 56.6782C373.838 56.4979 373.447 56.1075 372.906 55.7771C372.365 55.4467 371.795 55.1763 371.644 55.1763C371.464 55.1763 370.863 55.747 370.292 56.4379L369.241 57.6693Z" fill="#424147"/>
<path d="M439.517 18.5969V41.5H434.924V26.6031L428.788 41.5H425.31L419.141 26.6031V41.5H414.547V18.5969H419.764L427.049 35.6266L434.333 18.5969H439.517ZM461.778 23.3219L450.523 50.0969H445.634L449.572 41.0406L442.287 23.3219H447.439L452.131 36.0203L456.889 23.3219H461.778ZM480.168 18.5969V22.3047H474.065V41.5H469.471V22.3047H463.368V18.5969H480.168ZM491.92 41.7953C490.17 41.7953 488.595 41.4125 487.195 40.6469C485.795 39.8594 484.69 38.7547 483.881 37.3328C483.093 35.9109 482.7 34.2703 482.7 32.4109C482.7 30.5516 483.104 28.9109 483.914 27.4891C484.745 26.0672 485.872 24.9734 487.293 24.2078C488.715 23.4203 490.301 23.0266 492.051 23.0266C493.801 23.0266 495.387 23.4203 496.809 24.2078C498.231 24.9734 499.347 26.0672 500.156 27.4891C500.987 28.9109 501.403 30.5516 501.403 32.4109C501.403 34.2703 500.976 35.9109 500.123 37.3328C499.292 38.7547 498.154 39.8594 496.711 40.6469C495.289 41.4125 493.692 41.7953 491.92 41.7953ZM491.92 37.7922C492.751 37.7922 493.528 37.5953 494.25 37.2016C494.993 36.7859 495.584 36.1734 496.022 35.3641C496.459 34.5547 496.678 33.5703 496.678 32.4109C496.678 30.6828 496.218 29.3594 495.3 28.4406C494.403 27.5 493.298 27.0297 491.986 27.0297C490.673 27.0297 489.568 27.5 488.672 28.4406C487.797 29.3594 487.359 30.6828 487.359 32.4109C487.359 34.1391 487.786 35.4734 488.639 36.4141C489.514 37.3328 490.608 37.7922 491.92 37.7922ZM515.174 23.0594C517.34 23.0594 519.09 23.7484 520.424 25.1266C521.758 26.4828 522.426 28.3859 522.426 30.8359V41.5H517.832V31.4594C517.832 30.0156 517.471 28.9109 516.749 28.1453C516.027 27.3578 515.043 26.9641 513.796 26.9641C512.527 26.9641 511.521 27.3578 510.777 28.1453C510.055 28.9109 509.694 30.0156 509.694 31.4594V41.5H505.101V23.3219H509.694V25.5859C510.307 24.7984 511.083 24.1859 512.024 23.7484C512.987 23.2891 514.037 23.0594 515.174 23.0594ZM557.736 18.5969L551.338 41.5H545.924L541.625 25.1922L537.13 41.5L531.749 41.5328L525.58 18.5969H530.502L534.538 36.3812L539.197 18.5969H544.316L548.713 36.2828L552.782 18.5969H557.736ZM559.883 32.3453C559.883 30.5078 560.244 28.8781 560.965 27.4562C561.709 26.0344 562.705 24.9406 563.951 24.175C565.22 23.4094 566.631 23.0266 568.184 23.0266C569.54 23.0266 570.722 23.3 571.728 23.8469C572.756 24.3937 573.576 25.0828 574.189 25.9141V23.3219H578.815V41.5H574.189V38.8422C573.598 39.6953 572.778 40.4062 571.728 40.975C570.7 41.5219 569.508 41.7953 568.151 41.7953C566.62 41.7953 565.22 41.4016 563.951 40.6141C562.705 39.8266 561.709 38.7219 560.965 37.3C560.244 35.8562 559.883 34.2047 559.883 32.3453ZM574.189 32.4109C574.189 31.2953 573.97 30.3437 573.533 29.5562C573.095 28.7469 572.505 28.1344 571.761 27.7187C571.017 27.2812 570.219 27.0625 569.365 27.0625C568.512 27.0625 567.725 27.2703 567.003 27.6859C566.281 28.1016 565.69 28.7141 565.231 29.5234C564.794 30.3109 564.575 31.2516 564.575 32.3453C564.575 33.4391 564.794 34.4016 565.231 35.2328C565.69 36.0422 566.281 36.6656 567.003 37.1031C567.747 37.5406 568.534 37.7594 569.365 37.7594C570.219 37.7594 571.017 37.5516 571.761 37.1359C572.505 36.6984 573.095 36.0859 573.533 35.2984C573.97 34.4891 574.189 33.5266 574.189 32.4109ZM588.224 17.2187V41.5H583.63V17.2187H588.224ZM597.684 17.2187V41.5H593.091V17.2187H597.684ZM619.45 32.0172C619.45 32.6734 619.406 33.2641 619.318 33.7891H606.029C606.139 35.1016 606.598 36.1297 607.407 36.8734C608.217 37.6172 609.212 37.9891 610.393 37.9891C612.1 37.9891 613.314 37.2562 614.036 35.7906H618.99C618.465 37.5406 617.459 38.9844 615.972 40.1219C614.484 41.2375 612.657 41.7953 610.492 41.7953C608.742 41.7953 607.167 41.4125 605.767 40.6469C604.389 39.8594 603.306 38.7547 602.518 37.3328C601.753 35.9109 601.37 34.2703 601.37 32.4109C601.37 30.5297 601.753 28.8781 602.518 27.4562C603.284 26.0344 604.356 24.9406 605.734 24.175C607.112 23.4094 608.698 23.0266 610.492 23.0266C612.22 23.0266 613.762 23.3984 615.118 24.1422C616.497 24.8859 617.557 25.9469 618.301 27.325C619.067 28.6812 619.45 30.2453 619.45 32.0172ZM614.692 30.7047C614.67 29.5234 614.243 28.5828 613.412 27.8828C612.581 27.1609 611.564 26.8 610.361 26.8C609.223 26.8 608.261 27.15 607.473 27.85C606.707 28.5281 606.237 29.4797 606.062 30.7047H614.692ZM628.479 27.0953V35.8891C628.479 36.5016 628.621 36.95 628.906 37.2344C629.212 37.4969 629.715 37.6281 630.415 37.6281H632.548V41.5H629.661C625.789 41.5 623.853 39.6187 623.853 35.8562V27.0953H621.687V23.3219H623.853V18.8266H628.479V23.3219H632.548V27.0953H628.479Z" fill="#424147"/>
<path d="M686.087 30L681.036 35.0531L675.936 30L681.034 24.9019L686.087 30ZM698.436 17.6513L707.136 26.3513L712.236 21.255L698.436 7.5L684.636 21.3L689.736 26.3963L698.436 17.6513ZM715.837 24.9019L710.784 30L715.882 35.0981L720.979 30L715.837 24.9019ZM698.436 42.3488L689.736 33.6038L684.636 38.7019L698.436 52.5L712.236 38.7L707.136 33.6038L698.436 42.3488ZM698.436 35.055L703.534 29.955L698.436 24.9038L693.337 30L698.436 35.0531V35.055Z" fill="#424147"/>
<path d="M754.744 29.575C756.219 29.85 757.432 30.5875 758.382 31.7875C759.332 32.9875 759.807 34.3625 759.807 35.9125C759.807 37.3125 759.457 38.55 758.757 39.625C758.082 40.675 757.094 41.5 755.794 42.1C754.494 42.7 752.957 43 751.182 43H739.894V16.825H750.694C752.469 16.825 753.994 17.1125 755.269 17.6875C756.569 18.2625 757.544 19.0625 758.194 20.0875C758.869 21.1125 759.207 22.275 759.207 23.575C759.207 25.1 758.794 26.375 757.969 27.4C757.169 28.425 756.094 29.15 754.744 29.575ZM745.144 27.625H749.944C751.194 27.625 752.157 27.35 752.832 26.8C753.507 26.225 753.844 25.4125 753.844 24.3625C753.844 23.3125 753.507 22.5 752.832 21.925C752.157 21.35 751.194 21.0625 749.944 21.0625H745.144V27.625ZM750.432 38.725C751.707 38.725 752.694 38.425 753.394 37.825C754.119 37.225 754.482 36.375 754.482 35.275C754.482 34.15 754.107 33.275 753.357 32.65C752.607 32 751.594 31.675 750.319 31.675H745.144V38.725H750.432ZM767.029 19.75C766.104 19.75 765.329 19.4625 764.704 18.8875C764.104 18.2875 763.804 17.55 763.804 16.675C763.804 15.8 764.104 15.075 764.704 14.5C765.329 13.9 766.104 13.6 767.029 13.6C767.954 13.6 768.716 13.9 769.316 14.5C769.941 15.075 770.254 15.8 770.254 16.675C770.254 17.55 769.941 18.2875 769.316 18.8875C768.716 19.4625 767.954 19.75 767.029 19.75ZM769.616 22.225V43H764.366V22.225H769.616ZM786.691 21.925C789.166 21.925 791.166 22.7125 792.691 24.2875C794.216 25.8375 794.978 28.0125 794.978 30.8125V43H789.728V31.525C789.728 29.875 789.316 28.6125 788.491 27.7375C787.666 26.8375 786.541 26.3875 785.116 26.3875C783.666 26.3875 782.516 26.8375 781.666 27.7375C780.841 28.6125 780.428 29.875 780.428 31.525V43H775.178V22.225H780.428V24.8125C781.128 23.9125 782.016 23.2125 783.091 22.7125C784.191 22.1875 785.391 21.925 786.691 21.925ZM798.996 32.5375C798.996 30.4375 799.408 28.575 800.233 26.95C801.083 25.325 802.221 24.075 803.646 23.2C805.096 22.325 806.708 21.8875 808.483 21.8875C810.033 21.8875 811.383 22.2 812.533 22.825C813.708 23.45 814.646 24.2375 815.346 25.1875V22.225H820.633V43H815.346V39.9625C814.671 40.9375 813.733 41.75 812.533 42.4C811.358 43.025 809.996 43.3375 808.446 43.3375C806.696 43.3375 805.096 42.8875 803.646 41.9875C802.221 41.0875 801.083 39.825 800.233 38.2C799.408 36.55 798.996 34.6625 798.996 32.5375ZM815.346 32.6125C815.346 31.3375 815.096 30.25 814.596 29.35C814.096 28.425 813.421 27.725 812.571 27.25C811.721 26.75 810.808 26.5 809.833 26.5C808.858 26.5 807.958 26.7375 807.133 27.2125C806.308 27.6875 805.633 28.3875 805.108 29.3125C804.608 30.2125 804.358 31.2875 804.358 32.5375C804.358 33.7875 804.608 34.8875 805.108 35.8375C805.633 36.7625 806.308 37.475 807.133 37.975C807.983 38.475 808.883 38.725 809.833 38.725C810.808 38.725 811.721 38.4875 812.571 38.0125C813.421 37.5125 814.096 36.8125 814.596 35.9125C815.096 34.9875 815.346 33.8875 815.346 32.6125ZM837.648 21.925C840.123 21.925 842.123 22.7125 843.648 24.2875C845.173 25.8375 845.936 28.0125 845.936 30.8125V43H840.686V31.525C840.686 29.875 840.273 28.6125 839.448 27.7375C838.623 26.8375 837.498 26.3875 836.073 26.3875C834.623 26.3875 833.473 26.8375 832.623 27.7375C831.798 28.6125 831.386 29.875 831.386 31.525V43H826.136V22.225H831.386V24.8125C832.086 23.9125 832.973 23.2125 834.048 22.7125C835.148 22.1875 836.348 21.925 837.648 21.925ZM849.953 32.6125C849.953 30.4625 850.391 28.5875 851.266 26.9875C852.141 25.3625 853.353 24.1125 854.903 23.2375C856.453 22.3375 858.228 21.8875 860.228 21.8875C862.803 21.8875 864.928 22.5375 866.603 23.8375C868.303 25.1125 869.441 26.9125 870.016 29.2375H864.353C864.053 28.3375 863.541 27.6375 862.816 27.1375C862.116 26.6125 861.241 26.35 860.191 26.35C858.691 26.35 857.503 26.9 856.628 28C855.753 29.075 855.316 30.6125 855.316 32.6125C855.316 34.5875 855.753 36.125 856.628 37.225C857.503 38.3 858.691 38.8375 860.191 38.8375C862.316 38.8375 863.703 37.8875 864.353 35.9875H870.016C869.441 38.2375 868.303 40.025 866.603 41.35C864.903 42.675 862.778 43.3375 860.228 43.3375C858.228 43.3375 856.453 42.9 854.903 42.025C853.353 41.125 852.141 39.875 851.266 38.275C850.391 36.65 849.953 34.7625 849.953 32.6125ZM893.549 32.1625C893.549 32.9125 893.499 33.5875 893.399 34.1875H878.212C878.337 35.6875 878.862 36.8625 879.787 37.7125C880.712 38.5625 881.849 38.9875 883.199 38.9875C885.149 38.9875 886.537 38.15 887.362 36.475H893.024C892.424 38.475 891.274 40.125 889.574 41.425C887.874 42.7 885.787 43.3375 883.312 43.3375C881.312 43.3375 879.512 42.9 877.912 42.025C876.337 41.125 875.099 39.8625 874.199 38.2375C873.324 36.6125 872.887 34.7375 872.887 32.6125C872.887 30.4625 873.324 28.575 874.199 26.95C875.074 25.325 876.299 24.075 877.874 23.2C879.449 22.325 881.262 21.8875 883.312 21.8875C885.287 21.8875 887.049 22.3125 888.599 23.1625C890.174 24.0125 891.387 25.225 892.237 26.8C893.112 28.35 893.549 30.1375 893.549 32.1625ZM888.112 30.6625C888.087 29.3125 887.599 28.2375 886.649 27.4375C885.699 26.6125 884.537 26.2 883.162 26.2C881.862 26.2 880.762 26.6 879.862 27.4C878.987 28.175 878.449 29.2625 878.249 30.6625H888.112Z" fill="#424147"/>
<path d="M948.481 30L960.217 41.7362L967.633 34.3198C968.933 33.0201 971.073 33.0201 972.373 34.3198C973.673 35.6195 973.673 37.7604 972.373 39.0601L962.587 48.8467C961.287 50.1464 959.146 50.1464 957.846 48.8467L943.778 34.7403V43.1505C943.778 44.9856 942.288 46.5147 940.414 46.5147C938.541 46.5147 937.05 45.0238 937.05 43.1505V16.9259C937.05 15.0527 938.541 13.5618 940.414 13.5618C942.288 13.5618 943.778 15.0527 943.778 16.9259V25.2597L957.885 11.1534C959.184 9.85365 961.325 9.85365 962.625 11.1534L972.412 20.9399C973.711 22.2396 973.711 24.3804 972.412 25.6802C971.112 26.98 968.971 26.98 967.671 25.6802L960.255 18.2639L948.481 30ZM960.255 26.6359C958.382 26.6359 956.891 28.1268 956.891 30C956.891 31.8732 958.382 33.3642 960.255 33.3642C962.128 33.3642 963.619 31.8732 963.619 30C963.581 28.1268 962.09 26.6359 960.255 26.6359Z" fill="#424147"/>
<path d="M1007.2 43L997.678 31.3375V43H992.428V16.825H997.678V28.5625L1007.2 16.825H1013.54L1002.74 29.8L1013.84 43H1007.2ZM1037.28 22.225V43H1031.99V40.375C1031.32 41.275 1030.43 41.9875 1029.33 42.5125C1028.26 43.0125 1027.08 43.2625 1025.81 43.2625C1024.18 43.2625 1022.74 42.925 1021.49 42.25C1020.24 41.55 1019.26 40.5375 1018.53 39.2125C1017.83 37.8625 1017.48 36.2625 1017.48 34.4125V22.225H1022.73V33.6625C1022.73 35.3125 1023.14 36.5875 1023.97 37.4875C1024.79 38.3625 1025.92 38.8 1027.34 38.8C1028.79 38.8 1029.93 38.3625 1030.76 37.4875C1031.58 36.5875 1031.99 35.3125 1031.99 33.6625V22.225H1037.28ZM1041.49 32.6125C1041.49 30.4625 1041.92 28.5875 1042.8 26.9875C1043.67 25.3625 1044.89 24.1125 1046.44 23.2375C1047.99 22.3375 1049.76 21.8875 1051.76 21.8875C1054.34 21.8875 1056.46 22.5375 1058.14 23.8375C1059.84 25.1125 1060.97 26.9125 1061.55 29.2375H1055.89C1055.59 28.3375 1055.07 27.6375 1054.35 27.1375C1053.65 26.6125 1052.77 26.35 1051.72 26.35C1050.22 26.35 1049.04 26.9 1048.16 28C1047.29 29.075 1046.85 30.6125 1046.85 32.6125C1046.85 34.5875 1047.29 36.125 1048.16 37.225C1049.04 38.3 1050.22 38.8375 1051.72 38.8375C1053.85 38.8375 1055.24 37.8875 1055.89 35.9875H1061.55C1060.97 38.2375 1059.84 40.025 1058.14 41.35C1056.44 42.675 1054.31 43.3375 1051.76 43.3375C1049.76 43.3375 1047.99 42.9 1046.44 42.025C1044.89 41.125 1043.67 39.875 1042.8 38.275C1041.92 36.65 1041.49 34.7625 1041.49 32.6125ZM1074.99 43.3375C1072.99 43.3375 1071.19 42.9 1069.59 42.025C1067.99 41.125 1066.73 39.8625 1065.81 38.2375C1064.91 36.6125 1064.46 34.7375 1064.46 32.6125C1064.46 30.4875 1064.92 28.6125 1065.84 26.9875C1066.79 25.3625 1068.08 24.1125 1069.71 23.2375C1071.33 22.3375 1073.14 21.8875 1075.14 21.8875C1077.14 21.8875 1078.96 22.3375 1080.58 23.2375C1082.21 24.1125 1083.48 25.3625 1084.41 26.9875C1085.36 28.6125 1085.83 30.4875 1085.83 32.6125C1085.83 34.7375 1085.34 36.6125 1084.37 38.2375C1083.42 39.8625 1082.12 41.125 1080.47 42.025C1078.84 42.9 1077.02 43.3375 1074.99 43.3375ZM1074.99 38.7625C1075.94 38.7625 1076.83 38.5375 1077.66 38.0875C1078.51 37.6125 1079.18 36.9125 1079.68 35.9875C1080.18 35.0625 1080.43 33.9375 1080.43 32.6125C1080.43 30.6375 1079.91 29.125 1078.86 28.075C1077.83 27 1076.57 26.4625 1075.07 26.4625C1073.57 26.4625 1072.31 27 1071.28 28.075C1070.28 29.125 1069.78 30.6375 1069.78 32.6125C1069.78 34.5875 1070.27 36.1125 1071.24 37.1875C1072.24 38.2375 1073.49 38.7625 1074.99 38.7625ZM1092.72 19.75C1091.8 19.75 1091.02 19.4625 1090.4 18.8875C1089.8 18.2875 1089.5 17.55 1089.5 16.675C1089.5 15.8 1089.8 15.075 1090.4 14.5C1091.02 13.9 1091.8 13.6 1092.72 13.6C1093.65 13.6 1094.41 13.9 1095.01 14.5C1095.63 15.075 1095.95 15.8 1095.95 16.675C1095.95 17.55 1095.63 18.2875 1095.01 18.8875C1094.41 19.4625 1093.65 19.75 1092.72 19.75ZM1095.31 22.225V43H1090.06V22.225H1095.31ZM1112.38 21.925C1114.86 21.925 1116.86 22.7125 1118.38 24.2875C1119.91 25.8375 1120.67 28.0125 1120.67 30.8125V43H1115.42V31.525C1115.42 29.875 1115.01 28.6125 1114.18 27.7375C1113.36 26.8375 1112.23 26.3875 1110.81 26.3875C1109.36 26.3875 1108.21 26.8375 1107.36 27.7375C1106.53 28.6125 1106.12 29.875 1106.12 31.525V43H1100.87V22.225H1106.12V24.8125C1106.82 23.9125 1107.71 23.2125 1108.78 22.7125C1109.88 22.1875 1111.08 21.925 1112.38 21.925Z" fill="#424147"/>
</svg>
