<svg width="64" height="64" viewBox="0 0 64 64" fill="none" xmlns="http://www.w3.org/2000/svg">
<circle cx="32" cy="32" r="32" fill="#09977C" fill-opacity="0.1"/>
<path fill-rule="evenodd" clip-rule="evenodd" d="M31.5649 47.8619C31.742 47.9544 31.9402 48.0015 32.1383 47.9999C32.3364 47.9984 32.5329 47.9497 32.7117 47.8556L38.4203 44.8039C40.0392 43.941 41.3069 42.9761 42.2959 41.8527C44.4463 39.4051 45.6205 36.2813 45.5996 33.0602L45.5319 22.4352C45.5255 21.2114 44.7217 20.1194 43.533 19.7224L32.9131 16.1593C32.2736 15.9428 31.5729 15.9475 30.9447 16.1703L20.3651 19.8605C19.1828 20.2731 18.3935 21.373 18.3999 22.5983L18.4676 33.2155C18.4885 36.4413 19.7031 39.551 21.8889 41.9735C22.8876 43.0812 24.1665 44.032 25.8031 44.8808L31.5649 47.8619ZM30.0536 35.3743C30.292 35.6034 30.6013 35.7163 30.9106 35.7132C31.2198 35.7116 31.5275 35.5955 31.7627 35.3633L38.0012 29.213C38.47 28.7501 38.4651 28.0064 37.9916 27.5498C37.5164 27.0933 36.7513 27.0964 36.2825 27.5593L30.8929 32.8718L28.6861 30.7505C28.2109 30.294 27.4474 30.2987 26.977 30.7615C26.5083 31.2244 26.5131 31.9681 26.9883 32.4246L30.0536 35.3743Z" fill="url(#paint0_linear_2388_3404)"/>
<defs>
<linearGradient id="paint0_linear_2388_3404" x1="25.4266" y1="38.1333" x2="44.0706" y2="38.1574" gradientUnits="userSpaceOnUse">
<stop stop-color="#2AABEE"/>
<stop offset="1" stop-color="#574DCE"/>
</linearGradient>
</defs>
</svg>
