<svg width="250" height="251" viewBox="0 0 250 251" fill="none" xmlns="http://www.w3.org/2000/svg">
<path fill-rule="evenodd" clip-rule="evenodd" d="M124.825 243.778C189.99 243.778 242.817 190.862 242.817 125.586C242.817 60.3109 189.99 7.3947 124.825 7.3947C59.6604 7.3947 6.83381 60.3109 6.83381 125.586C6.83381 190.862 59.6604 243.778 124.825 243.778ZM124.825 250.326C193.601 250.326 249.354 194.478 249.354 125.586C249.354 56.6946 193.601 0.84668 124.825 0.84668C56.0502 0.84668 0.296875 56.6946 0.296875 125.586C0.296875 194.478 56.0502 250.326 124.825 250.326Z" fill="url(#paint0_linear_2436_24840)" fill-opacity="0.3"/>
<path fill-rule="evenodd" clip-rule="evenodd" d="M73.7118 64.5671C40.069 92.8447 35.6807 143.087 63.9104 176.787C92.1401 210.487 142.298 214.883 175.941 186.605C209.583 158.328 213.972 108.085 185.742 74.3851C157.512 40.6852 107.355 36.2895 73.7118 64.5671ZM71.6109 62.0591C36.5852 91.4989 32.0167 143.807 61.4066 178.892C90.7966 213.977 143.016 218.553 178.041 189.113C213.067 159.673 217.636 107.366 188.246 72.2806C158.856 37.1956 106.636 32.6192 71.6109 62.0591Z" fill="url(#paint1_linear_2436_24840)" fill-opacity="0.3"/>
<path fill-rule="evenodd" clip-rule="evenodd" d="M100.742 96.8363C84.8909 110.16 82.8233 133.832 96.1242 149.71C109.425 165.589 133.057 167.66 148.909 154.336C164.76 141.013 166.828 117.34 153.527 101.462C140.226 85.584 116.594 83.513 100.742 96.8363ZM98.6413 94.3283C81.4072 108.814 79.1593 134.552 93.6204 151.815C108.082 169.078 133.776 171.33 151.01 156.844C168.244 142.359 170.492 116.621 156.031 99.3577C141.569 82.0944 115.875 79.8426 98.6413 94.3283Z" fill="url(#paint2_linear_2436_24840)" fill-opacity="0.3"/>
<defs>
<linearGradient id="paint0_linear_2436_24840" x1="166.703" y1="-223.295" x2="332.403" y2="182.311" gradientUnits="userSpaceOnUse">
<stop offset="0.00887753" stop-color="#DEF9FA"/>
<stop offset="0.1723" stop-color="#BEF3F5"/>
<stop offset="0.4204" stop-color="#9DEDF0"/>
<stop offset="0.5512" stop-color="#7DE7EB"/>
<stop offset="0.7154" stop-color="#5CE1E6"/>
<stop offset="1" stop-color="#33BBCF"/>
</linearGradient>
<linearGradient id="paint1_linear_2436_24840" x1="252.335" y1="321.19" x2="-5.11618" y2="185.608" gradientUnits="userSpaceOnUse">
<stop offset="0.00887753" stop-color="#DEF9FA"/>
<stop offset="0.1723" stop-color="#BEF3F5"/>
<stop offset="0.4204" stop-color="#9DEDF0"/>
<stop offset="0.5512" stop-color="#7DE7EB"/>
<stop offset="0.7154" stop-color="#5CE1E6"/>
<stop offset="1" stop-color="#33BBCF"/>
</linearGradient>
<linearGradient id="paint2_linear_2436_24840" x1="187.565" y1="221.832" x2="60.8883" y2="155.12" gradientUnits="userSpaceOnUse">
<stop offset="0.00887753" stop-color="#DEF9FA"/>
<stop offset="0.1723" stop-color="#BEF3F5"/>
<stop offset="0.4204" stop-color="#9DEDF0"/>
<stop offset="0.5512" stop-color="#7DE7EB"/>
<stop offset="0.7154" stop-color="#5CE1E6"/>
<stop offset="1" stop-color="#33BBCF"/>
</linearGradient>
</defs>
</svg>
