<svg width="112" height="45" viewBox="0 0 112 45" fill="none" xmlns="http://www.w3.org/2000/svg">
<g clip-path="url(#clip0_2422_255)">
<rect width="42" height="30" transform="translate(17 8)" fill="white"/>
<path fill-rule="evenodd" clip-rule="evenodd" d="M17 8H35V22H17V8Z" fill="#1A47B8"/>
<path fill-rule="evenodd" clip-rule="evenodd" d="M35 8V10H59V8H35ZM35 12V14H59V12H35ZM35 16V18H59V16H35ZM35 20V22H59V20H35ZM17 24V26H59V24H17ZM17 28V30H59V28H17ZM17 32V34H59V32H17ZM17 36V38H59V36H17Z" fill="#F93939"/>
<path fill-rule="evenodd" clip-rule="evenodd" d="M19 10V12H21V10H19ZM23 10V12H25V10H23ZM27 10V12H29V10H27ZM31 10V12H33V10H31ZM29 12V14H31V12H29ZM25 12V14H27V12H25ZM21 12V14H23V12H21ZM19 14V16H21V14H19ZM23 14V16H25V14H23ZM27 14V16H29V14H27ZM31 14V16H33V14H31ZM19 18V20H21V18H19ZM23 18V20H25V18H23ZM27 18V20H29V18H27ZM31 18V20H33V18H31ZM29 16V18H31V16H29ZM25 16V18H27V16H25ZM21 16V18H23V16H21Z" fill="white"/>
</g>
<path d="M78.688 18.532V22.26H82.752V23.46H78.688V27.3H83.232V28.5H77.232V17.332H83.232V18.532H78.688ZM86.8591 17.348V24.404C86.8591 25.396 87.0991 26.132 87.5791 26.612C88.0698 27.092 88.7471 27.332 89.6111 27.332C90.4645 27.332 91.1311 27.092 91.6111 26.612C92.1018 26.132 92.3471 25.396 92.3471 24.404V17.348H93.8031V24.388C93.8031 25.316 93.6165 26.1 93.2431 26.74C92.8698 27.3693 92.3631 27.8387 91.7231 28.148C91.0938 28.4573 90.3845 28.612 89.5951 28.612C88.8058 28.612 88.0911 28.4573 87.4511 28.148C86.8218 27.8387 86.3205 27.3693 85.9471 26.74C85.5845 26.1 85.4031 25.316 85.4031 24.388V17.348H86.8591Z" fill="#F1F1F1"/>
<defs>
<clipPath id="clip0_2422_255">
<rect width="42" height="30" fill="white" transform="translate(17 8)"/>
</clipPath>
</defs>
</svg>
