<svg width="21.000000" height="21.000000" viewBox="0 0 21 21" fill="none" xmlns="http://www.w3.org/2000/svg" xmlns:xlink="http://www.w3.org/1999/xlink">
	<desc>
			Created with Pixso.
	</desc>
	<defs/>
	<path id="Vector" d="M19.48 0L1.51 0C0.67 0 0 0.67 0 1.51L0 19.48C0 20.32 0.67 21 1.51 21L19.48 21C20.32 21 21 20.32 21 19.48L21 1.51C21 0.67 20.32 0 19.48 0L19.48 0ZM7.44 14.59C7.44 15.3 6.87 15.87 6.17 15.87C5.46 15.87 4.89 15.3 4.89 14.59L4.89 9.45C4.89 8.75 5.46 8.17 6.17 8.17C6.87 8.17 7.44 8.75 7.44 9.45L7.44 14.59ZM6.17 7.12L6.15 7.12C5.29 7.12 4.74 6.53 4.74 5.8C4.74 5.04 5.31 4.47 6.18 4.47C7.06 4.47 7.6 5.04 7.61 5.8C7.61 6.53 7.06 7.12 6.17 7.12ZM16.66 14.59C16.66 15.3 16.09 15.87 15.39 15.87C14.68 15.87 14.11 15.3 14.11 14.59L14.11 11.75C14.11 10.72 13.74 10.01 12.81 10.01C12.11 10.01 11.68 10.49 11.5 10.95C11.43 11.11 11.42 11.34 11.42 11.57L11.42 14.59C11.42 15.3 10.84 15.87 10.14 15.87C9.43 15.87 8.86 15.3 8.86 14.59C8.87 13.48 8.87 11.83 8.87 10.48C8.87 9.23 9.91 8.17 11.17 8.17C11.3 8.17 11.42 8.29 11.42 8.42C11.42 8.67 11.77 8.78 11.95 8.62C12.33 8.28 12.88 7.99 13.72 7.99C15.4 7.99 16.66 9.09 16.66 11.46L16.66 14.59Z" fill="#FFFFFF" fill-opacity="1.000000" fill-rule="nonzero"/>
</svg>
