<svg width="379" height="200" viewBox="0 0 379 200" fill="none" xmlns="http://www.w3.org/2000/svg">
<path d="M12.3438 11.6239L23.2188 28.4364V16.4364L12.3438 11.6239Z" fill="#424147"/>
<path d="M34.1563 11.5624L23.2188 16.4374V28.4374L34.1563 11.5624Z" fill="#222224"/>
<path d="M12.4063 11.3752L12.3438 11.6252L23.2188 16.4377L34.1563 11.5627L23.0938 6.56274L12.4063 11.3752Z" fill="#74727F"/>
<path d="M54.9392 9.73124V12.2031H50.8704V25H47.8079V12.2031H43.7392V9.73124H54.9392ZM62.7737 25.1969C61.607 25.1969 60.557 24.9417 59.6237 24.4312C58.6904 23.9062 57.9539 23.1698 57.4143 22.2219C56.8893 21.274 56.6268 20.1802 56.6268 18.9406C56.6268 17.701 56.8966 16.6073 57.4362 15.6594C57.9904 14.7114 58.7414 13.9823 59.6893 13.4719C60.6372 12.9469 61.6945 12.6844 62.8612 12.6844C64.0279 12.6844 65.0852 12.9469 66.0331 13.4719C66.981 13.9823 67.7248 14.7114 68.2643 15.6594C68.8185 16.6073 69.0956 17.701 69.0956 18.9406C69.0956 20.1802 68.8112 21.274 68.2425 22.2219C67.6883 23.1698 66.93 23.9062 65.9675 24.4312C65.0195 24.9417 63.955 25.1969 62.7737 25.1969ZM62.7737 22.5281C63.3279 22.5281 63.8456 22.3969 64.3268 22.1344C64.8227 21.8573 65.2164 21.449 65.5081 20.9094C65.7998 20.3698 65.9456 19.7135 65.9456 18.9406C65.9456 17.7885 65.6393 16.9062 65.0268 16.2937C64.4289 15.6667 63.6925 15.3531 62.8175 15.3531C61.9425 15.3531 61.206 15.6667 60.6081 16.2937C60.0247 16.9062 59.7331 17.7885 59.7331 18.9406C59.7331 20.0927 60.0175 20.9823 60.5862 21.6094C61.1695 22.2219 61.8987 22.5281 62.7737 22.5281ZM78.2764 12.7062C79.7202 12.7062 80.8869 13.1656 81.7764 14.0844C82.666 14.9885 83.1108 16.2573 83.1108 17.8906V25H80.0483V18.3062C80.0483 17.3437 79.8077 16.6073 79.3264 16.0969C78.8452 15.5719 78.1889 15.3094 77.3577 15.3094C76.5118 15.3094 75.841 15.5719 75.3452 16.0969C74.8639 16.6073 74.6233 17.3437 74.6233 18.3062V25H71.5608V12.8812H74.6233V14.3906C75.0316 13.8656 75.5493 13.4573 76.1764 13.1656C76.8181 12.8594 77.5181 12.7062 78.2764 12.7062ZM93.4169 25L89.3043 19.8375V25H86.2418V8.81249H89.3043V18.0219L93.3731 12.8812H97.3544L92.0168 18.9625L97.3981 25H93.4169ZM110.501 18.6781C110.501 19.1156 110.472 19.5094 110.413 19.8594H101.554C101.627 20.7344 101.933 21.4198 102.473 21.9156C103.012 22.4115 103.676 22.6594 104.463 22.6594C105.601 22.6594 106.41 22.1708 106.892 21.1937H110.195C109.845 22.3604 109.174 23.3229 108.182 24.0812C107.19 24.825 105.973 25.1969 104.529 25.1969C103.362 25.1969 102.312 24.9417 101.379 24.4312C100.46 23.9062 99.7384 23.1698 99.2134 22.2219C98.703 21.274 98.4478 20.1802 98.4478 18.9406C98.4478 17.6865 98.703 16.5854 99.2134 15.6375C99.7238 14.6896 100.438 13.9604 101.357 13.45C102.276 12.9396 103.333 12.6844 104.529 12.6844C105.681 12.6844 106.709 12.9323 107.613 13.4281C108.532 13.9239 109.239 14.6312 109.735 15.55C110.246 16.4542 110.501 17.4969 110.501 18.6781ZM107.329 17.8031C107.314 17.0156 107.03 16.3885 106.476 15.9219C105.922 15.4406 105.244 15.2 104.442 15.2C103.683 15.2 103.042 15.4333 102.517 15.9C102.006 16.3521 101.693 16.9865 101.576 17.8031H107.329ZM124.221 18.6781C124.221 19.1156 124.191 19.5094 124.133 19.8594H115.274C115.347 20.7344 115.653 21.4198 116.193 21.9156C116.732 22.4115 117.396 22.6594 118.183 22.6594C119.321 22.6594 120.13 22.1708 120.611 21.1937H123.914C123.564 22.3604 122.894 23.3229 121.902 24.0812C120.91 24.825 119.693 25.1969 118.249 25.1969C117.082 25.1969 116.032 24.9417 115.099 24.4312C114.18 23.9062 113.458 23.1698 112.933 22.2219C112.423 21.274 112.168 20.1802 112.168 18.9406C112.168 17.6865 112.423 16.5854 112.933 15.6375C113.444 14.6896 114.158 13.9604 115.077 13.45C115.996 12.9396 117.053 12.6844 118.249 12.6844C119.401 12.6844 120.429 12.9323 121.333 13.4281C122.252 13.9239 122.959 14.6312 123.455 15.55C123.965 16.4542 124.221 17.4969 124.221 18.6781ZM121.049 17.8031C121.034 17.0156 120.75 16.3885 120.196 15.9219C119.641 15.4406 118.963 15.2 118.161 15.2C117.403 15.2 116.761 15.4333 116.236 15.9C115.726 16.3521 115.412 16.9865 115.296 17.8031H121.049ZM129.737 14.6312C130.131 14.0771 130.671 13.6177 131.356 13.2531C132.056 12.8739 132.851 12.6844 133.74 12.6844C134.776 12.6844 135.709 12.9396 136.54 13.45C137.386 13.9604 138.05 14.6896 138.531 15.6375C139.027 16.5708 139.275 17.6573 139.275 18.8969C139.275 20.1365 139.027 21.2375 138.531 22.2C138.05 23.1479 137.386 23.8844 136.54 24.4094C135.709 24.9344 134.776 25.1969 133.74 25.1969C132.851 25.1969 132.063 25.0146 131.378 24.65C130.707 24.2854 130.16 23.826 129.737 23.2719V30.775H126.675V12.8812H129.737V14.6312ZM136.147 18.8969C136.147 18.1677 135.993 17.5406 135.687 17.0156C135.396 16.476 135.002 16.0677 134.506 15.7906C134.025 15.5135 133.5 15.375 132.931 15.375C132.377 15.375 131.852 15.5208 131.356 15.8125C130.875 16.0896 130.481 16.4979 130.175 17.0375C129.883 17.5771 129.737 18.2115 129.737 18.9406C129.737 19.6698 129.883 20.3042 130.175 20.8437C130.481 21.3833 130.875 21.799 131.356 22.0906C131.852 22.3677 132.377 22.5062 132.931 22.5062C133.5 22.5062 134.025 22.3604 134.506 22.0687C135.002 21.7771 135.396 21.3615 135.687 20.8219C135.993 20.2823 136.147 19.6406 136.147 18.8969ZM152.985 18.6781C152.985 19.1156 152.955 19.5094 152.897 19.8594H144.038C144.111 20.7344 144.417 21.4198 144.956 21.9156C145.496 22.4115 146.16 22.6594 146.947 22.6594C148.085 22.6594 148.894 22.1708 149.375 21.1937H152.678C152.328 22.3604 151.657 23.3229 150.666 24.0812C149.674 24.825 148.456 25.1969 147.013 25.1969C145.846 25.1969 144.796 24.9417 143.863 24.4312C142.944 23.9062 142.222 23.1698 141.697 22.2219C141.187 21.274 140.931 20.1802 140.931 18.9406C140.931 17.6865 141.187 16.5854 141.697 15.6375C142.207 14.6896 142.922 13.9604 143.841 13.45C144.76 12.9396 145.817 12.6844 147.013 12.6844C148.165 12.6844 149.193 12.9323 150.097 13.4281C151.016 13.9239 151.723 14.6312 152.219 15.55C152.729 16.4542 152.985 17.4969 152.985 18.6781ZM149.813 17.8031C149.798 17.0156 149.514 16.3885 148.96 15.9219C148.405 15.4406 147.727 15.2 146.925 15.2C146.167 15.2 145.525 15.4333 145 15.9C144.49 16.3521 144.176 16.9865 144.06 17.8031H149.813ZM158.501 14.7625C158.895 14.1208 159.405 13.6177 160.032 13.2531C160.674 12.8885 161.403 12.7062 162.22 12.7062V15.9219H161.411C160.448 15.9219 159.719 16.1479 159.223 16.6C158.742 17.0521 158.501 17.8396 158.501 18.9625V25H155.439V12.8812H158.501V14.7625Z" fill="#424147"/>
<path fill-rule="evenodd" clip-rule="evenodd" d="M210.367 0C211.576 0 213.048 0.0876053 213.784 0.227774C214.467 0.367942 215.554 0.665801 216.185 0.911095C216.816 1.13887 217.885 1.61194 218.551 1.96236C219.217 2.29526 220.251 2.92602 220.829 3.34652C221.407 3.78455 222.336 4.59052 222.897 5.16872C223.458 5.72939 224.264 6.67553 224.667 7.25372C225.087 7.83192 225.683 8.8131 225.999 9.44386C226.314 10.0746 226.682 10.8981 226.822 11.2836C226.963 11.669 227.243 12.5451 227.436 13.2109C227.646 13.9993 227.804 15.2784 227.874 16.8027C227.944 18.6599 227.909 19.4834 227.681 20.6573C227.506 21.4808 227.208 22.6197 227.015 23.1979C226.805 23.7761 226.419 24.7222 226.121 25.3004C225.841 25.8786 225.193 26.9299 224.702 27.6482C224.211 28.3491 223.177 29.5405 222.406 30.2764C221.635 31.0298 220.373 31.9935 219.602 32.449C218.831 32.9046 217.604 33.5178 216.886 33.8157C216.167 34.131 214.818 34.5165 213.907 34.7092C212.54 34.9896 211.769 35.0421 209.701 34.9721C207.633 34.902 206.879 34.8144 205.635 34.4289C204.776 34.1836 203.444 33.6405 202.656 33.255C201.85 32.852 200.728 32.1862 200.15 31.7832C199.571 31.3802 198.555 30.4691 197.871 29.7858C197.206 29.085 196.312 28.0337 195.891 27.438C195.471 26.8423 194.857 25.7735 194.524 25.0902C194.191 24.3893 193.718 23.1278 193.473 22.2693C193.105 21.0778 193 20.2368 192.929 18.3796C192.877 16.9078 192.912 15.5237 193.052 14.7002C193.175 13.9818 193.42 12.878 193.613 12.2472C193.806 11.6165 194.279 10.4776 194.664 9.70667C195.05 8.93575 195.733 7.79688 196.172 7.16612C196.627 6.53536 197.468 5.55418 198.047 4.9935C198.625 4.43283 199.571 3.62686 200.15 3.20636C200.728 2.80337 201.832 2.15509 202.603 1.76963C203.374 1.38416 204.566 0.893574 205.232 0.700843C205.898 0.49059 206.862 0.245295 207.335 0.175211C207.826 0.0876053 209.175 0.0175211 210.367 0V0ZM206.546 1.83971C206.371 1.89228 206.529 2.08501 207.072 2.43543C207.51 2.71577 207.861 2.92602 207.878 2.9085C207.878 2.89098 208.123 2.54056 208.421 2.13757C208.719 1.71706 208.877 1.40169 208.772 1.40169C208.649 1.41921 208.176 1.48929 207.685 1.5769C207.212 1.6645 206.686 1.78715 206.546 1.83971ZM212.382 2.06749C212.68 2.45295 213.03 2.78585 213.118 2.78585C213.223 2.76833 213.556 2.62816 213.872 2.43543C214.17 2.2427 214.397 2.01492 214.345 1.9098C214.292 1.82219 213.924 1.69954 213.521 1.62946C213.101 1.5769 212.557 1.48929 212.294 1.43673L211.804 1.34912L212.382 2.06749ZM209.368 3.22388L208.965 3.74951C210.156 5.3264 210.524 5.78195 210.542 5.78195C210.577 5.76443 210.91 5.3264 211.295 4.80077L211.996 3.83711C210.84 2.34782 210.454 1.9098 210.419 1.9098C210.367 1.92732 210.209 2.10253 210.051 2.31278C209.893 2.52303 209.596 2.94354 209.368 3.22388ZM204.671 3.92472C204.303 5.01103 204.303 5.08111 204.583 5.30888C204.759 5.43153 205.249 5.78195 205.688 6.07981L206.476 6.60544C206.949 5.01103 207.072 4.43283 207.072 4.29266C207.054 4.15249 206.809 3.88968 206.494 3.71447C206.196 3.52173 205.74 3.2414 205.512 3.08371L205.057 2.78585L204.671 3.92472ZM213.854 4.01232C213.784 4.06489 213.872 4.573 214.029 5.15119C214.187 5.72939 214.38 6.29006 214.45 6.37767C214.555 6.4828 214.958 6.30758 215.536 5.86956C216.045 5.48409 216.5 5.15119 216.553 5.11615C216.605 5.08111 216.483 4.573 216.29 3.9948C216.097 3.39909 215.887 2.9085 215.834 2.87346C215.782 2.85593 215.344 3.08371 214.853 3.38157C214.362 3.67942 213.907 3.95976 213.854 4.01232ZM201.447 4.15249C201.464 4.22258 201.727 4.34523 202.042 4.41531C202.358 4.48539 202.726 4.53796 202.848 4.53796C202.954 4.53796 203.164 4.18754 203.287 3.74951C203.392 3.31148 203.462 2.96106 203.409 2.96106C203.357 2.96106 202.901 3.20636 202.375 3.50421C201.867 3.78455 201.447 4.08241 201.447 4.15249ZM217.657 3.9072C217.85 4.55548 217.885 4.573 218.481 4.46787C218.814 4.41531 219.199 4.36275 219.322 4.36275C219.427 4.36275 219.55 4.29266 219.567 4.22258C219.585 4.13497 219.164 3.83711 218.638 3.55678C218.13 3.27644 217.639 3.03114 217.587 2.9961C217.517 2.96106 217.464 2.9961 217.447 3.08371C217.447 3.15379 217.534 3.53926 217.657 3.9072ZM208.176 5.88708C208.036 6.25502 207.966 6.5704 208.001 6.60544C208.036 6.64049 208.299 6.58792 208.597 6.51784L209.157 6.37767L208.404 5.22128L208.176 5.88708ZM200.395 6.53536C200.413 7.13107 200.5 7.69175 200.57 7.79688C200.64 7.91952 201.184 8.1473 201.779 8.32251C202.393 8.51524 202.919 8.62037 202.954 8.5678C202.989 8.51524 202.989 7.91952 202.936 7.25372L202.848 6.02725L200.36 5.46657L200.395 6.53536ZM212.031 6.46527C212.154 6.46527 212.435 6.53536 212.662 6.60544C213.048 6.72809 213.048 6.71057 212.873 6.11485C212.768 5.78195 212.662 5.48409 212.627 5.44905C212.61 5.41401 212.4 5.64178 212.207 5.93964C211.961 6.27254 211.891 6.46527 212.031 6.46527ZM218.078 6.78065C218.007 7.2362 217.955 7.83192 217.955 8.09473C217.955 8.46268 218.025 8.55028 218.253 8.49772C218.428 8.46268 218.971 8.34003 219.48 8.2349L220.408 8.04217C220.408 5.65931 220.391 5.58922 220.005 5.60674C219.795 5.62426 219.304 5.69435 218.919 5.78195C218.253 5.93964 218.2 5.97468 218.078 6.78065ZM221.81 7.95457C223.23 8.12978 223.668 8.16482 223.685 8.16482C223.721 8.1473 223.3 7.65671 222.774 7.07851L221.828 6.02725L221.81 7.95457ZM197.328 8.16482C197.346 8.16482 197.784 8.12978 198.292 8.07721C199.203 7.95457 199.203 7.95457 199.203 7.34133C199.203 7.00843 199.133 6.62296 199.063 6.50032C198.958 6.32511 198.695 6.51784 198.099 7.20116C197.661 7.70927 197.311 8.1473 197.328 8.16482ZM204.286 8.21738C205.109 7.74431 205.355 7.5691 205.355 7.51654C205.372 7.46398 205.127 7.27124 204.846 7.11355L204.321 6.79817L204.286 8.21738ZM215.484 7.60414C216.518 8.19986 216.553 8.19986 216.553 7.91952C216.553 7.74431 216.588 7.42893 216.623 7.21868C216.658 6.99091 216.641 6.8157 216.588 6.8157C216.518 6.8157 216.237 6.99091 215.975 7.21868L215.484 7.60414ZM206.914 8.46268C206.283 8.70797 205.214 9.32121 204.548 9.82932C203.707 10.4601 203.059 11.1609 202.445 12.072C201.955 12.7904 201.411 13.8066 201.219 14.3498C201.043 14.8754 200.868 16.0318 200.816 16.9779C200.763 17.9591 200.816 19.0279 200.938 19.6061C201.061 20.1317 201.447 21.1479 201.797 21.8838C202.235 22.7949 202.778 23.5483 203.62 24.3718C204.496 25.2479 205.179 25.7385 206.248 26.2466C207.265 26.7372 208.106 27 209.105 27.1226C210.086 27.2628 210.892 27.2628 211.821 27.1401C212.662 27.0175 213.591 26.7196 214.45 26.3166C215.168 25.9837 216.115 25.4231 216.553 25.0727C216.973 24.7222 217.639 24.0915 218.007 23.6359C218.358 23.1979 218.936 22.2868 219.252 21.621C219.585 20.9377 219.953 19.8338 220.058 19.168C220.181 18.4497 220.233 17.3984 220.163 16.6625C220.093 15.9617 219.865 14.8929 219.655 14.2972C219.427 13.7015 219.041 12.8429 218.796 12.4224C218.533 11.9844 217.937 11.2485 217.482 10.7755C217.009 10.3199 216.202 9.65411 215.677 9.30369C215.133 8.95327 214.152 8.49772 213.486 8.26994C212.803 8.05969 211.734 7.84944 211.12 7.79688C210.489 7.74431 209.543 7.77935 209.017 7.84944C208.474 7.93704 207.528 8.21738 206.914 8.46268ZM197.486 9.53146L196.925 9.61907L197.749 11.8092C199.519 11.8092 200.115 11.7391 200.185 11.669C200.272 11.5989 200.097 11.0208 199.817 10.39C199.519 9.75924 199.238 9.26865 199.203 9.28617C199.151 9.30369 198.87 9.33873 198.59 9.37377C198.292 9.40881 197.801 9.4789 197.486 9.53146ZM220.619 11.669C220.636 11.6866 221.214 11.7566 221.898 11.8267L223.125 11.9318C223.861 9.91692 223.896 9.67163 223.703 9.5665C223.58 9.49642 223.177 9.44386 222.809 9.44386C222.441 9.44386 222.038 9.39129 221.915 9.33873C221.74 9.25112 221.512 9.58402 221.127 10.425C220.811 11.0908 220.601 11.6515 220.619 11.669ZM218.796 10.0921C218.884 10.2673 219.059 10.4951 219.199 10.6178C219.392 10.793 219.497 10.7054 219.742 10.1272C219.918 9.74171 219.988 9.44386 219.918 9.44386C219.848 9.46138 219.532 9.53146 219.217 9.61907C218.761 9.75924 218.673 9.84684 218.796 10.0921ZM201.499 10.7229C201.569 10.7404 201.779 10.5302 201.99 10.2673L202.358 9.79428C201.464 9.65411 201.166 9.60155 201.096 9.60155C201.026 9.61907 201.061 9.84684 201.184 10.1447C201.289 10.4426 201.447 10.7054 201.499 10.7229ZM224.737 12.5626C224.912 12.6853 225.263 12.8955 225.526 13.0357C225.806 13.1758 226.016 13.2109 226.016 13.1233C226.016 13.0182 225.841 12.4925 225.631 11.9318C225.438 11.3712 225.21 10.8631 225.158 10.793C225.087 10.7229 224.912 11.0383 224.737 11.4938C224.439 12.2998 224.439 12.3348 224.737 12.5626ZM195.155 12.3699C194.962 12.878 194.84 13.2985 194.857 13.2985C194.875 13.2985 195.26 13.1058 195.698 12.8605L196.487 12.4224C196.172 11.196 195.996 10.8455 195.891 10.8455C195.804 10.8455 195.663 10.9682 195.593 11.1434C195.541 11.3186 195.33 11.8618 195.155 12.3699ZM199.326 13.8592L199.817 14.3322C200.15 13.1758 200.132 13.1233 199.817 13.1408C199.624 13.1408 199.326 13.1934 199.151 13.2634C198.853 13.3686 198.87 13.4211 199.326 13.8592ZM220.934 13.7716L221.109 14.2621C221.775 13.5788 221.933 13.316 221.88 13.2459C221.845 13.1758 221.565 13.1233 221.285 13.1233C220.987 13.1233 220.759 13.1583 220.759 13.2109C220.759 13.2459 220.829 13.5087 220.934 13.7716ZM195.015 14.7878L196.662 16.5925L199.028 15.4886L197.17 13.6664L195.015 14.7878ZM221.986 15.4711C222.038 15.5061 222.564 15.7865 223.16 16.0843L224.264 16.6275C225.473 15.3485 225.824 14.9104 225.824 14.8403C225.841 14.7703 225.368 14.4724 224.79 14.1745C224.211 13.8942 223.721 13.6489 223.685 13.6489C223.65 13.6489 223.247 14.0519 222.757 14.525C222.283 14.998 221.933 15.4361 221.986 15.4711ZM194.296 18.9928C195.243 17.9766 195.523 17.6262 195.506 17.5561C195.506 17.486 195.225 17.1006 194.892 16.7151L194.279 16.0143L194.296 18.9928ZM225.228 17.5035C226.174 18.4497 226.507 18.6775 226.577 18.6424C226.647 18.5899 226.717 18.0817 226.735 17.5211C226.735 16.9429 226.665 16.4348 226.577 16.3822C226.472 16.3296 226.139 16.5749 225.806 16.9078L225.228 17.5035ZM197.889 17.5386C198.923 18.0467 199.256 18.1693 199.308 18.1518C199.344 18.1343 199.361 17.8189 199.344 17.4685L199.273 16.8202L197.889 17.5386ZM221.635 18.1869C222.652 17.7488 222.967 17.5912 223.002 17.5561C223.02 17.5211 222.722 17.3283 222.354 17.1356L221.653 16.7852L221.635 18.1869ZM223.142 18.9228C222.564 19.2031 222.038 19.4659 221.986 19.5185C221.933 19.5535 222.284 19.9915 222.774 20.4646C223.247 20.9377 223.721 21.3407 223.826 21.3231C223.913 21.3231 224.439 21.0778 224.982 20.7625L225.981 20.2018L224.229 18.4322L223.142 18.9228ZM194.892 20.2368L197.258 21.4984C198.485 20.0791 198.853 19.6236 198.853 19.571C198.853 19.5185 198.397 19.2732 197.836 19.0104C197.276 18.7475 196.785 18.5198 196.732 18.5198C196.68 18.5198 196.242 18.9052 195.768 19.3783L194.892 20.2368ZM198.748 21.8663C200.132 21.8488 200.22 21.8137 200.08 21.5509C199.992 21.3757 199.904 21.1304 199.852 21.0078C199.805 20.8559 199.606 20.961 199.256 21.3231L198.748 21.8663ZM220.969 21.2531C220.846 21.5334 220.759 21.7962 220.794 21.8137C220.811 21.8488 221.144 21.8488 221.512 21.8137L222.178 21.7612L221.179 20.7449L220.969 21.2531ZM195.155 22.6022C195.33 23.1103 195.523 23.6534 195.593 23.8287C195.646 23.9863 195.751 24.1265 195.821 24.1265C195.891 24.1265 196.084 23.7936 196.224 23.3731L196.487 22.6022L194.822 21.6736L195.155 22.6022ZM224.544 22.9526C224.614 23.1804 224.754 23.5834 224.877 23.8812L225.087 24.4068C225.631 23.1804 225.824 22.6022 225.876 22.3394C225.911 22.0765 225.911 21.8663 225.859 21.8663C225.788 21.8838 225.455 22.0415 225.087 22.2167C224.544 22.4971 224.457 22.6372 224.544 22.9526ZM197.416 24.1616C197.153 24.7748 197.013 25.3355 197.065 25.388C197.135 25.4581 197.661 25.5457 198.239 25.6158L199.291 25.7384L200.43 23.268C199.414 23.268 198.835 23.2154 198.485 23.1629L197.871 23.0577L197.416 24.1616ZM220.636 23.3906C220.654 23.4607 220.864 24.0214 221.109 24.6346L221.547 25.7384C222.774 25.5808 223.3 25.5282 223.528 25.5282C223.738 25.5282 223.913 25.4406 223.913 25.3179C223.913 25.1953 223.738 24.6346 223.51 24.0739C223.142 23.0928 223.107 23.0752 222.511 23.1103C222.178 23.1278 221.6 23.1629 221.25 23.1979C220.882 23.2329 220.601 23.3205 220.636 23.3906ZM200.991 25.4756C201.026 25.5107 201.359 25.4406 201.744 25.3355L202.445 25.1603C201.762 24.4244 201.569 24.1966 201.569 24.1791C201.552 24.1616 201.411 24.4244 201.254 24.7923C201.078 25.1427 200.973 25.4581 200.991 25.4756ZM218.481 25.0902C219.637 25.4231 219.988 25.4932 219.988 25.4756C220.005 25.4581 219.883 25.1427 219.725 24.7748L219.444 24.109L218.481 25.0902ZM200.623 27.1752C200.518 27.2803 200.43 27.8585 200.43 28.4717V29.558C201.324 29.4004 201.867 29.2777 202.235 29.1901C202.866 29.0499 202.884 29.0149 202.884 28.2965C202.884 27.876 202.919 27.2978 202.971 26.9824C203.006 26.6671 202.989 26.4218 202.919 26.4218C202.848 26.4393 202.358 26.5619 201.815 26.7196C201.254 26.8773 200.728 27.0876 200.623 27.1752ZM218.095 28.3841C218.2 28.9623 218.305 29.0675 218.831 29.2076C219.164 29.2952 219.69 29.4004 219.97 29.4704L220.496 29.5756L220.461 26.9824C218.901 26.632 218.358 26.4919 218.235 26.4568C218.078 26.4043 218.007 26.5795 217.99 27.0525C217.972 27.4205 218.025 28.0162 218.095 28.3841ZM204.286 28.1564C205.109 27.6833 205.355 27.5081 205.355 27.4555C205.372 27.403 205.144 27.2102 204.846 27.0525L204.321 26.7372L204.286 28.1564ZM215.501 27.4555C215.501 27.5081 215.782 27.7183 216.115 27.9461C216.658 28.2965 216.728 28.2965 216.711 28.0337C216.693 27.8585 216.623 27.5081 216.553 27.2628C216.413 26.8248 216.395 26.8248 215.957 27.0876C215.712 27.2453 215.501 27.403 215.501 27.4555ZM198.415 28.1213C198.783 28.5243 198.976 28.6119 199.063 28.4717C199.133 28.3491 199.203 27.9811 199.203 27.6833C199.203 27.2277 199.116 27.0876 198.818 27.0175C198.59 26.9649 198.187 26.9299 197.889 26.9299C197.416 26.9299 197.398 26.9649 197.626 27.2453C197.766 27.403 198.117 27.8059 198.415 28.1213ZM221.775 28.0512L221.81 28.9448C222.652 28.1388 223.037 27.6833 223.23 27.4205L223.563 26.9299C222.389 26.9299 221.986 26.9824 221.898 27.0525C221.81 27.1051 221.758 27.5606 221.775 28.0512ZM208.159 29.2076L208.351 29.8209L209.21 28.5944C208.579 28.4192 208.299 28.3666 208.194 28.3491C208.071 28.3316 207.966 28.3841 207.966 28.4717C207.966 28.5418 208.053 28.8747 208.159 29.2076ZM211.804 28.5944L212.662 29.8209C212.82 29.1375 212.873 28.8046 212.908 28.6469C212.943 28.4717 212.89 28.3316 212.785 28.3491C212.697 28.3666 212.435 28.4192 212.207 28.4893L211.804 28.5944ZM204.286 29.9085L205.074 32.1687C206.02 31.573 206.476 31.3102 206.686 31.1875C206.914 31.0473 207.089 30.8371 207.089 30.6969C207.089 30.5392 206.967 29.9961 206.827 29.4704C206.686 28.9273 206.511 28.5068 206.424 28.5068C206.353 28.5068 205.845 28.8222 205.284 29.2076L204.286 29.9085ZM214.029 29.8209C213.872 30.3991 213.766 30.8896 213.801 30.8896C213.819 30.9072 214.292 31.205 214.853 31.5554C215.554 31.9935 215.887 32.1161 215.94 31.976C215.992 31.8533 216.15 31.3978 216.308 30.9597C216.448 30.5217 216.57 30.1012 216.57 29.9961C216.553 29.9085 216.308 29.6632 215.992 29.4529C215.677 29.2602 215.221 28.9623 214.958 28.7871C214.713 28.6294 214.467 28.5593 214.415 28.6294C214.362 28.6995 214.187 29.2427 214.029 29.8209ZM209.771 30.1538C209.368 30.6969 209.052 31.205 209.07 31.2751C209.087 31.3452 209.385 31.7832 209.718 32.2212C210.069 32.6768 210.384 33.0623 210.419 33.0623C210.472 33.0623 210.84 32.6593 211.243 32.1512C211.944 31.2576 211.961 31.205 211.716 30.7845C211.576 30.5392 211.243 30.0837 210.98 29.7683L210.507 29.1726L209.771 30.1538ZM201.674 30.7144C201.499 30.7728 201.733 31.0065 202.375 31.4153C202.901 31.7482 203.392 32.011 203.462 32.011C203.549 32.011 203.497 31.6781 203.357 31.2751C203.234 30.8546 203.024 30.5042 202.884 30.5042C202.743 30.4867 202.48 30.5042 202.288 30.5567C202.095 30.5918 201.815 30.6619 201.674 30.7144ZM217.271 32.1862C218.568 31.4503 219.076 31.1349 219.234 31.0123C219.409 30.8896 219.497 30.7495 219.409 30.7144C219.339 30.6794 218.971 30.5918 218.586 30.5392L217.885 30.4166L217.271 32.1862ZM207.072 32.5366C206.651 32.7994 206.389 33.0623 206.494 33.1148C206.581 33.1674 207.177 33.29 207.808 33.3952C208.421 33.5003 208.947 33.5528 208.965 33.5353C208.982 33.5178 208.719 33.1849 208.404 32.7819L207.826 32.0636L207.072 32.5366ZM211.751 33.6404C212.557 33.4828 213.136 33.3952 213.539 33.3251C213.959 33.2725 214.327 33.1499 214.38 33.0623C214.432 32.9571 214.205 32.7294 213.889 32.5366C213.574 32.3439 213.241 32.1862 213.153 32.1862C213.048 32.1862 212.697 32.5191 212.364 32.9221L211.751 33.6404Z" fill="#424147"/>
<path fill-rule="evenodd" clip-rule="evenodd" d="M210.367 0C211.576 0 213.048 0.0876053 213.784 0.227774C214.467 0.367942 215.554 0.665801 216.185 0.911095C216.816 1.13887 217.885 1.61194 218.551 1.96236C219.217 2.29526 220.251 2.92602 220.829 3.34652C221.407 3.78455 222.336 4.59052 222.897 5.16872C223.458 5.72939 224.264 6.67553 224.667 7.25372C225.087 7.83192 225.683 8.8131 225.999 9.44386C226.314 10.0746 226.682 10.8981 226.822 11.2836C226.963 11.669 227.243 12.5451 227.436 13.2109C227.646 13.9993 227.804 15.2784 227.874 16.8027C227.944 18.6599 227.909 19.4834 227.681 20.6573C227.506 21.4808 227.208 22.6197 227.015 23.1979C226.805 23.7761 226.419 24.7222 226.121 25.3004C225.841 25.8786 225.193 26.9299 224.702 27.6482C224.211 28.3491 223.177 29.5405 222.406 30.2764C221.635 31.0298 220.373 31.9935 219.602 32.449C218.831 32.9046 217.604 33.5178 216.886 33.8157C216.167 34.131 214.818 34.5165 213.907 34.7092C212.54 34.9896 211.769 35.0421 209.701 34.9721C207.633 34.902 206.879 34.8144 205.635 34.4289C204.776 34.1836 203.444 33.6405 202.656 33.255C201.85 32.852 200.728 32.1862 200.15 31.7832C199.571 31.3802 198.555 30.4691 197.871 29.7858C197.206 29.085 196.312 28.0337 195.891 27.438C195.471 26.8423 194.857 25.7735 194.524 25.0902C194.191 24.3893 193.718 23.1278 193.473 22.2693C193.105 21.0778 193 20.2368 192.929 18.3796C192.877 16.9078 192.912 15.5237 193.052 14.7002C193.175 13.9818 193.42 12.878 193.613 12.2472C193.806 11.6165 194.279 10.4776 194.664 9.70667C195.05 8.93575 195.733 7.79688 196.172 7.16612C196.627 6.53536 197.468 5.55418 198.047 4.9935C198.625 4.43283 199.571 3.62686 200.15 3.20636C200.728 2.80337 201.832 2.15509 202.603 1.76963C203.374 1.38416 204.566 0.893574 205.232 0.700843C205.898 0.49059 206.862 0.245295 207.335 0.175211C207.826 0.0876053 209.175 0.0175211 210.367 0V0ZM206.546 1.83971C206.371 1.89228 206.529 2.08501 207.072 2.43543C207.51 2.71577 207.861 2.92602 207.878 2.9085C207.878 2.89098 208.123 2.54056 208.421 2.13757C208.719 1.71706 208.877 1.40169 208.772 1.40169C208.649 1.41921 208.176 1.48929 207.685 1.5769C207.212 1.6645 206.686 1.78715 206.546 1.83971ZM212.382 2.06749C212.68 2.45295 213.03 2.78585 213.118 2.78585C213.223 2.76833 213.556 2.62816 213.872 2.43543C214.17 2.2427 214.397 2.01492 214.345 1.9098C214.292 1.82219 213.924 1.69954 213.521 1.62946C213.101 1.5769 212.557 1.48929 212.294 1.43673L211.804 1.34912L212.382 2.06749ZM209.368 3.22388L208.965 3.74951C210.156 5.3264 210.524 5.78195 210.542 5.78195C210.577 5.76443 210.91 5.3264 211.295 4.80077L211.996 3.83711C210.84 2.34782 210.454 1.9098 210.419 1.9098C210.367 1.92732 210.209 2.10253 210.051 2.31278C209.893 2.52303 209.596 2.94354 209.368 3.22388ZM204.671 3.92472C204.303 5.01103 204.303 5.08111 204.583 5.30888C204.759 5.43153 205.249 5.78195 205.688 6.07981L206.476 6.60544C206.949 5.01103 207.072 4.43283 207.072 4.29266C207.054 4.15249 206.809 3.88968 206.494 3.71447C206.196 3.52173 205.74 3.2414 205.512 3.08371L205.057 2.78585L204.671 3.92472ZM213.854 4.01232C213.784 4.06489 213.872 4.573 214.029 5.15119C214.187 5.72939 214.38 6.29006 214.45 6.37767C214.555 6.4828 214.958 6.30758 215.536 5.86956C216.045 5.48409 216.5 5.15119 216.553 5.11615C216.605 5.08111 216.483 4.573 216.29 3.9948C216.097 3.39909 215.887 2.9085 215.834 2.87346C215.782 2.85593 215.344 3.08371 214.853 3.38157C214.362 3.67942 213.907 3.95976 213.854 4.01232ZM201.447 4.15249C201.464 4.22258 201.727 4.34523 202.042 4.41531C202.358 4.48539 202.726 4.53796 202.848 4.53796C202.954 4.53796 203.164 4.18754 203.287 3.74951C203.392 3.31148 203.462 2.96106 203.409 2.96106C203.357 2.96106 202.901 3.20636 202.375 3.50421C201.867 3.78455 201.447 4.08241 201.447 4.15249ZM217.657 3.9072C217.85 4.55548 217.885 4.573 218.481 4.46787C218.814 4.41531 219.199 4.36275 219.322 4.36275C219.427 4.36275 219.55 4.29266 219.567 4.22258C219.585 4.13497 219.164 3.83711 218.638 3.55678C218.13 3.27644 217.639 3.03114 217.587 2.9961C217.517 2.96106 217.464 2.9961 217.447 3.08371C217.447 3.15379 217.534 3.53926 217.657 3.9072ZM208.176 5.88708C208.036 6.25502 207.966 6.5704 208.001 6.60544C208.036 6.64049 208.299 6.58792 208.597 6.51784L209.157 6.37767L208.404 5.22128L208.176 5.88708ZM200.395 6.53536C200.413 7.13107 200.5 7.69175 200.57 7.79688C200.64 7.91952 201.184 8.1473 201.779 8.32251C202.393 8.51524 202.919 8.62037 202.954 8.5678C202.989 8.51524 202.989 7.91952 202.936 7.25372L202.848 6.02725L200.36 5.46657L200.395 6.53536ZM212.031 6.46527C212.154 6.46527 212.435 6.53536 212.662 6.60544C213.048 6.72809 213.048 6.71057 212.873 6.11485C212.768 5.78195 212.662 5.48409 212.627 5.44905C212.61 5.41401 212.4 5.64178 212.207 5.93964C211.961 6.27254 211.891 6.46527 212.031 6.46527ZM218.078 6.78065C218.007 7.2362 217.955 7.83192 217.955 8.09473C217.955 8.46268 218.025 8.55028 218.253 8.49772C218.428 8.46268 218.971 8.34003 219.48 8.2349L220.408 8.04217C220.408 5.65931 220.391 5.58922 220.005 5.60674C219.795 5.62426 219.304 5.69435 218.919 5.78195C218.253 5.93964 218.2 5.97468 218.078 6.78065ZM221.81 7.95457C223.23 8.12978 223.668 8.16482 223.685 8.16482C223.721 8.1473 223.3 7.65671 222.774 7.07851L221.828 6.02725L221.81 7.95457ZM197.328 8.16482C197.346 8.16482 197.784 8.12978 198.292 8.07721C199.203 7.95457 199.203 7.95457 199.203 7.34133C199.203 7.00843 199.133 6.62296 199.063 6.50032C198.958 6.32511 198.695 6.51784 198.099 7.20116C197.661 7.70927 197.311 8.1473 197.328 8.16482ZM204.286 8.21738C205.109 7.74431 205.355 7.5691 205.355 7.51654C205.372 7.46398 205.127 7.27124 204.846 7.11355L204.321 6.79817L204.286 8.21738ZM215.484 7.60414C216.518 8.19986 216.553 8.19986 216.553 7.91952C216.553 7.74431 216.588 7.42893 216.623 7.21868C216.658 6.99091 216.641 6.8157 216.588 6.8157C216.518 6.8157 216.237 6.99091 215.975 7.21868L215.484 7.60414ZM206.914 8.46268C206.283 8.70797 205.214 9.32121 204.548 9.82932C203.707 10.4601 203.059 11.1609 202.445 12.072C201.955 12.7904 201.411 13.8066 201.219 14.3498C201.043 14.8754 200.868 16.0318 200.816 16.9779C200.763 17.9591 200.816 19.0279 200.938 19.6061C201.061 20.1317 201.447 21.1479 201.797 21.8838C202.235 22.7949 202.778 23.5483 203.62 24.3718C204.496 25.2479 205.179 25.7385 206.248 26.2466C207.265 26.7372 208.106 27 209.105 27.1226C210.086 27.2628 210.892 27.2628 211.821 27.1401C212.662 27.0175 213.591 26.7196 214.45 26.3166C215.168 25.9837 216.115 25.4231 216.553 25.0727C216.973 24.7222 217.639 24.0915 218.007 23.6359C218.358 23.1979 218.936 22.2868 219.252 21.621C219.585 20.9377 219.953 19.8338 220.058 19.168C220.181 18.4497 220.233 17.3984 220.163 16.6625C220.093 15.9617 219.865 14.8929 219.655 14.2972C219.427 13.7015 219.041 12.8429 218.796 12.4224C218.533 11.9844 217.937 11.2485 217.482 10.7755C217.009 10.3199 216.202 9.65411 215.677 9.30369C215.133 8.95327 214.152 8.49772 213.486 8.26994C212.803 8.05969 211.734 7.84944 211.12 7.79688C210.489 7.74431 209.543 7.77935 209.017 7.84944C208.474 7.93704 207.528 8.21738 206.914 8.46268ZM197.486 9.53146L196.925 9.61907L197.749 11.8092C199.519 11.8092 200.115 11.7391 200.185 11.669C200.272 11.5989 200.097 11.0208 199.817 10.39C199.519 9.75924 199.238 9.26865 199.203 9.28617C199.151 9.30369 198.87 9.33873 198.59 9.37377C198.292 9.40881 197.801 9.4789 197.486 9.53146ZM220.619 11.669C220.636 11.6866 221.214 11.7566 221.898 11.8267L223.125 11.9318C223.861 9.91692 223.896 9.67163 223.703 9.5665C223.58 9.49642 223.177 9.44386 222.809 9.44386C222.441 9.44386 222.038 9.39129 221.915 9.33873C221.74 9.25112 221.512 9.58402 221.127 10.425C220.811 11.0908 220.601 11.6515 220.619 11.669ZM218.796 10.0921C218.884 10.2673 219.059 10.4951 219.199 10.6178C219.392 10.793 219.497 10.7054 219.742 10.1272C219.918 9.74171 219.988 9.44386 219.918 9.44386C219.848 9.46138 219.532 9.53146 219.217 9.61907C218.761 9.75924 218.673 9.84684 218.796 10.0921ZM201.499 10.7229C201.569 10.7404 201.779 10.5302 201.99 10.2673L202.358 9.79428C201.464 9.65411 201.166 9.60155 201.096 9.60155C201.026 9.61907 201.061 9.84684 201.184 10.1447C201.289 10.4426 201.447 10.7054 201.499 10.7229ZM224.737 12.5626C224.912 12.6853 225.263 12.8955 225.526 13.0357C225.806 13.1758 226.016 13.2109 226.016 13.1233C226.016 13.0182 225.841 12.4925 225.631 11.9318C225.438 11.3712 225.21 10.8631 225.158 10.793C225.087 10.7229 224.912 11.0383 224.737 11.4938C224.439 12.2998 224.439 12.3348 224.737 12.5626ZM195.155 12.3699C194.962 12.878 194.84 13.2985 194.857 13.2985C194.875 13.2985 195.26 13.1058 195.698 12.8605L196.487 12.4224C196.172 11.196 195.996 10.8455 195.891 10.8455C195.804 10.8455 195.663 10.9682 195.593 11.1434C195.541 11.3186 195.33 11.8618 195.155 12.3699ZM199.326 13.8592L199.817 14.3322C200.15 13.1758 200.132 13.1233 199.817 13.1408C199.624 13.1408 199.326 13.1934 199.151 13.2634C198.853 13.3686 198.87 13.4211 199.326 13.8592ZM220.934 13.7716L221.109 14.2621C221.775 13.5788 221.933 13.316 221.88 13.2459C221.845 13.1758 221.565 13.1233 221.285 13.1233C220.987 13.1233 220.759 13.1583 220.759 13.2109C220.759 13.2459 220.829 13.5087 220.934 13.7716ZM195.015 14.7878L196.662 16.5925L199.028 15.4886L197.17 13.6664L195.015 14.7878ZM221.986 15.4711C222.038 15.5061 222.564 15.7865 223.16 16.0843L224.264 16.6275C225.473 15.3485 225.824 14.9104 225.824 14.8403C225.841 14.7703 225.368 14.4724 224.79 14.1745C224.211 13.8942 223.721 13.6489 223.685 13.6489C223.65 13.6489 223.247 14.0519 222.757 14.525C222.283 14.998 221.933 15.4361 221.986 15.4711ZM194.296 18.9928C195.243 17.9766 195.523 17.6262 195.506 17.5561C195.506 17.486 195.225 17.1006 194.892 16.7151L194.279 16.0143L194.296 18.9928ZM225.228 17.5035C226.174 18.4497 226.507 18.6775 226.577 18.6424C226.647 18.5899 226.717 18.0817 226.735 17.5211C226.735 16.9429 226.665 16.4348 226.577 16.3822C226.472 16.3296 226.139 16.5749 225.806 16.9078L225.228 17.5035ZM197.889 17.5386C198.923 18.0467 199.256 18.1693 199.308 18.1518C199.344 18.1343 199.361 17.8189 199.344 17.4685L199.273 16.8202L197.889 17.5386ZM221.635 18.1869C222.652 17.7488 222.967 17.5912 223.002 17.5561C223.02 17.5211 222.722 17.3283 222.354 17.1356L221.653 16.7852L221.635 18.1869ZM223.142 18.9228C222.564 19.2031 222.038 19.4659 221.986 19.5185C221.933 19.5535 222.284 19.9915 222.774 20.4646C223.247 20.9377 223.721 21.3407 223.826 21.3231C223.913 21.3231 224.439 21.0778 224.982 20.7625L225.981 20.2018L224.229 18.4322L223.142 18.9228ZM194.892 20.2368L197.258 21.4984C198.485 20.0791 198.853 19.6236 198.853 19.571C198.853 19.5185 198.397 19.2732 197.836 19.0104C197.276 18.7475 196.785 18.5198 196.732 18.5198C196.68 18.5198 196.242 18.9052 195.768 19.3783L194.892 20.2368ZM198.748 21.8663C200.132 21.8488 200.22 21.8137 200.08 21.5509C199.992 21.3757 199.904 21.1304 199.852 21.0078C199.805 20.8559 199.606 20.961 199.256 21.3231L198.748 21.8663ZM220.969 21.2531C220.846 21.5334 220.759 21.7962 220.794 21.8137C220.811 21.8488 221.144 21.8488 221.512 21.8137L222.178 21.7612L221.179 20.7449L220.969 21.2531ZM195.155 22.6022C195.33 23.1103 195.523 23.6534 195.593 23.8287C195.646 23.9863 195.751 24.1265 195.821 24.1265C195.891 24.1265 196.084 23.7936 196.224 23.3731L196.487 22.6022L194.822 21.6736L195.155 22.6022ZM224.544 22.9526C224.614 23.1804 224.754 23.5834 224.877 23.8812L225.087 24.4068C225.631 23.1804 225.824 22.6022 225.876 22.3394C225.911 22.0765 225.911 21.8663 225.859 21.8663C225.788 21.8838 225.455 22.0415 225.087 22.2167C224.544 22.4971 224.457 22.6372 224.544 22.9526ZM197.416 24.1616C197.153 24.7748 197.013 25.3355 197.065 25.388C197.135 25.4581 197.661 25.5457 198.239 25.6158L199.291 25.7384L200.43 23.268C199.414 23.268 198.835 23.2154 198.485 23.1629L197.871 23.0577L197.416 24.1616ZM220.636 23.3906C220.654 23.4607 220.864 24.0214 221.109 24.6346L221.547 25.7384C222.774 25.5808 223.3 25.5282 223.528 25.5282C223.738 25.5282 223.913 25.4406 223.913 25.3179C223.913 25.1953 223.738 24.6346 223.51 24.0739C223.142 23.0928 223.107 23.0752 222.511 23.1103C222.178 23.1278 221.6 23.1629 221.25 23.1979C220.882 23.2329 220.601 23.3205 220.636 23.3906ZM200.991 25.4756C201.026 25.5107 201.359 25.4406 201.744 25.3355L202.445 25.1603C201.762 24.4244 201.569 24.1966 201.569 24.1791C201.552 24.1616 201.411 24.4244 201.254 24.7923C201.078 25.1427 200.973 25.4581 200.991 25.4756ZM218.481 25.0902C219.637 25.4231 219.988 25.4932 219.988 25.4756C220.005 25.4581 219.883 25.1427 219.725 24.7748L219.444 24.109L218.481 25.0902ZM200.623 27.1752C200.518 27.2803 200.43 27.8585 200.43 28.4717V29.558C201.324 29.4004 201.867 29.2777 202.235 29.1901C202.866 29.0499 202.884 29.0149 202.884 28.2965C202.884 27.876 202.919 27.2978 202.971 26.9824C203.006 26.6671 202.989 26.4218 202.919 26.4218C202.848 26.4393 202.358 26.5619 201.815 26.7196C201.254 26.8773 200.728 27.0876 200.623 27.1752ZM218.095 28.3841C218.2 28.9623 218.305 29.0675 218.831 29.2076C219.164 29.2952 219.69 29.4004 219.97 29.4704L220.496 29.5756L220.461 26.9824C218.901 26.632 218.358 26.4919 218.235 26.4568C218.078 26.4043 218.007 26.5795 217.99 27.0525C217.972 27.4205 218.025 28.0162 218.095 28.3841ZM204.286 28.1564C205.109 27.6833 205.355 27.5081 205.355 27.4555C205.372 27.403 205.144 27.2102 204.846 27.0525L204.321 26.7372L204.286 28.1564ZM215.501 27.4555C215.501 27.5081 215.782 27.7183 216.115 27.9461C216.658 28.2965 216.728 28.2965 216.711 28.0337C216.693 27.8585 216.623 27.5081 216.553 27.2628C216.413 26.8248 216.395 26.8248 215.957 27.0876C215.712 27.2453 215.501 27.403 215.501 27.4555ZM198.415 28.1213C198.783 28.5243 198.976 28.6119 199.063 28.4717C199.133 28.3491 199.203 27.9811 199.203 27.6833C199.203 27.2277 199.116 27.0876 198.818 27.0175C198.59 26.9649 198.187 26.9299 197.889 26.9299C197.416 26.9299 197.398 26.9649 197.626 27.2453C197.766 27.403 198.117 27.8059 198.415 28.1213ZM221.775 28.0512L221.81 28.9448C222.652 28.1388 223.037 27.6833 223.23 27.4205L223.563 26.9299C222.389 26.9299 221.986 26.9824 221.898 27.0525C221.81 27.1051 221.758 27.5606 221.775 28.0512ZM208.159 29.2076L208.351 29.8209L209.21 28.5944C208.579 28.4192 208.299 28.3666 208.194 28.3491C208.071 28.3316 207.966 28.3841 207.966 28.4717C207.966 28.5418 208.053 28.8747 208.159 29.2076ZM211.804 28.5944L212.662 29.8209C212.82 29.1375 212.873 28.8046 212.908 28.6469C212.943 28.4717 212.89 28.3316 212.785 28.3491C212.697 28.3666 212.435 28.4192 212.207 28.4893L211.804 28.5944ZM204.286 29.9085L205.074 32.1687C206.02 31.573 206.476 31.3102 206.686 31.1875C206.914 31.0473 207.089 30.8371 207.089 30.6969C207.089 30.5392 206.967 29.9961 206.827 29.4704C206.686 28.9273 206.511 28.5068 206.424 28.5068C206.353 28.5068 205.845 28.8222 205.284 29.2076L204.286 29.9085ZM214.029 29.8209C213.872 30.3991 213.766 30.8896 213.801 30.8896C213.819 30.9072 214.292 31.205 214.853 31.5554C215.554 31.9935 215.887 32.1161 215.94 31.976C215.992 31.8533 216.15 31.3978 216.308 30.9597C216.448 30.5217 216.57 30.1012 216.57 29.9961C216.553 29.9085 216.308 29.6632 215.992 29.4529C215.677 29.2602 215.221 28.9623 214.958 28.7871C214.713 28.6294 214.467 28.5593 214.415 28.6294C214.362 28.6995 214.187 29.2427 214.029 29.8209ZM209.771 30.1538C209.368 30.6969 209.052 31.205 209.07 31.2751C209.087 31.3452 209.385 31.7832 209.718 32.2212C210.069 32.6768 210.384 33.0623 210.419 33.0623C210.472 33.0623 210.84 32.6593 211.243 32.1512C211.944 31.2576 211.961 31.205 211.716 30.7845C211.576 30.5392 211.243 30.0837 210.98 29.7683L210.507 29.1726L209.771 30.1538ZM201.674 30.7144C201.499 30.7728 201.733 31.0065 202.375 31.4153C202.901 31.7482 203.392 32.011 203.462 32.011C203.549 32.011 203.497 31.6781 203.357 31.2751C203.234 30.8546 203.024 30.5042 202.884 30.5042C202.743 30.4867 202.48 30.5042 202.288 30.5567C202.095 30.5918 201.815 30.6619 201.674 30.7144ZM217.271 32.1862C218.568 31.4503 219.076 31.1349 219.234 31.0123C219.409 30.8896 219.497 30.7495 219.409 30.7144C219.339 30.6794 218.971 30.5918 218.586 30.5392L217.885 30.4166L217.271 32.1862ZM207.072 32.5366C206.651 32.7994 206.389 33.0623 206.494 33.1148C206.581 33.1674 207.177 33.29 207.808 33.3952C208.421 33.5003 208.947 33.5528 208.965 33.5353C208.982 33.5178 208.719 33.1849 208.404 32.7819L207.826 32.0636L207.072 32.5366ZM211.751 33.6404C212.557 33.4828 213.136 33.3952 213.539 33.3251C213.959 33.2725 214.327 33.1499 214.38 33.0623C214.432 32.9571 214.205 32.7294 213.889 32.5366C213.574 32.3439 213.241 32.1862 213.153 32.1862C213.048 32.1862 212.697 32.5191 212.364 32.9221L211.751 33.6404Z" fill="#424147"/>
<path d="M252.996 10.6398V24H250.316V15.3102L246.737 24H244.708L241.109 15.3102V24H238.43V10.6398H241.473L245.722 20.5738L249.971 10.6398H252.996ZM265.981 13.3961L259.416 29.0148H256.564L258.861 23.732L254.611 13.3961H257.617L260.354 20.8035L263.129 13.3961H265.981ZM276.709 10.6398V12.8027H273.149V24H270.469V12.8027H266.909V10.6398H276.709ZM283.564 24.1723C282.543 24.1723 281.624 23.949 280.808 23.5023C279.991 23.043 279.347 22.3986 278.874 21.5691C278.415 20.7397 278.185 19.7827 278.185 18.698C278.185 17.6134 278.421 16.6564 278.894 15.827C279.378 14.9975 280.036 14.3595 280.865 13.9129C281.694 13.4535 282.62 13.2238 283.64 13.2238C284.661 13.2238 285.586 13.4535 286.416 13.9129C287.245 14.3595 287.896 14.9975 288.368 15.827C288.853 16.6564 289.096 17.6134 289.096 18.698C289.096 19.7827 288.847 20.7397 288.349 21.5691C287.864 22.3986 287.201 23.043 286.358 23.5023C285.529 23.949 284.597 24.1723 283.564 24.1723ZM283.564 21.8371C284.049 21.8371 284.502 21.7223 284.923 21.4926C285.357 21.2501 285.701 20.8928 285.956 20.4207C286.212 19.9486 286.339 19.3743 286.339 18.698C286.339 17.69 286.071 16.918 285.535 16.382C285.012 15.8333 284.368 15.559 283.602 15.559C282.837 15.559 282.192 15.8333 281.669 16.382C281.159 16.918 280.903 17.69 280.903 18.698C280.903 19.7061 281.152 20.4845 281.65 21.0332C282.16 21.5691 282.798 21.8371 283.564 21.8371ZM297.129 13.243C298.392 13.243 299.413 13.6449 300.191 14.4488C300.97 15.24 301.359 16.3501 301.359 17.7793V24H298.679V18.143C298.679 17.3008 298.469 16.6564 298.047 16.2098C297.626 15.7504 297.052 15.5207 296.325 15.5207C295.585 15.5207 294.998 15.7504 294.564 16.2098C294.143 16.6564 293.932 17.3008 293.932 18.143V24H291.253V13.3961H293.932V14.7168C294.29 14.2574 294.743 13.9001 295.291 13.6449C295.853 13.377 296.465 13.243 297.129 13.243ZM321.957 10.6398L318.224 24H315.066L312.559 14.4871L309.936 24L306.797 24.0191L303.199 10.6398H306.07L308.424 21.0141L311.142 10.6398H314.128L316.693 20.9566L319.066 10.6398H321.957ZM323.209 18.6598C323.209 17.5879 323.419 16.6372 323.84 15.8078C324.274 14.9784 324.855 14.3404 325.582 13.8938C326.322 13.4471 327.145 13.2238 328.051 13.2238C328.842 13.2238 329.532 13.3833 330.119 13.7023C330.718 14.0214 331.197 14.4233 331.554 14.9082V13.3961H334.253V24H331.554V22.4496C331.21 22.9473 330.731 23.362 330.119 23.6937C329.519 24.0128 328.823 24.1723 328.032 24.1723C327.139 24.1723 326.322 23.9426 325.582 23.4832C324.855 23.0238 324.274 22.3794 323.84 21.55C323.419 20.7078 323.209 19.7444 323.209 18.6598ZM331.554 18.698C331.554 18.0473 331.426 17.4922 331.171 17.0328C330.916 16.5607 330.572 16.2034 330.138 15.9609C329.704 15.7057 329.238 15.5781 328.74 15.5781C328.243 15.5781 327.783 15.6993 327.362 15.9418C326.941 16.1842 326.597 16.5415 326.329 17.0137C326.073 17.473 325.946 18.0217 325.946 18.6598C325.946 19.2978 326.073 19.8592 326.329 20.3441C326.597 20.8163 326.941 21.1799 327.362 21.4352C327.796 21.6904 328.255 21.818 328.74 21.818C329.238 21.818 329.704 21.6967 330.138 21.4543C330.572 21.1991 330.916 20.8418 331.171 20.3824C331.426 19.9103 331.554 19.3488 331.554 18.698ZM339.741 9.83594V24H337.061V9.83594H339.741ZM345.26 9.83594V24H342.58V9.83594H345.26ZM357.956 18.4684C357.956 18.8512 357.931 19.1957 357.88 19.502H350.128C350.191 20.2676 350.459 20.8673 350.932 21.3012C351.404 21.735 351.984 21.952 352.673 21.952C353.669 21.952 354.377 21.5245 354.798 20.6695H357.688C357.382 21.6904 356.795 22.5326 355.927 23.1961C355.06 23.8469 353.994 24.1723 352.731 24.1723C351.71 24.1723 350.791 23.949 349.975 23.5023C349.171 23.043 348.539 22.3986 348.08 21.5691C347.633 20.7397 347.41 19.7827 347.41 18.698C347.41 17.6007 347.633 16.6372 348.08 15.8078C348.526 14.9784 349.151 14.3404 349.955 13.8938C350.759 13.4471 351.684 13.2238 352.731 13.2238C353.739 13.2238 354.638 13.4408 355.43 13.8746C356.233 14.3085 356.852 14.9273 357.286 15.7312C357.733 16.5224 357.956 17.4348 357.956 18.4684ZM355.181 17.7027C355.168 17.0137 354.919 16.465 354.434 16.0566C353.949 15.6355 353.356 15.425 352.654 15.425C351.991 15.425 351.429 15.6292 350.97 16.0375C350.523 16.4331 350.249 16.9882 350.147 17.7027H355.181ZM363.223 15.5973V20.727C363.223 21.0842 363.306 21.3458 363.472 21.5117C363.651 21.6648 363.944 21.7414 364.353 21.7414H365.597V24H363.912C361.654 24 360.525 22.9026 360.525 20.7078V15.5973H359.261V13.3961H360.525V10.7738H363.223V13.3961H365.597V15.5973H363.223Z" fill="#424147"/>
<path d="M62.3112 72.5L59.3646 75.4477L56.3896 72.5L59.3636 69.5261L62.3112 72.5ZM69.5146 65.2966L74.5896 70.3716L77.5646 67.3988L69.5146 59.375L61.4646 67.425L64.4396 70.3978L69.5146 65.2966ZM79.6657 69.5261L76.7181 72.5L79.692 75.4739L82.6648 72.5L79.6657 69.5261ZM69.5146 79.7034L64.4396 74.6022L61.4646 77.5761L69.5146 85.625L77.5646 77.575L74.5896 74.6022L69.5146 79.7034ZM69.5146 75.4488L72.4886 72.4738L69.5146 69.5272L66.5407 72.5L69.5146 75.4477V75.4488Z" fill="#424147"/>
<path d="M102.278 72.1687C103.139 72.3292 103.846 72.7594 104.4 73.4594C104.954 74.1594 105.231 74.9615 105.231 75.8656C105.231 76.6823 105.027 77.4042 104.619 78.0312C104.225 78.6437 103.649 79.125 102.891 79.475C102.132 79.825 101.236 80 100.2 80H93.6158V64.7312H99.9158C100.951 64.7312 101.841 64.899 102.585 65.2344C103.343 65.5698 103.912 66.0365 104.291 66.6344C104.685 67.2323 104.881 67.9104 104.881 68.6687C104.881 69.5583 104.641 70.3021 104.16 70.9C103.693 71.4979 103.066 71.9208 102.278 72.1687ZM96.6783 71.0312H99.4783C100.207 71.0312 100.769 70.8708 101.163 70.55C101.556 70.2146 101.753 69.7406 101.753 69.1281C101.753 68.5156 101.556 68.0417 101.163 67.7062C100.769 67.3708 100.207 67.2031 99.4783 67.2031H96.6783V71.0312ZM99.7626 77.5062C100.506 77.5062 101.082 77.3312 101.491 76.9812C101.914 76.6312 102.125 76.1354 102.125 75.4937C102.125 74.8375 101.906 74.3271 101.469 73.9625C101.031 73.5833 100.441 73.3937 99.697 73.3937H96.6783V77.5062H99.7626ZM109.444 66.4375C108.904 66.4375 108.452 66.2698 108.088 65.9344C107.738 65.5844 107.563 65.1542 107.563 64.6437C107.563 64.1333 107.738 63.7104 108.088 63.375C108.452 63.025 108.904 62.85 109.444 62.85C109.984 62.85 110.428 63.025 110.778 63.375C111.143 63.7104 111.325 64.1333 111.325 64.6437C111.325 65.1542 111.143 65.5844 110.778 65.9344C110.428 66.2698 109.984 66.4375 109.444 66.4375ZM110.953 67.8812V80H107.891V67.8812H110.953ZM120.914 67.7062C122.357 67.7062 123.524 68.1656 124.414 69.0844C125.303 69.9885 125.748 71.2573 125.748 72.8906V80H122.685V73.3062C122.685 72.3437 122.445 71.6073 121.964 71.0969C121.482 70.5719 120.826 70.3094 119.995 70.3094C119.149 70.3094 118.478 70.5719 117.982 71.0969C117.501 71.6073 117.26 72.3437 117.26 73.3062V80H114.198V67.8812H117.26V69.3906C117.669 68.8656 118.186 68.4573 118.814 68.1656C119.455 67.8594 120.155 67.7062 120.914 67.7062ZM128.091 73.8969C128.091 72.6719 128.332 71.5854 128.813 70.6375C129.309 69.6896 129.973 68.9604 130.804 68.45C131.65 67.9396 132.59 67.6844 133.626 67.6844C134.53 67.6844 135.317 67.8667 135.988 68.2312C136.674 68.5958 137.221 69.0552 137.629 69.6094V67.8812H140.713V80H137.629V78.2281C137.235 78.7969 136.688 79.2708 135.988 79.65C135.303 80.0146 134.508 80.1969 133.604 80.1969C132.583 80.1969 131.65 79.9344 130.804 79.4094C129.973 78.8844 129.309 78.1479 128.813 77.2C128.332 76.2375 128.091 75.1365 128.091 73.8969ZM137.629 73.9406C137.629 73.1969 137.483 72.5625 137.191 72.0375C136.9 71.4979 136.506 71.0896 136.01 70.8125C135.514 70.5208 134.982 70.375 134.413 70.375C133.845 70.375 133.32 70.5135 132.838 70.7906C132.357 71.0677 131.963 71.476 131.657 72.0156C131.365 72.5406 131.22 73.1677 131.22 73.8969C131.22 74.626 131.365 75.2677 131.657 75.8219C131.963 76.3615 132.357 76.7771 132.838 77.0687C133.334 77.3604 133.859 77.5062 134.413 77.5062C134.982 77.5062 135.514 77.3677 136.01 77.0906C136.506 76.799 136.9 76.3906 137.191 75.8656C137.483 75.326 137.629 74.6844 137.629 73.9406ZM150.639 67.7062C152.083 67.7062 153.249 68.1656 154.139 69.0844C155.028 69.9885 155.473 71.2573 155.473 72.8906V80H152.411V73.3062C152.411 72.3437 152.17 71.6073 151.689 71.0969C151.208 70.5719 150.551 70.3094 149.72 70.3094C148.874 70.3094 148.203 70.5719 147.708 71.0969C147.226 71.6073 146.986 72.3437 146.986 73.3062V80H143.923V67.8812H146.986V69.3906C147.394 68.8656 147.912 68.4573 148.539 68.1656C149.18 67.8594 149.88 67.7062 150.639 67.7062ZM157.817 73.9406C157.817 72.6865 158.072 71.5927 158.582 70.6594C159.093 69.7115 159.8 68.9823 160.704 68.4719C161.608 67.9469 162.644 67.6844 163.81 67.6844C165.312 67.6844 166.552 68.0635 167.529 68.8219C168.521 69.5656 169.184 70.6156 169.52 71.9719H166.217C166.042 71.4469 165.743 71.0385 165.32 70.7469C164.911 70.4406 164.401 70.2875 163.789 70.2875C162.914 70.2875 162.221 70.6083 161.71 71.25C161.2 71.8771 160.945 72.774 160.945 73.9406C160.945 75.0927 161.2 75.9896 161.71 76.6312C162.221 77.2583 162.914 77.5719 163.789 77.5719C165.028 77.5719 165.837 77.0177 166.217 75.9094H169.52C169.184 77.2219 168.521 78.2646 167.529 79.0375C166.537 79.8104 165.298 80.1969 163.81 80.1969C162.644 80.1969 161.608 79.9417 160.704 79.4312C159.8 78.9062 159.093 78.1771 158.582 77.2437C158.072 76.2958 157.817 75.1948 157.817 73.9406ZM183.248 73.6781C183.248 74.1156 183.219 74.5094 183.16 74.8594H174.301C174.374 75.7344 174.68 76.4198 175.22 76.9156C175.759 77.4115 176.423 77.6594 177.21 77.6594C178.348 77.6594 179.157 77.1708 179.638 76.1937H182.941C182.591 77.3604 181.921 78.3229 180.929 79.0812C179.937 79.825 178.72 80.1969 177.276 80.1969C176.109 80.1969 175.059 79.9417 174.126 79.4312C173.207 78.9062 172.485 78.1698 171.96 77.2219C171.45 76.274 171.195 75.1802 171.195 73.9406C171.195 72.6865 171.45 71.5854 171.96 70.6375C172.471 69.6896 173.185 68.9604 174.104 68.45C175.023 67.9396 176.08 67.6844 177.276 67.6844C178.428 67.6844 179.456 67.9323 180.36 68.4281C181.279 68.924 181.986 69.6312 182.482 70.55C182.993 71.4542 183.248 72.4969 183.248 73.6781ZM180.076 72.8031C180.061 72.0156 179.777 71.3885 179.223 70.9219C178.669 70.4406 177.99 70.2 177.188 70.2C176.43 70.2 175.788 70.4333 175.263 70.9C174.753 71.3521 174.439 71.9865 174.323 72.8031H180.076Z" fill="#424147"/>
<path d="M220.707 72.5L227.553 79.3461L231.879 75.0199C232.638 74.2617 233.886 74.2617 234.645 75.0199C235.403 75.7781 235.403 77.0269 234.645 77.7851L228.936 83.4939C228.178 84.252 226.929 84.252 226.171 83.4939L217.964 75.2652V80.1711C217.964 81.2416 217.095 82.1335 216.002 82.1335C214.909 82.1335 214.04 81.2639 214.04 80.1711V64.8734C214.04 63.7807 214.909 62.911 216.002 62.911C217.095 62.911 217.964 63.7807 217.964 64.8734V69.7348L226.193 61.5061C226.951 60.748 228.2 60.748 228.958 61.5061L234.667 67.2149C235.425 67.9731 235.425 69.2219 234.667 69.9801C233.909 70.7383 232.66 70.7383 231.902 69.9801L227.576 65.6539L220.707 72.5ZM227.576 70.5376C226.483 70.5376 225.613 71.4073 225.613 72.5C225.613 73.5927 226.483 74.4624 227.576 74.4624C228.668 74.4624 229.538 73.5927 229.538 72.5C229.516 71.4073 228.646 70.5376 227.576 70.5376Z" fill="#424147"/>
<path d="M254.878 80L249.322 73.1969V80H246.26V64.7312H249.322V71.5781L254.878 64.7312H258.575L252.275 72.3L258.75 80H254.878ZM272.424 67.8812V80H269.34V78.4687C268.946 78.9937 268.428 79.4094 267.786 79.7156C267.159 80.0073 266.474 80.1531 265.73 80.1531C264.782 80.1531 263.944 79.9562 263.215 79.5625C262.485 79.1542 261.909 78.5635 261.486 77.7906C261.078 77.0031 260.874 76.0698 260.874 74.9906V67.8812H263.936V74.5531C263.936 75.5156 264.177 76.2594 264.658 76.7844C265.14 77.2948 265.796 77.55 266.627 77.55C267.473 77.55 268.136 77.2948 268.618 76.7844C269.099 76.2594 269.34 75.5156 269.34 74.5531V67.8812H272.424ZM274.877 73.9406C274.877 72.6865 275.132 71.5927 275.642 70.6594C276.153 69.7115 276.86 68.9823 277.764 68.4719C278.669 67.9469 279.704 67.6844 280.871 67.6844C282.373 67.6844 283.612 68.0635 284.589 68.8219C285.581 69.5656 286.245 70.6156 286.58 71.9719H283.277C283.102 71.4469 282.803 71.0385 282.38 70.7469C281.972 70.4406 281.461 70.2875 280.849 70.2875C279.974 70.2875 279.281 70.6083 278.771 71.25C278.26 71.8771 278.005 72.774 278.005 73.9406C278.005 75.0927 278.26 75.9896 278.771 76.6312C279.281 77.2583 279.974 77.5719 280.849 77.5719C282.088 77.5719 282.898 77.0177 283.277 75.9094H286.58C286.245 77.2219 285.581 78.2646 284.589 79.0375C283.598 79.8104 282.358 80.1969 280.871 80.1969C279.704 80.1969 278.669 79.9417 277.764 79.4312C276.86 78.9062 276.153 78.1771 275.642 77.2437C275.132 76.2958 274.877 75.1948 274.877 73.9406ZM294.424 80.1969C293.257 80.1969 292.207 79.9417 291.274 79.4312C290.34 78.9062 289.604 78.1698 289.064 77.2219C288.539 76.274 288.277 75.1802 288.277 73.9406C288.277 72.701 288.546 71.6073 289.086 70.6594C289.64 69.7115 290.391 68.9823 291.339 68.4719C292.287 67.9469 293.344 67.6844 294.511 67.6844C295.678 67.6844 296.735 67.9469 297.683 68.4719C298.631 68.9823 299.375 69.7115 299.914 70.6594C300.468 71.6073 300.745 72.701 300.745 73.9406C300.745 75.1802 300.461 76.274 299.892 77.2219C299.338 78.1698 298.58 78.9062 297.617 79.4312C296.669 79.9417 295.605 80.1969 294.424 80.1969ZM294.424 77.5281C294.978 77.5281 295.495 77.3969 295.977 77.1344C296.472 76.8573 296.866 76.449 297.158 75.9094C297.45 75.3698 297.595 74.7135 297.595 73.9406C297.595 72.7885 297.289 71.9062 296.677 71.2937C296.079 70.6667 295.342 70.3531 294.467 70.3531C293.592 70.3531 292.856 70.6667 292.258 71.2937C291.675 71.9062 291.383 72.7885 291.383 73.9406C291.383 75.0927 291.667 75.9823 292.236 76.6094C292.819 77.2219 293.549 77.5281 294.424 77.5281ZM304.764 66.4375C304.224 66.4375 303.772 66.2698 303.407 65.9344C303.057 65.5844 302.882 65.1542 302.882 64.6437C302.882 64.1333 303.057 63.7104 303.407 63.375C303.772 63.025 304.224 62.85 304.764 62.85C305.303 62.85 305.748 63.025 306.098 63.375C306.463 63.7104 306.645 64.1333 306.645 64.6437C306.645 65.1542 306.463 65.5844 306.098 65.9344C305.748 66.2698 305.303 66.4375 304.764 66.4375ZM306.273 67.8812V80H303.211V67.8812H306.273ZM316.233 67.7062C317.677 67.7062 318.844 68.1656 319.733 69.0844C320.623 69.9885 321.068 71.2573 321.068 72.8906V80H318.005V73.3062C318.005 72.3437 317.764 71.6073 317.283 71.0969C316.802 70.5719 316.146 70.3094 315.314 70.3094C314.469 70.3094 313.798 70.5719 313.302 71.0969C312.821 71.6073 312.58 72.3437 312.58 73.3062V80H309.518V67.8812H312.58V69.3906C312.988 68.8656 313.506 68.4573 314.133 68.1656C314.775 67.8594 315.475 67.7062 316.233 67.7062Z" fill="#424147"/>
<path fill-rule="evenodd" clip-rule="evenodd" d="M63.6005 127.666L54.9375 116.901H61.7992L67.1468 123.554L72.8599 116.931H76.639L68.974 125.828L78.0625 137.135H71.2213L65.4309 129.94L59.2491 137.115H55.4496L63.6005 127.666ZM72.2184 135.141L59.1449 118.896H60.8013L73.8584 135.141H72.2184Z" fill="#424147"/>
<path d="M99.4427 119.731V122.203H95.374V135H92.3115V122.203H88.2427V119.731H99.4427ZM118.696 122.881L115.152 135H111.849L109.64 126.534L107.43 135H104.105L100.54 122.881H103.646L105.79 132.112L108.108 122.881H111.346L113.621 132.091L115.765 122.881H118.696ZM122.125 121.437C121.585 121.437 121.133 121.27 120.769 120.934C120.419 120.584 120.244 120.154 120.244 119.644C120.244 119.133 120.419 118.71 120.769 118.375C121.133 118.025 121.585 117.85 122.125 117.85C122.664 117.85 123.109 118.025 123.459 118.375C123.824 118.71 124.006 119.133 124.006 119.644C124.006 120.154 123.824 120.584 123.459 120.934C123.109 121.27 122.664 121.437 122.125 121.437ZM123.634 122.881V135H120.572V122.881H123.634ZM130.444 125.397V131.259C130.444 131.668 130.539 131.967 130.729 132.156C130.933 132.331 131.268 132.419 131.735 132.419H133.157V135H131.232C128.651 135 127.36 133.746 127.36 131.237V125.397H125.916V122.881H127.36V119.884H130.444V122.881H133.157V125.397H130.444ZM139.144 125.397V131.259C139.144 131.668 139.239 131.967 139.428 132.156C139.633 132.331 139.968 132.419 140.435 132.419H141.856V135H139.931C137.35 135 136.06 133.746 136.06 131.237V125.397H134.616V122.881H136.06V119.884H139.144V122.881H141.856V125.397H139.144ZM155.544 128.678C155.544 129.116 155.514 129.509 155.456 129.859H146.597C146.67 130.734 146.976 131.42 147.515 131.916C148.055 132.411 148.719 132.659 149.506 132.659C150.644 132.659 151.453 132.171 151.934 131.194H155.237C154.887 132.36 154.216 133.323 153.225 134.081C152.233 134.825 151.015 135.197 149.572 135.197C148.405 135.197 147.355 134.942 146.422 134.431C145.503 133.906 144.781 133.17 144.256 132.222C143.746 131.274 143.49 130.18 143.49 128.941C143.49 127.686 143.746 126.585 144.256 125.637C144.766 124.69 145.481 123.96 146.4 123.45C147.319 122.94 148.376 122.684 149.572 122.684C150.724 122.684 151.752 122.932 152.656 123.428C153.575 123.924 154.282 124.631 154.778 125.55C155.288 126.454 155.544 127.497 155.544 128.678ZM152.372 127.803C152.357 127.016 152.073 126.389 151.519 125.922C150.964 125.441 150.286 125.2 149.484 125.2C148.726 125.2 148.084 125.433 147.559 125.9C147.049 126.352 146.735 126.986 146.619 127.803H152.372ZM161.06 124.762C161.454 124.121 161.964 123.618 162.591 123.253C163.233 122.889 163.962 122.706 164.779 122.706V125.922H163.97C163.007 125.922 162.278 126.148 161.782 126.6C161.301 127.052 161.06 127.84 161.06 128.962V135H157.998V122.881H161.06V124.762Z" fill="#424147"/>
<path d="M219.976 139.375C219.976 139.375 218.952 138.159 218.098 137.085C221.827 136.039 223.25 133.72 223.25 133.72C222.083 134.484 220.973 135.021 219.976 135.388C218.553 135.982 217.187 136.378 215.849 136.604C213.116 137.113 210.611 136.972 208.476 136.576C206.853 136.265 205.458 135.812 204.291 135.36C203.636 135.106 202.924 134.795 202.213 134.399C202.127 134.342 202.042 134.314 201.957 134.257C201.9 134.229 201.871 134.201 201.843 134.173C201.33 133.89 201.046 133.692 201.046 133.692C201.046 133.692 202.412 135.954 206.027 137.028C205.173 138.103 204.12 139.375 204.12 139.375C197.829 139.177 195.438 135.077 195.438 135.077C195.438 125.973 199.537 118.594 199.537 118.594C203.636 115.54 207.536 115.625 207.536 115.625L207.821 115.965C202.697 117.435 200.334 119.668 200.334 119.668C200.334 119.668 200.96 119.329 202.013 118.848C205.06 117.52 207.479 117.152 208.476 117.067C208.646 117.039 208.789 117.011 208.96 117.011C210.696 116.784 212.66 116.728 214.71 116.954C217.414 117.265 220.318 118.057 223.279 119.668C223.279 119.668 221.03 117.548 216.19 116.078L216.589 115.625C216.589 115.625 220.489 115.54 224.588 118.594C224.588 118.594 228.688 125.973 228.688 135.077C228.688 135.077 226.268 139.177 219.976 139.375ZM206.739 126.171C205.116 126.171 203.835 127.585 203.835 129.31C203.835 131.034 205.145 132.448 206.739 132.448C208.362 132.448 209.643 131.034 209.643 129.31C209.671 127.585 208.362 126.171 206.739 126.171ZM217.13 126.171C215.507 126.171 214.226 127.585 214.226 129.31C214.226 131.034 215.536 132.448 217.13 132.448C218.752 132.448 220.033 131.034 220.033 129.31C220.033 127.585 218.752 126.171 217.13 126.171Z" fill="#424147"/>
<path d="M245.02 119.731C246.624 119.731 248.031 120.045 249.242 120.672C250.467 121.299 251.407 122.196 252.064 123.362C252.734 124.515 253.07 125.856 253.07 127.387C253.07 128.919 252.734 130.26 252.064 131.412C251.407 132.55 250.467 133.432 249.242 134.059C248.031 134.686 246.624 135 245.02 135H239.682V119.731H245.02ZM244.91 132.397C246.515 132.397 247.754 131.959 248.629 131.084C249.504 130.209 249.942 128.977 249.942 127.387C249.942 125.798 249.504 124.558 248.629 123.669C247.754 122.765 246.515 122.312 244.91 122.312H242.745V132.397H244.91ZM257.134 121.437C256.595 121.437 256.142 121.27 255.778 120.934C255.428 120.584 255.253 120.154 255.253 119.644C255.253 119.133 255.428 118.71 255.778 118.375C256.142 118.025 256.595 117.85 257.134 117.85C257.674 117.85 258.119 118.025 258.469 118.375C258.833 118.71 259.015 119.133 259.015 119.644C259.015 120.154 258.833 120.584 258.469 120.934C258.119 121.27 257.674 121.437 257.134 121.437ZM258.644 122.881V135H255.581V122.881H258.644ZM266.526 135.197C265.534 135.197 264.644 135.022 263.857 134.672C263.069 134.307 262.442 133.819 261.976 133.206C261.523 132.594 261.276 131.916 261.232 131.172H264.316C264.374 131.639 264.601 132.025 264.994 132.331C265.403 132.637 265.906 132.791 266.504 132.791C267.087 132.791 267.539 132.674 267.86 132.441C268.195 132.207 268.363 131.908 268.363 131.544C268.363 131.15 268.159 130.858 267.751 130.669C267.357 130.465 266.722 130.246 265.847 130.012C264.943 129.794 264.199 129.568 263.616 129.334C263.047 129.101 262.552 128.744 262.129 128.262C261.72 127.781 261.516 127.132 261.516 126.316C261.516 125.645 261.706 125.032 262.085 124.478C262.479 123.924 263.033 123.486 263.747 123.166C264.477 122.845 265.33 122.684 266.307 122.684C267.751 122.684 268.903 123.049 269.763 123.778C270.623 124.493 271.097 125.462 271.185 126.687H268.254C268.21 126.206 268.006 125.827 267.641 125.55C267.291 125.258 266.817 125.112 266.219 125.112C265.665 125.112 265.235 125.215 264.929 125.419C264.637 125.623 264.491 125.907 264.491 126.272C264.491 126.68 264.695 126.994 265.104 127.212C265.512 127.417 266.146 127.628 267.007 127.847C267.882 128.066 268.604 128.292 269.172 128.525C269.741 128.758 270.23 129.123 270.638 129.619C271.061 130.1 271.28 130.742 271.294 131.544C271.294 132.244 271.097 132.871 270.704 133.425C270.324 133.979 269.77 134.417 269.041 134.737C268.327 135.044 267.488 135.197 266.526 135.197ZM273.239 128.941C273.239 127.686 273.495 126.593 274.005 125.659C274.515 124.711 275.223 123.982 276.127 123.472C277.031 122.947 278.067 122.684 279.233 122.684C280.735 122.684 281.975 123.064 282.952 123.822C283.944 124.566 284.607 125.616 284.943 126.972H281.639C281.464 126.447 281.165 126.039 280.743 125.747C280.334 125.441 279.824 125.287 279.211 125.287C278.336 125.287 277.644 125.608 277.133 126.25C276.623 126.877 276.368 127.774 276.368 128.941C276.368 130.093 276.623 130.99 277.133 131.631C277.644 132.258 278.336 132.572 279.211 132.572C280.451 132.572 281.26 132.018 281.639 130.909H284.943C284.607 132.222 283.944 133.265 282.952 134.037C281.96 134.81 280.721 135.197 279.233 135.197C278.067 135.197 277.031 134.942 276.127 134.431C275.223 133.906 274.515 133.177 274.005 132.244C273.495 131.296 273.239 130.195 273.239 128.941ZM292.786 135.197C291.619 135.197 290.569 134.942 289.636 134.431C288.703 133.906 287.966 133.17 287.427 132.222C286.902 131.274 286.639 130.18 286.639 128.941C286.639 127.701 286.909 126.607 287.449 125.659C288.003 124.711 288.754 123.982 289.702 123.472C290.65 122.947 291.707 122.684 292.874 122.684C294.04 122.684 295.098 122.947 296.046 123.472C296.993 123.982 297.737 124.711 298.277 125.659C298.831 126.607 299.108 127.701 299.108 128.941C299.108 130.18 298.824 131.274 298.255 132.222C297.701 133.17 296.942 133.906 295.98 134.431C295.032 134.942 293.967 135.197 292.786 135.197ZM292.786 132.528C293.34 132.528 293.858 132.397 294.339 132.134C294.835 131.857 295.229 131.449 295.521 130.909C295.812 130.37 295.958 129.714 295.958 128.941C295.958 127.789 295.652 126.906 295.039 126.294C294.441 125.667 293.705 125.353 292.83 125.353C291.955 125.353 291.218 125.667 290.621 126.294C290.037 126.906 289.746 127.789 289.746 128.941C289.746 130.093 290.03 130.982 290.599 131.609C291.182 132.222 291.911 132.528 292.786 132.528ZM304.636 124.762C305.029 124.121 305.54 123.618 306.167 123.253C306.809 122.889 307.538 122.706 308.354 122.706V125.922H307.545C306.583 125.922 305.853 126.148 305.358 126.6C304.876 127.052 304.636 127.84 304.636 128.962V135H301.573V122.881H304.636V124.762ZM309.848 128.897C309.848 127.672 310.089 126.585 310.57 125.637C311.066 124.69 311.737 123.96 312.583 123.45C313.429 122.94 314.369 122.684 315.405 122.684C316.192 122.684 316.943 122.859 317.658 123.209C318.372 123.545 318.941 123.997 319.364 124.566V118.812H322.47V135H319.364V133.206C318.985 133.804 318.453 134.285 317.767 134.65C317.082 135.015 316.287 135.197 315.383 135.197C314.362 135.197 313.429 134.934 312.583 134.409C311.737 133.884 311.066 133.148 310.57 132.2C310.089 131.237 309.848 130.136 309.848 128.897ZM319.386 128.941C319.386 128.197 319.24 127.562 318.948 127.037C318.657 126.498 318.263 126.09 317.767 125.812C317.271 125.521 316.739 125.375 316.17 125.375C315.602 125.375 315.077 125.514 314.595 125.791C314.114 126.068 313.72 126.476 313.414 127.016C313.122 127.541 312.977 128.168 312.977 128.897C312.977 129.626 313.122 130.268 313.414 130.822C313.72 131.361 314.114 131.777 314.595 132.069C315.091 132.36 315.616 132.506 316.17 132.506C316.739 132.506 317.271 132.368 317.767 132.091C318.263 131.799 318.657 131.391 318.948 130.866C319.24 130.326 319.386 129.684 319.386 128.941Z" fill="#424147"/>
<path fill-rule="evenodd" clip-rule="evenodd" d="M31.6277 180.893C39.1182 177.629 44.113 175.478 46.6122 174.438C53.7478 171.47 55.2305 170.955 56.1969 170.938C56.4095 170.934 56.8847 170.987 57.1926 171.236C57.4525 171.447 57.524 171.732 57.5583 171.932C57.5925 172.132 57.6351 172.588 57.6012 172.944C57.2146 177.007 55.5414 186.866 54.6902 191.417C54.33 193.342 53.6208 193.988 52.9342 194.051C51.4421 194.188 50.309 193.065 48.8638 192.118C46.6024 190.635 45.3248 189.712 43.1297 188.266C40.5928 186.594 42.2374 185.675 43.6831 184.174C44.0615 183.781 50.6358 177.801 50.7631 177.258C50.779 177.191 50.7937 176.938 50.6435 176.804C50.4933 176.671 50.2715 176.716 50.1115 176.753C49.8847 176.804 46.272 179.192 39.2734 183.916C38.248 184.62 37.3192 184.963 36.487 184.945C35.5696 184.926 33.8048 184.427 32.4929 184C30.8838 183.477 29.6049 183.201 29.7162 182.312C29.7742 181.85 30.4114 181.376 31.6277 180.893Z" fill="#424147"/>
<path d="M79.0572 174.731V177.203H74.9884V190H71.9259V177.203H67.8572V174.731H79.0572ZM92.776 183.678C92.776 184.116 92.7469 184.509 92.6885 184.859H83.8292C83.9021 185.734 84.2083 186.42 84.7479 186.916C85.2875 187.411 85.951 187.659 86.7385 187.659C87.876 187.659 88.6854 187.171 89.1667 186.194H92.4698C92.1198 187.36 91.449 188.323 90.4573 189.081C89.4656 189.825 88.2479 190.197 86.8042 190.197C85.6375 190.197 84.5875 189.942 83.6542 189.431C82.7354 188.906 82.0135 188.17 81.4885 187.222C80.9781 186.274 80.7229 185.18 80.7229 183.941C80.7229 182.686 80.9781 181.585 81.4885 180.637C81.999 179.69 82.7135 178.96 83.6323 178.45C84.551 177.94 85.6083 177.684 86.8042 177.684C87.9562 177.684 88.9844 177.932 89.8885 178.428C90.8073 178.924 91.5146 179.631 92.0104 180.55C92.5208 181.454 92.776 182.497 92.776 183.678ZM89.6042 182.803C89.5896 182.016 89.3052 181.389 88.751 180.922C88.1969 180.441 87.5187 180.2 86.7167 180.2C85.9583 180.2 85.3167 180.433 84.7917 180.9C84.2812 181.352 83.9677 181.986 83.851 182.803H89.6042ZM98.2926 173.812V190H95.2301V173.812H98.2926ZM112.803 183.678C112.803 184.116 112.774 184.509 112.715 184.859H103.856C103.929 185.734 104.235 186.42 104.775 186.916C105.314 187.411 105.978 187.659 106.765 187.659C107.903 187.659 108.712 187.171 109.193 186.194H112.497C112.147 187.36 111.476 188.323 110.484 189.081C109.492 189.825 108.275 190.197 106.831 190.197C105.664 190.197 104.614 189.942 103.681 189.431C102.762 188.906 102.04 188.17 101.515 187.222C101.005 186.274 100.75 185.18 100.75 183.941C100.75 182.686 101.005 181.585 101.515 180.637C102.026 179.69 102.74 178.96 103.659 178.45C104.578 177.94 105.635 177.684 106.831 177.684C107.983 177.684 109.011 177.932 109.915 178.428C110.834 178.924 111.541 179.631 112.037 180.55C112.548 181.454 112.803 182.497 112.803 183.678ZM109.631 182.803C109.616 182.016 109.332 181.389 108.778 180.922C108.224 180.441 107.545 180.2 106.743 180.2C105.985 180.2 105.343 180.433 104.818 180.9C104.308 181.352 103.994 181.986 103.878 182.803H109.631ZM120.004 177.684C120.908 177.684 121.703 177.867 122.388 178.231C123.074 178.581 123.613 179.041 124.007 179.609V177.881H127.091V190.088C127.091 191.21 126.865 192.209 126.413 193.084C125.961 193.974 125.283 194.674 124.379 195.184C123.475 195.709 122.381 195.972 121.097 195.972C119.377 195.972 117.962 195.571 116.854 194.769C115.76 193.967 115.14 192.873 114.994 191.488H118.035C118.195 192.042 118.538 192.479 119.063 192.8C119.603 193.135 120.252 193.303 121.01 193.303C121.9 193.303 122.621 193.033 123.176 192.494C123.73 191.969 124.007 191.167 124.007 190.088V188.206C123.613 188.775 123.066 189.249 122.366 189.628C121.681 190.007 120.893 190.197 120.004 190.197C118.983 190.197 118.05 189.934 117.204 189.409C116.358 188.884 115.687 188.148 115.191 187.2C114.71 186.237 114.469 185.136 114.469 183.897C114.469 182.672 114.71 181.585 115.191 180.637C115.687 179.69 116.351 178.96 117.182 178.45C118.028 177.94 118.968 177.684 120.004 177.684ZM124.007 183.941C124.007 183.197 123.861 182.562 123.569 182.037C123.278 181.498 122.884 181.09 122.388 180.812C121.892 180.521 121.36 180.375 120.791 180.375C120.222 180.375 119.697 180.514 119.216 180.791C118.735 181.068 118.341 181.476 118.035 182.016C117.743 182.541 117.597 183.168 117.597 183.897C117.597 184.626 117.743 185.268 118.035 185.822C118.341 186.361 118.735 186.777 119.216 187.069C119.712 187.36 120.237 187.506 120.791 187.506C121.36 187.506 121.892 187.368 122.388 187.091C122.884 186.799 123.278 186.391 123.569 185.866C123.861 185.326 124.007 184.684 124.007 183.941ZM133.364 179.762C133.757 179.121 134.268 178.618 134.895 178.253C135.536 177.889 136.266 177.706 137.082 177.706V180.922H136.273C135.31 180.922 134.581 181.148 134.085 181.6C133.604 182.052 133.364 182.84 133.364 183.962V190H130.301V177.881H133.364V179.762ZM138.576 183.897C138.576 182.672 138.817 181.585 139.298 180.637C139.794 179.69 140.458 178.96 141.289 178.45C142.135 177.94 143.075 177.684 144.111 177.684C145.015 177.684 145.802 177.867 146.473 178.231C147.159 178.596 147.705 179.055 148.114 179.609V177.881H151.198V190H148.114V188.228C147.72 188.797 147.173 189.271 146.473 189.65C145.788 190.015 144.993 190.197 144.089 190.197C143.068 190.197 142.135 189.934 141.289 189.409C140.458 188.884 139.794 188.148 139.298 187.2C138.817 186.237 138.576 185.136 138.576 183.897ZM148.114 183.941C148.114 183.197 147.968 182.562 147.676 182.037C147.385 181.498 146.991 181.09 146.495 180.812C145.999 180.521 145.467 180.375 144.898 180.375C144.329 180.375 143.804 180.514 143.323 180.791C142.842 181.068 142.448 181.476 142.142 182.016C141.85 182.541 141.704 183.168 141.704 183.897C141.704 184.626 141.85 185.268 142.142 185.822C142.448 186.361 142.842 186.777 143.323 187.069C143.819 187.36 144.344 187.506 144.898 187.506C145.467 187.506 145.999 187.368 146.495 187.091C146.991 186.799 147.385 186.391 147.676 185.866C147.968 185.326 148.114 184.684 148.114 183.941ZM169.458 177.706C170.945 177.706 172.141 178.166 173.045 179.084C173.964 179.989 174.424 181.257 174.424 182.891V190H171.361V183.306C171.361 182.358 171.12 181.636 170.639 181.141C170.158 180.63 169.502 180.375 168.67 180.375C167.839 180.375 167.176 180.63 166.68 181.141C166.199 181.636 165.958 182.358 165.958 183.306V190H162.895V183.306C162.895 182.358 162.655 181.636 162.174 181.141C161.692 180.63 161.036 180.375 160.205 180.375C159.359 180.375 158.688 180.63 158.192 181.141C157.711 181.636 157.47 182.358 157.47 183.306V190H154.408V177.881H157.47V179.347C157.864 178.836 158.367 178.435 158.98 178.144C159.607 177.852 160.292 177.706 161.036 177.706C161.984 177.706 162.83 177.91 163.574 178.319C164.317 178.712 164.893 179.281 165.302 180.025C165.695 179.325 166.264 178.764 167.008 178.341C167.766 177.918 168.583 177.706 169.458 177.706Z" fill="#424147"/>
<path d="M239.206 174.334C238.815 172.873 237.667 171.725 236.207 171.334C233.562 170.625 222.952 170.625 222.952 170.625C222.952 170.625 212.342 170.625 209.698 171.334C208.237 171.725 207.089 172.873 206.698 174.334C205.989 176.979 205.989 182.5 205.989 182.5C205.989 182.5 205.989 188.021 206.698 190.666C207.089 192.127 208.237 193.275 209.698 193.666C212.342 194.375 222.952 194.375 222.952 194.375C222.952 194.375 233.562 194.375 236.207 193.666C237.667 193.275 238.815 192.127 239.206 190.666C239.916 188.021 239.916 182.5 239.916 182.5C239.916 182.5 239.913 176.979 239.206 174.334Z" fill="#424147"/>
<path d="M218.396 187.589L227.21 182.501L218.396 177.412V187.589Z" fill="#222224"/>
<path d="M263.418 174.731L258.256 184.684V190H255.193V184.684L250.009 174.731H253.465L256.746 181.709L260.006 174.731H263.418ZM270.784 190.197C269.618 190.197 268.568 189.942 267.634 189.431C266.701 188.906 265.964 188.17 265.425 187.222C264.9 186.274 264.637 185.18 264.637 183.941C264.637 182.701 264.907 181.607 265.447 180.659C266.001 179.711 266.752 178.982 267.7 178.472C268.648 177.947 269.705 177.684 270.872 177.684C272.038 177.684 273.096 177.947 274.044 178.472C274.992 178.982 275.735 179.711 276.275 180.659C276.829 181.607 277.106 182.701 277.106 183.941C277.106 185.18 276.822 186.274 276.253 187.222C275.699 188.17 274.94 188.906 273.978 189.431C273.03 189.942 271.965 190.197 270.784 190.197ZM270.784 187.528C271.338 187.528 271.856 187.397 272.337 187.134C272.833 186.857 273.227 186.449 273.519 185.909C273.81 185.37 273.956 184.714 273.956 183.941C273.956 182.789 273.65 181.906 273.037 181.294C272.439 180.667 271.703 180.353 270.828 180.353C269.953 180.353 269.217 180.667 268.619 181.294C268.035 181.906 267.744 182.789 267.744 183.941C267.744 185.093 268.028 185.982 268.597 186.609C269.18 187.222 269.909 187.528 270.784 187.528ZM291.012 177.881V190H287.928V188.469C287.534 188.994 287.016 189.409 286.374 189.716C285.747 190.007 285.062 190.153 284.318 190.153C283.37 190.153 282.532 189.956 281.803 189.562C281.073 189.154 280.497 188.564 280.074 187.791C279.666 187.003 279.462 186.07 279.462 184.991V177.881H282.524V184.553C282.524 185.516 282.765 186.259 283.246 186.784C283.728 187.295 284.384 187.55 285.215 187.55C286.061 187.55 286.724 187.295 287.206 186.784C287.687 186.259 287.928 185.516 287.928 184.553V177.881H291.012ZM304.643 174.731V177.203H300.574V190H297.512V177.203H293.443V174.731H304.643ZM318.537 177.881V190H315.452V188.469C315.059 188.994 314.541 189.409 313.899 189.716C313.272 190.007 312.587 190.153 311.843 190.153C310.895 190.153 310.057 189.956 309.327 189.562C308.598 189.154 308.022 188.564 307.599 187.791C307.191 187.003 306.987 186.07 306.987 184.991V177.881H310.049V184.553C310.049 185.516 310.29 186.259 310.771 186.784C311.252 187.295 311.909 187.55 312.74 187.55C313.586 187.55 314.249 187.295 314.731 186.784C315.212 186.259 315.452 185.516 315.452 184.553V177.881H318.537ZM324.84 179.653C325.234 179.07 325.773 178.596 326.459 178.231C327.159 177.867 327.953 177.684 328.843 177.684C329.878 177.684 330.812 177.94 331.643 178.45C332.489 178.96 333.152 179.69 333.634 180.637C334.129 181.571 334.377 182.657 334.377 183.897C334.377 185.136 334.129 186.237 333.634 187.2C333.152 188.148 332.489 188.884 331.643 189.409C330.812 189.934 329.878 190.197 328.843 190.197C327.939 190.197 327.144 190.022 326.459 189.672C325.788 189.307 325.248 188.841 324.84 188.272V190H321.777V173.812H324.84V179.653ZM331.249 183.897C331.249 183.168 331.096 182.541 330.79 182.016C330.498 181.476 330.104 181.068 329.609 180.791C329.127 180.514 328.602 180.375 328.034 180.375C327.479 180.375 326.954 180.521 326.459 180.812C325.977 181.09 325.584 181.498 325.277 182.037C324.986 182.577 324.84 183.211 324.84 183.941C324.84 184.67 324.986 185.304 325.277 185.844C325.584 186.383 325.977 186.799 326.459 187.091C326.954 187.368 327.479 187.506 328.034 187.506C328.602 187.506 329.127 187.36 329.609 187.069C330.104 186.777 330.498 186.361 330.79 185.822C331.096 185.282 331.249 184.641 331.249 183.897ZM348.087 183.678C348.087 184.116 348.058 184.509 348 184.859H339.14C339.213 185.734 339.519 186.42 340.059 186.916C340.599 187.411 341.262 187.659 342.05 187.659C343.187 187.659 343.996 187.171 344.478 186.194H347.781C347.431 187.36 346.76 188.323 345.768 189.081C344.777 189.825 343.559 190.197 342.115 190.197C340.949 190.197 339.899 189.942 338.965 189.431C338.046 188.906 337.325 188.17 336.8 187.222C336.289 186.274 336.034 185.18 336.034 183.941C336.034 182.686 336.289 181.585 336.8 180.637C337.31 179.69 338.025 178.96 338.943 178.45C339.862 177.94 340.919 177.684 342.115 177.684C343.267 177.684 344.295 177.932 345.2 178.428C346.118 178.924 346.826 179.631 347.321 180.55C347.832 181.454 348.087 182.497 348.087 183.678ZM344.915 182.803C344.901 182.016 344.616 181.389 344.062 180.922C343.508 180.441 342.83 180.2 342.028 180.2C341.269 180.2 340.628 180.433 340.103 180.9C339.592 181.352 339.279 181.986 339.162 182.803H344.915Z" fill="#424147"/>
</svg>
