<svg width="1160" height="60" viewBox="0 0 1160 60" fill="none" xmlns="http://www.w3.org/2000/svg">
<path d="M106.104 50.3571C106.104 50.3571 104.348 48.2729 102.884 46.431C109.276 44.6378 111.716 40.6632 111.716 40.6632C109.716 41.972 107.812 42.893 106.104 43.523C103.664 44.5409 101.322 45.2194 99.0283 45.6072C94.3433 46.4797 90.0487 46.2372 86.3887 45.5587C83.6069 45.0256 81.2157 44.25 79.2148 43.4746C78.0924 43.0383 76.8723 42.5052 75.6523 41.8267C75.5059 41.7295 75.3595 41.6811 75.2131 41.5842C75.1155 41.5357 75.0667 41.4873 75.0179 41.4388C74.1395 40.9541 73.6515 40.6148 73.6515 40.6148C73.6515 40.6148 75.9939 44.4924 82.1917 46.3341C80.7277 48.176 78.922 50.3571 78.922 50.3571C68.1369 50.0178 64.0376 42.9899 64.0376 42.9899C64.0376 27.3829 71.065 14.7325 71.065 14.7325C78.0924 9.49782 84.7783 9.64323 84.7783 9.64323L85.2662 10.2249C76.4819 12.7452 72.4314 16.5743 72.4314 16.5743C72.4314 16.5743 73.5051 15.9926 75.3107 15.1687C80.5325 12.8906 84.6806 12.2605 86.3887 12.1151C86.6815 12.0667 86.9255 12.0182 87.2183 12.0182C90.1951 11.6305 93.5624 11.5335 97.0762 11.9213C101.712 12.4544 106.69 13.8116 111.765 16.5743C111.765 16.5743 107.91 12.9391 99.6137 10.4187L100.297 9.64323C100.297 9.64323 106.983 9.49782 114.01 14.7325C114.01 14.7325 121.038 27.3829 121.038 42.9899C121.038 42.9899 116.889 50.0178 106.104 50.3571ZM83.4117 27.7221C80.6301 27.7221 78.434 30.1455 78.434 33.1022C78.434 36.0589 80.6789 38.4822 83.4117 38.4822C86.1935 38.4822 88.3894 36.0589 88.3894 33.1022C88.4383 30.1455 86.1935 27.7221 83.4117 27.7221ZM101.224 27.7221C98.4426 27.7221 96.2465 30.1455 96.2465 33.1022C96.2465 36.0589 98.4915 38.4822 101.224 38.4822C104.006 38.4822 106.202 36.0589 106.202 33.1022C106.202 30.1455 104.006 27.7221 101.224 27.7221Z" fill="#424147"/>
<path d="M149.321 16.825C152.071 16.825 154.484 17.3625 156.559 18.4375C158.659 19.5125 160.271 21.05 161.396 23.05C162.546 25.025 163.121 27.325 163.121 29.95C163.121 32.575 162.546 34.875 161.396 36.85C160.271 38.8 158.659 40.3125 156.559 41.3875C154.484 42.4625 152.071 43 149.321 43H140.171V16.825H149.321ZM149.134 38.5375C151.884 38.5375 154.009 37.7875 155.509 36.2875C157.009 34.7875 157.759 32.675 157.759 29.95C157.759 27.225 157.009 25.1 155.509 23.575C154.009 22.025 151.884 21.25 149.134 21.25H145.421V38.5375H149.134ZM170.089 19.75C169.164 19.75 168.389 19.4625 167.764 18.8875C167.164 18.2875 166.864 17.55 166.864 16.675C166.864 15.8 167.164 15.075 167.764 14.5C168.389 13.9 169.164 13.6 170.089 13.6C171.014 13.6 171.776 13.9 172.376 14.5C173.001 15.075 173.314 15.8 173.314 16.675C173.314 17.55 173.001 18.2875 172.376 18.8875C171.776 19.4625 171.014 19.75 170.089 19.75ZM172.676 22.225V43H167.426V22.225H172.676ZM186.188 43.3375C184.488 43.3375 182.963 43.0375 181.613 42.4375C180.263 41.8125 179.188 40.975 178.388 39.925C177.613 38.875 177.188 37.7125 177.113 36.4375H182.401C182.501 37.2375 182.888 37.9 183.563 38.425C184.263 38.95 185.126 39.2125 186.151 39.2125C187.151 39.2125 187.926 39.0125 188.476 38.6125C189.051 38.2125 189.338 37.7 189.338 37.075C189.338 36.4 188.988 35.9 188.288 35.575C187.613 35.225 186.526 34.85 185.026 34.45C183.476 34.075 182.201 33.6875 181.201 33.2875C180.226 32.8875 179.376 32.275 178.651 31.45C177.951 30.625 177.601 29.5125 177.601 28.1125C177.601 26.9625 177.926 25.9125 178.576 24.9625C179.251 24.0125 180.201 23.2625 181.426 22.7125C182.676 22.1625 184.138 21.8875 185.813 21.8875C188.288 21.8875 190.263 22.5125 191.738 23.7625C193.213 24.9875 194.026 26.65 194.176 28.75H189.151C189.076 27.925 188.726 27.275 188.101 26.8C187.501 26.3 186.688 26.05 185.663 26.05C184.713 26.05 183.976 26.225 183.451 26.575C182.951 26.925 182.701 27.4125 182.701 28.0375C182.701 28.7375 183.051 29.275 183.751 29.65C184.451 30 185.538 30.3625 187.013 30.7375C188.513 31.1125 189.751 31.5 190.726 31.9C191.701 32.3 192.538 32.925 193.238 33.775C193.963 34.6 194.338 35.7 194.363 37.075C194.363 38.275 194.026 39.35 193.351 40.3C192.701 41.25 191.751 42 190.501 42.55C189.276 43.075 187.838 43.3375 186.188 43.3375ZM197.698 32.6125C197.698 30.4625 198.135 28.5875 199.01 26.9875C199.885 25.3625 201.098 24.1125 202.648 23.2375C204.198 22.3375 205.973 21.8875 207.973 21.8875C210.548 21.8875 212.673 22.5375 214.348 23.8375C216.048 25.1125 217.185 26.9125 217.76 29.2375H212.098C211.798 28.3375 211.285 27.6375 210.56 27.1375C209.86 26.6125 208.985 26.35 207.935 26.35C206.435 26.35 205.248 26.9 204.373 28C203.498 29.075 203.06 30.6125 203.06 32.6125C203.06 34.5875 203.498 36.125 204.373 37.225C205.248 38.3 206.435 38.8375 207.935 38.8375C210.06 38.8375 211.448 37.8875 212.098 35.9875H217.76C217.185 38.2375 216.048 40.025 214.348 41.35C212.648 42.675 210.523 43.3375 207.973 43.3375C205.973 43.3375 204.198 42.9 202.648 42.025C201.098 41.125 199.885 39.875 199.01 38.275C198.135 36.65 197.698 34.7625 197.698 32.6125ZM231.207 43.3375C229.207 43.3375 227.407 42.9 225.807 42.025C224.207 41.125 222.944 39.8625 222.019 38.2375C221.119 36.6125 220.669 34.7375 220.669 32.6125C220.669 30.4875 221.132 28.6125 222.057 26.9875C223.007 25.3625 224.294 24.1125 225.919 23.2375C227.544 22.3375 229.357 21.8875 231.357 21.8875C233.357 21.8875 235.169 22.3375 236.794 23.2375C238.419 24.1125 239.694 25.3625 240.619 26.9875C241.569 28.6125 242.044 30.4875 242.044 32.6125C242.044 34.7375 241.557 36.6125 240.582 38.2375C239.632 39.8625 238.332 41.125 236.682 42.025C235.057 42.9 233.232 43.3375 231.207 43.3375ZM231.207 38.7625C232.157 38.7625 233.044 38.5375 233.869 38.0875C234.719 37.6125 235.394 36.9125 235.894 35.9875C236.394 35.0625 236.644 33.9375 236.644 32.6125C236.644 30.6375 236.119 29.125 235.069 28.075C234.044 27 232.782 26.4625 231.282 26.4625C229.782 26.4625 228.519 27 227.494 28.075C226.494 29.125 225.994 30.6375 225.994 32.6125C225.994 34.5875 226.482 36.1125 227.457 37.1875C228.457 38.2375 229.707 38.7625 231.207 38.7625ZM251.52 25.45C252.195 24.35 253.07 23.4875 254.145 22.8625C255.245 22.2375 256.495 21.925 257.895 21.925V27.4375H256.508C254.858 27.4375 253.608 27.825 252.758 28.6C251.933 29.375 251.52 30.725 251.52 32.65V43H246.27V22.225H251.52V25.45ZM260.456 32.5375C260.456 30.4375 260.869 28.575 261.694 26.95C262.544 25.325 263.694 24.075 265.144 23.2C266.594 22.325 268.206 21.8875 269.981 21.8875C271.331 21.8875 272.619 22.1875 273.844 22.7875C275.069 23.3625 276.044 24.1375 276.769 25.1125V15.25H282.094V43H276.769V39.925C276.119 40.95 275.206 41.775 274.031 42.4C272.856 43.025 271.494 43.3375 269.944 43.3375C268.194 43.3375 266.594 42.8875 265.144 41.9875C263.694 41.0875 262.544 39.825 261.694 38.2C260.869 36.55 260.456 34.6625 260.456 32.5375ZM276.806 32.6125C276.806 31.3375 276.556 30.25 276.056 29.35C275.556 28.425 274.881 27.725 274.031 27.25C273.181 26.75 272.269 26.5 271.294 26.5C270.319 26.5 269.419 26.7375 268.594 27.2125C267.769 27.6875 267.094 28.3875 266.569 29.3125C266.069 30.2125 265.819 31.2875 265.819 32.5375C265.819 33.7875 266.069 34.8875 266.569 35.8375C267.094 36.7625 267.769 37.475 268.594 37.975C269.444 38.475 270.344 38.725 271.294 38.725C272.269 38.725 273.181 38.4875 274.031 38.0125C274.881 37.5125 275.556 36.8125 276.056 35.9125C276.556 34.9875 276.806 33.8875 276.806 32.6125Z" fill="#424147"/>
<path d="M384.053 16.0008C383.383 13.4969 381.415 11.5292 378.911 10.8589C374.378 9.64282 356.189 9.64282 356.189 9.64282C356.189 9.64282 338.001 9.64282 333.467 10.8589C330.963 11.5292 328.995 13.4969 328.325 16.0008C327.109 20.5347 327.109 30 327.109 30C327.109 30 327.109 39.4652 328.325 43.9992C328.995 46.5031 330.963 48.4708 333.467 49.141C338.001 50.3571 356.189 50.3571 356.189 50.3571C356.189 50.3571 374.378 50.3571 378.911 49.141C381.415 48.4708 383.383 46.5031 384.053 43.9992C385.269 39.4652 385.269 30 385.269 30C385.269 30 385.265 20.5347 384.053 16.0008Z" fill="#424147"/>
<path d="M348.378 38.7238L363.488 30.0008L348.378 21.2776V38.7238Z" fill="#222224"/>
<path d="M424.845 16.825L415.995 33.8875V43H410.745V33.8875L401.858 16.825H407.783L413.408 28.7875L418.995 16.825H424.845ZM437.473 43.3375C435.473 43.3375 433.673 42.9 432.073 42.025C430.473 41.125 429.21 39.8625 428.285 38.2375C427.385 36.6125 426.935 34.7375 426.935 32.6125C426.935 30.4875 427.398 28.6125 428.323 26.9875C429.273 25.3625 430.56 24.1125 432.185 23.2375C433.81 22.3375 435.623 21.8875 437.623 21.8875C439.623 21.8875 441.435 22.3375 443.06 23.2375C444.685 24.1125 445.96 25.3625 446.885 26.9875C447.835 28.6125 448.31 30.4875 448.31 32.6125C448.31 34.7375 447.823 36.6125 446.848 38.2375C445.898 39.8625 444.598 41.125 442.948 42.025C441.323 42.9 439.498 43.3375 437.473 43.3375ZM437.473 38.7625C438.423 38.7625 439.31 38.5375 440.135 38.0875C440.985 37.6125 441.66 36.9125 442.16 35.9875C442.66 35.0625 442.91 33.9375 442.91 32.6125C442.91 30.6375 442.385 29.125 441.335 28.075C440.31 27 439.048 26.4625 437.548 26.4625C436.048 26.4625 434.785 27 433.76 28.075C432.76 29.125 432.26 30.6375 432.26 32.6125C432.26 34.5875 432.748 36.1125 433.723 37.1875C434.723 38.2375 435.973 38.7625 437.473 38.7625ZM472.149 22.225V43H466.861V40.375C466.186 41.275 465.299 41.9875 464.199 42.5125C463.124 43.0125 461.949 43.2625 460.674 43.2625C459.049 43.2625 457.611 42.925 456.361 42.25C455.111 41.55 454.124 40.5375 453.399 39.2125C452.699 37.8625 452.349 36.2625 452.349 34.4125V22.225H457.599V33.6625C457.599 35.3125 458.011 36.5875 458.836 37.4875C459.661 38.3625 460.786 38.8 462.211 38.8C463.661 38.8 464.799 38.3625 465.624 37.4875C466.449 36.5875 466.861 35.3125 466.861 33.6625V22.225H472.149ZM495.516 16.825V21.0625H488.541V43H483.291V21.0625H476.316V16.825H495.516ZM519.335 22.225V43H514.047V40.375C513.372 41.275 512.485 41.9875 511.385 42.5125C510.31 43.0125 509.135 43.2625 507.86 43.2625C506.235 43.2625 504.797 42.925 503.547 42.25C502.297 41.55 501.31 40.5375 500.585 39.2125C499.885 37.8625 499.535 36.2625 499.535 34.4125V22.225H504.785V33.6625C504.785 35.3125 505.197 36.5875 506.022 37.4875C506.847 38.3625 507.972 38.8 509.397 38.8C510.847 38.8 511.985 38.3625 512.81 37.4875C513.635 36.5875 514.047 35.3125 514.047 33.6625V22.225H519.335ZM530.14 25.2625C530.815 24.2625 531.74 23.45 532.915 22.825C534.115 22.2 535.477 21.8875 537.002 21.8875C538.777 21.8875 540.377 22.325 541.802 23.2C543.252 24.075 544.39 25.325 545.215 26.95C546.065 28.55 546.49 30.4125 546.49 32.5375C546.49 34.6625 546.065 36.55 545.215 38.2C544.39 39.825 543.252 41.0875 541.802 41.9875C540.377 42.8875 538.777 43.3375 537.002 43.3375C535.452 43.3375 534.09 43.0375 532.915 42.4375C531.765 41.8125 530.84 41.0125 530.14 40.0375V43H524.89V15.25H530.14V25.2625ZM541.127 32.5375C541.127 31.2875 540.865 30.2125 540.34 29.3125C539.84 28.3875 539.165 27.6875 538.315 27.2125C537.49 26.7375 536.59 26.5 535.615 26.5C534.665 26.5 533.765 26.75 532.915 27.25C532.09 27.725 531.415 28.425 530.89 29.35C530.39 30.275 530.14 31.3625 530.14 32.6125C530.14 33.8625 530.39 34.95 530.89 35.875C531.415 36.8 532.09 37.5125 532.915 38.0125C533.765 38.4875 534.665 38.725 535.615 38.725C536.59 38.725 537.49 38.475 538.315 37.975C539.165 37.475 539.84 36.7625 540.34 35.8375C540.865 34.9125 541.127 33.8125 541.127 32.5375ZM569.992 32.1625C569.992 32.9125 569.942 33.5875 569.842 34.1875H554.655C554.78 35.6875 555.305 36.8625 556.23 37.7125C557.155 38.5625 558.292 38.9875 559.642 38.9875C561.592 38.9875 562.98 38.15 563.805 36.475H569.467C568.867 38.475 567.717 40.125 566.017 41.425C564.317 42.7 562.23 43.3375 559.755 43.3375C557.755 43.3375 555.955 42.9 554.355 42.025C552.78 41.125 551.542 39.8625 550.642 38.2375C549.767 36.6125 549.33 34.7375 549.33 32.6125C549.33 30.4625 549.767 28.575 550.642 26.95C551.517 25.325 552.742 24.075 554.317 23.2C555.892 22.325 557.705 21.8875 559.755 21.8875C561.73 21.8875 563.492 22.3125 565.042 23.1625C566.617 24.0125 567.83 25.225 568.68 26.8C569.555 28.35 569.992 30.1375 569.992 32.1625ZM564.555 30.6625C564.53 29.3125 564.042 28.2375 563.092 27.4375C562.142 26.6125 560.98 26.2 559.605 26.2C558.305 26.2 557.205 26.6 556.305 27.4C555.43 28.175 554.892 29.2625 554.692 30.6625H564.555Z" fill="#424147"/>
<path fill-rule="evenodd" clip-rule="evenodd" d="M628.192 30.2842L613.341 11.8303H625.104L634.271 23.2361L644.065 11.8817H650.543L637.403 27.1333L652.984 46.5178H641.256L631.33 34.1832L620.732 46.4836H614.219L628.192 30.2842ZM642.965 43.0986L620.553 15.2495H623.393L645.777 43.0986H642.965Z" fill="#424147"/>
<path d="M689.778 16.825V21.0625H682.803V43H677.553V21.0625H670.578V16.825H689.778ZM722.784 22.225L716.709 43H711.046L707.259 28.4875L703.471 43H697.771L691.659 22.225H696.984L700.659 38.05L704.634 22.225H710.184L714.084 38.0125L717.759 22.225H722.784ZM728.662 19.75C727.737 19.75 726.962 19.4625 726.337 18.8875C725.737 18.2875 725.437 17.55 725.437 16.675C725.437 15.8 725.737 15.075 726.337 14.5C726.962 13.9 727.737 13.6 728.662 13.6C729.587 13.6 730.35 13.9 730.95 14.5C731.575 15.075 731.887 15.8 731.887 16.675C731.887 17.55 731.575 18.2875 730.95 18.8875C730.35 19.4625 729.587 19.75 728.662 19.75ZM731.25 22.225V43H726V22.225H731.25ZM742.924 26.5375V36.5875C742.924 37.2875 743.087 37.8 743.412 38.125C743.762 38.425 744.337 38.575 745.137 38.575H747.574V43H744.274C739.849 43 737.637 40.85 737.637 36.55V26.5375H735.162V22.225H737.637V17.0875H742.924V22.225H747.574V26.5375H742.924ZM757.838 26.5375V36.5875C757.838 37.2875 758 37.8 758.325 38.125C758.675 38.425 759.25 38.575 760.05 38.575H762.488V43H759.188C754.763 43 752.55 40.85 752.55 36.55V26.5375H750.075V22.225H752.55V17.0875H757.838V22.225H762.488V26.5375H757.838ZM785.951 32.1625C785.951 32.9125 785.901 33.5875 785.801 34.1875H770.614C770.739 35.6875 771.264 36.8625 772.189 37.7125C773.114 38.5625 774.251 38.9875 775.601 38.9875C777.551 38.9875 778.939 38.15 779.764 36.475H785.426C784.826 38.475 783.676 40.125 781.976 41.425C780.276 42.7 778.189 43.3375 775.714 43.3375C773.714 43.3375 771.914 42.9 770.314 42.025C768.739 41.125 767.501 39.8625 766.601 38.2375C765.726 36.6125 765.289 34.7375 765.289 32.6125C765.289 30.4625 765.726 28.575 766.601 26.95C767.476 25.325 768.701 24.075 770.276 23.2C771.851 22.325 773.664 21.8875 775.714 21.8875C777.689 21.8875 779.451 22.3125 781.001 23.1625C782.576 24.0125 783.789 25.225 784.639 26.8C785.514 28.35 785.951 30.1375 785.951 32.1625ZM780.514 30.6625C780.489 29.3125 780.001 28.2375 779.051 27.4375C778.101 26.6125 776.939 26.2 775.564 26.2C774.264 26.2 773.164 26.6 772.264 27.4C771.389 28.175 770.851 29.2625 770.651 30.6625H780.514ZM795.408 25.45C796.083 24.35 796.958 23.4875 798.033 22.8625C799.133 22.2375 800.383 21.925 801.783 21.925V27.4375H800.396C798.746 27.4375 797.496 27.825 796.646 28.6C795.821 29.375 795.408 30.725 795.408 32.65V43H790.158V22.225H795.408V25.45Z" fill="#424147"/>
<path fill-rule="evenodd" clip-rule="evenodd" d="M848.344 27.2446C861.184 21.6501 869.747 17.9618 874.031 16.1798C886.264 11.0919 888.806 10.2081 890.462 10.1789C890.827 10.1725 891.641 10.2628 892.169 10.691C892.615 11.0526 892.737 11.5411 892.796 11.8839C892.855 12.2267 892.928 13.0077 892.87 13.6179C892.207 20.5829 889.338 37.485 887.879 45.2859C887.262 48.5867 886.046 49.6935 884.869 49.8018C882.311 50.0372 880.369 48.1113 877.891 46.4873C874.014 43.9461 871.824 42.3641 868.061 39.8843C863.712 37.0185 866.532 35.4433 869.01 32.8692C869.659 32.1955 880.929 21.9443 881.147 21.0143C881.174 20.898 881.2 20.4645 880.942 20.2356C880.685 20.0067 880.304 20.0849 880.03 20.1472C879.641 20.2354 873.448 24.3289 861.451 32.4276C859.693 33.6347 858.1 34.2229 856.674 34.192C855.101 34.1581 852.076 33.3028 849.827 32.5717C847.068 31.6751 844.876 31.201 845.067 29.6781C845.166 28.885 846.258 28.0738 848.344 27.2446Z" fill="#424147"/>
<path d="M929.723 16.825V21.0625H922.748V43H917.498V21.0625H910.523V16.825H929.723ZM953.241 32.1625C953.241 32.9125 953.191 33.5875 953.091 34.1875H937.903C938.028 35.6875 938.553 36.8625 939.478 37.7125C940.403 38.5625 941.541 38.9875 942.891 38.9875C944.841 38.9875 946.228 38.15 947.053 36.475H952.716C952.116 38.475 950.966 40.125 949.266 41.425C947.566 42.7 945.478 43.3375 943.003 43.3375C941.003 43.3375 939.203 42.9 937.603 42.025C936.028 41.125 934.791 39.8625 933.891 38.2375C933.016 36.6125 932.578 34.7375 932.578 32.6125C932.578 30.4625 933.016 28.575 933.891 26.95C934.766 25.325 935.991 24.075 937.566 23.2C939.141 22.325 940.953 21.8875 943.003 21.8875C944.978 21.8875 946.741 22.3125 948.291 23.1625C949.866 24.0125 951.078 25.225 951.928 26.8C952.803 28.35 953.241 30.1375 953.241 32.1625ZM947.803 30.6625C947.778 29.3125 947.291 28.2375 946.341 27.4375C945.391 26.6125 944.228 26.2 942.853 26.2C941.553 26.2 940.453 26.6 939.553 27.4C938.678 28.175 938.141 29.2625 937.941 30.6625H947.803ZM962.698 15.25V43H957.448V15.25H962.698ZM987.572 32.1625C987.572 32.9125 987.522 33.5875 987.422 34.1875H972.235C972.36 35.6875 972.885 36.8625 973.81 37.7125C974.735 38.5625 975.872 38.9875 977.222 38.9875C979.172 38.9875 980.56 38.15 981.385 36.475H987.047C986.447 38.475 985.297 40.125 983.597 41.425C981.897 42.7 979.81 43.3375 977.335 43.3375C975.335 43.3375 973.535 42.9 971.935 42.025C970.36 41.125 969.122 39.8625 968.222 38.2375C967.347 36.6125 966.91 34.7375 966.91 32.6125C966.91 30.4625 967.347 28.575 968.222 26.95C969.097 25.325 970.322 24.075 971.897 23.2C973.472 22.325 975.285 21.8875 977.335 21.8875C979.31 21.8875 981.072 22.3125 982.622 23.1625C984.197 24.0125 985.41 25.225 986.26 26.8C987.135 28.35 987.572 30.1375 987.572 32.1625ZM982.135 30.6625C982.11 29.3125 981.622 28.2375 980.672 27.4375C979.722 26.6125 978.56 26.2 977.185 26.2C975.885 26.2 974.785 26.6 973.885 27.4C973.01 28.175 972.472 29.2625 972.272 30.6625H982.135ZM999.917 21.8875C1001.47 21.8875 1002.83 22.2 1004 22.825C1005.18 23.425 1006.1 24.2125 1006.78 25.1875V22.225H1012.07V43.15C1012.07 45.075 1011.68 46.7875 1010.9 48.2875C1010.13 49.8125 1008.97 51.0125 1007.42 51.8875C1005.87 52.7875 1003.99 53.2375 1001.79 53.2375C998.842 53.2375 996.417 52.55 994.517 51.175C992.642 49.8 991.579 47.925 991.329 45.55H996.542C996.817 46.5 997.404 47.25 998.304 47.8C999.229 48.375 1000.34 48.6625 1001.64 48.6625C1003.17 48.6625 1004.4 48.2 1005.35 47.275C1006.3 46.375 1006.78 45 1006.78 43.15V39.925C1006.1 40.9 1005.17 41.7125 1003.97 42.3625C1002.79 43.0125 1001.44 43.3375 999.917 43.3375C998.167 43.3375 996.567 42.8875 995.117 41.9875C993.667 41.0875 992.517 39.825 991.667 38.2C990.842 36.55 990.429 34.6625 990.429 32.5375C990.429 30.4375 990.842 28.575 991.667 26.95C992.517 25.325 993.654 24.075 995.079 23.2C996.529 22.325 998.142 21.8875 999.917 21.8875ZM1006.78 32.6125C1006.78 31.3375 1006.53 30.25 1006.03 29.35C1005.53 28.425 1004.85 27.725 1004 27.25C1003.15 26.75 1002.24 26.5 1001.27 26.5C1000.29 26.5 999.392 26.7375 998.567 27.2125C997.742 27.6875 997.067 28.3875 996.542 29.3125C996.042 30.2125 995.792 31.2875 995.792 32.5375C995.792 33.7875 996.042 34.8875 996.542 35.8375C997.067 36.7625 997.742 37.475 998.567 37.975C999.417 38.475 1000.32 38.725 1001.27 38.725C1002.24 38.725 1003.15 38.4875 1004 38.0125C1004.85 37.5125 1005.53 36.8125 1006.03 35.9125C1006.53 34.9875 1006.78 33.8875 1006.78 32.6125ZM1022.82 25.45C1023.49 24.35 1024.37 23.4875 1025.44 22.8625C1026.54 22.2375 1027.79 21.925 1029.19 21.925V27.4375H1027.81C1026.16 27.4375 1024.91 27.825 1024.06 28.6C1023.23 29.375 1022.82 30.725 1022.82 32.65V43H1017.57V22.225H1022.82V25.45ZM1031.76 32.5375C1031.76 30.4375 1032.17 28.575 1032.99 26.95C1033.84 25.325 1034.98 24.075 1036.41 23.2C1037.86 22.325 1039.47 21.8875 1041.24 21.8875C1042.79 21.8875 1044.14 22.2 1045.29 22.825C1046.47 23.45 1047.41 24.2375 1048.11 25.1875V22.225H1053.39V43H1048.11V39.9625C1047.43 40.9375 1046.49 41.75 1045.29 42.4C1044.12 43.025 1042.76 43.3375 1041.21 43.3375C1039.46 43.3375 1037.86 42.8875 1036.41 41.9875C1034.98 41.0875 1033.84 39.825 1032.99 38.2C1032.17 36.55 1031.76 34.6625 1031.76 32.5375ZM1048.11 32.6125C1048.11 31.3375 1047.86 30.25 1047.36 29.35C1046.86 28.425 1046.18 27.725 1045.33 27.25C1044.48 26.75 1043.57 26.5 1042.59 26.5C1041.62 26.5 1040.72 26.7375 1039.89 27.2125C1039.07 27.6875 1038.39 28.3875 1037.87 29.3125C1037.37 30.2125 1037.12 31.2875 1037.12 32.5375C1037.12 33.7875 1037.37 34.8875 1037.87 35.8375C1038.39 36.7625 1039.07 37.475 1039.89 37.975C1040.74 38.475 1041.64 38.725 1042.59 38.725C1043.57 38.725 1044.48 38.4875 1045.33 38.0125C1046.18 37.5125 1046.86 36.8125 1047.36 35.9125C1047.86 34.9875 1048.11 33.8875 1048.11 32.6125ZM1084.7 21.925C1087.25 21.925 1089.3 22.7125 1090.85 24.2875C1092.42 25.8375 1093.21 28.0125 1093.21 30.8125V43H1087.96V31.525C1087.96 29.9 1087.55 28.6625 1086.72 27.8125C1085.9 26.9375 1084.77 26.5 1083.35 26.5C1081.92 26.5 1080.78 26.9375 1079.93 27.8125C1079.11 28.6625 1078.7 29.9 1078.7 31.525V43H1073.45V31.525C1073.45 29.9 1073.03 28.6625 1072.21 27.8125C1071.38 26.9375 1070.26 26.5 1068.83 26.5C1067.38 26.5 1066.23 26.9375 1065.38 27.8125C1064.56 28.6625 1064.15 29.9 1064.15 31.525V43H1058.9V22.225H1064.15V24.7375C1064.82 23.8625 1065.68 23.175 1066.73 22.675C1067.81 22.175 1068.98 21.925 1070.26 21.925C1071.88 21.925 1073.33 22.275 1074.61 22.975C1075.88 23.65 1076.87 24.625 1077.57 25.9C1078.25 24.7 1079.22 23.7375 1080.5 23.0125C1081.8 22.2875 1083.2 21.925 1084.7 21.925Z" fill="#424147"/>
</svg>
