<svg width="64" height="64" viewBox="0 0 64 64" fill="none" xmlns="http://www.w3.org/2000/svg">
<g clip-path="url(#clip0_2388_3397)">
<path d="M41.3067 35.9122C40.8831 36.3138 40.6885 36.8946 40.785 37.4642L42.239 45.3362C42.3616 46.0034 42.0738 46.6786 41.503 47.0642C40.9436 47.4642 40.1994 47.5122 39.5894 47.1922L32.3455 43.4962C32.0936 43.365 31.8139 43.2946 31.5277 43.2866H31.0845C30.9307 43.309 30.7803 43.357 30.6429 43.4306L23.3974 47.1442C23.0392 47.3202 22.6336 47.3826 22.2361 47.3202C21.2679 47.141 20.6218 46.2386 20.7805 45.2866L22.2361 37.4146C22.3326 36.8402 22.138 36.2562 21.7144 35.8482L15.8084 30.2482C15.3145 29.7794 15.1427 29.0754 15.3684 28.4402C15.5876 27.8066 16.147 27.3442 16.8224 27.2402L24.9512 26.0866C25.5694 26.0242 26.1124 25.6562 26.3904 25.1122L29.9723 17.9282C30.0574 17.7682 30.1669 17.621 30.2994 17.4962L30.4466 17.3842C30.5235 17.301 30.6118 17.2322 30.7099 17.1762L30.8882 17.1122L31.1663 17.0002H31.8548C32.4698 17.0626 33.0112 17.4226 33.2941 17.9602L36.9234 25.1122C37.1851 25.6354 37.6938 25.9986 38.2809 26.0866L46.4096 27.2402C47.0966 27.3362 47.6707 27.8002 47.898 28.4402C48.1123 29.0818 47.9274 29.7858 47.4237 30.2482L41.3067 35.9122Z" fill="url(#paint0_linear_2388_3397)"/>
<circle cx="32" cy="32" r="32" fill="#09977C" fill-opacity="0.1"/>
</g>
<defs>
<linearGradient id="paint0_linear_2388_3397" x1="23.722" y1="38.0283" x2="46.1464" y2="38.0649" gradientUnits="userSpaceOnUse">
<stop stop-color="#2AABEE"/>
<stop offset="1" stop-color="#574DCE"/>
</linearGradient>
<clipPath id="clip0_2388_3397">
<rect width="64" height="64" fill="white"/>
</clipPath>
</defs>
</svg>
