<svg width="64" height="64" viewBox="0 0 64 64" fill="none" xmlns="http://www.w3.org/2000/svg">
<circle cx="32" cy="32" r="32" fill="#09977C" fill-opacity="0.1"/>
<path d="M45.497 16.931C44.6967 16.1096 43.5122 15.8036 42.4077 16.1257L16.6532 23.6151C15.4879 23.9388 14.662 24.8681 14.4395 26.0487C14.2122 27.2502 15.0061 28.7755 16.0433 29.4133L24.0962 34.3627C24.9222 34.8701 25.9882 34.7428 26.6717 34.0535L35.8931 24.7747C36.3573 24.2915 37.1256 24.2915 37.5898 24.7747C38.0539 25.2418 38.0539 25.9988 37.5898 26.482L28.3524 35.7623C27.6673 36.4501 27.5392 37.5211 28.0434 38.3522L32.9639 46.4858C33.5401 47.4522 34.5325 47.9998 35.621 47.9998C35.749 47.9998 35.8931 47.9998 36.0211 47.9837C37.2696 47.8226 38.262 46.969 38.6302 45.7611L46.2653 20.0395C46.6014 18.9443 46.2973 17.7524 45.497 16.931Z" fill="url(#paint0_linear_2388_3411)"/>
<defs>
<linearGradient id="paint0_linear_2388_3411" x1="22.6671" y1="38.1332" x2="44.6011" y2="38.1665" gradientUnits="userSpaceOnUse">
<stop stop-color="#2AABEE"/>
<stop offset="1" stop-color="#574DCE"/>
</linearGradient>
</defs>
</svg>
