<svg width="232" height="60" viewBox="0 0 232 60" fill="none" xmlns="http://www.w3.org/2000/svg">
<rect width="231.293" height="60" rx="5" fill="url(#paint0_linear_2388_3323)"/>
<path d="M42.5103 23.954V25.286H39.0903V36.5H37.4523V25.286H34.0143V23.954H42.5103ZM48.8286 36.662C47.9046 36.662 47.0646 36.452 46.3086 36.032C45.5646 35.612 44.9766 35.018 44.5446 34.25C44.1246 33.47 43.9146 32.57 43.9146 31.55C43.9146 30.542 44.1306 29.654 44.5626 28.886C45.0066 28.106 45.6066 27.512 46.3626 27.104C47.1186 26.684 47.9646 26.474 48.9006 26.474C49.8366 26.474 50.6826 26.684 51.4386 27.104C52.1946 27.512 52.7886 28.1 53.2206 28.868C53.6646 29.636 53.8866 30.53 53.8866 31.55C53.8866 32.57 53.6586 33.47 53.2026 34.25C52.7586 35.018 52.1526 35.612 51.3846 36.032C50.6166 36.452 49.7646 36.662 48.8286 36.662ZM48.8286 35.222C49.4166 35.222 49.9686 35.084 50.4846 34.808C51.0006 34.532 51.4146 34.118 51.7266 33.566C52.0506 33.014 52.2126 32.342 52.2126 31.55C52.2126 30.758 52.0566 30.086 51.7446 29.534C51.4326 28.982 51.0246 28.574 50.5206 28.31C50.0166 28.034 49.4706 27.896 48.8826 27.896C48.2826 27.896 47.7306 28.034 47.2266 28.31C46.7346 28.574 46.3386 28.982 46.0386 29.534C45.7386 30.086 45.5886 30.758 45.5886 31.55C45.5886 32.354 45.7326 33.032 46.0206 33.584C46.3206 34.136 46.7166 34.55 47.2086 34.826C47.7006 35.09 48.2406 35.222 48.8286 35.222ZM62.8371 27.986V33.8C62.8371 34.28 62.9391 34.622 63.1431 34.826C63.3471 35.018 63.7011 35.114 64.2051 35.114H65.4111V36.5H63.9351C63.0231 36.5 62.3391 36.29 61.8831 35.87C61.4271 35.45 61.1991 34.76 61.1991 33.8V27.986H59.9211V26.636H61.1991V24.152H62.8371V26.636H65.4111V27.986H62.8371ZM72.2917 26.456C73.0357 26.456 73.7077 26.618 74.3077 26.942C74.9077 27.254 75.3757 27.728 75.7117 28.364C76.0597 29 76.2337 29.774 76.2337 30.686V36.5H74.6137V30.92C74.6137 29.936 74.3677 29.186 73.8757 28.67C73.3837 28.142 72.7117 27.878 71.8597 27.878C70.9957 27.878 70.3057 28.148 69.7897 28.688C69.2857 29.228 69.0337 30.014 69.0337 31.046V36.5H67.3957V23.18H69.0337V28.04C69.3577 27.536 69.8017 27.146 70.3657 26.87C70.9417 26.594 71.5837 26.456 72.2917 26.456ZM87.9094 31.19C87.9094 31.502 87.8914 31.832 87.8554 32.18H79.9714C80.0314 33.152 80.3614 33.914 80.9614 34.466C81.5734 35.006 82.3114 35.276 83.1754 35.276C83.8834 35.276 84.4714 35.114 84.9394 34.79C85.4194 34.454 85.7554 34.01 85.9474 33.458H87.7114C87.4474 34.406 86.9194 35.18 86.1274 35.78C85.3354 36.368 84.3514 36.662 83.1754 36.662C82.2394 36.662 81.3994 36.452 80.6554 36.032C79.9234 35.612 79.3474 35.018 78.9274 34.25C78.5074 33.47 78.2974 32.57 78.2974 31.55C78.2974 30.53 78.5014 29.636 78.9094 28.868C79.3174 28.1 79.8874 27.512 80.6194 27.104C81.3634 26.684 82.2154 26.474 83.1754 26.474C84.1114 26.474 84.9394 26.678 85.6594 27.086C86.3794 27.494 86.9314 28.058 87.3154 28.778C87.7114 29.486 87.9094 30.29 87.9094 31.19ZM86.2174 30.848C86.2174 30.224 86.0794 29.69 85.8034 29.246C85.5274 28.79 85.1494 28.448 84.6694 28.22C84.2014 27.98 83.6794 27.86 83.1034 27.86C82.2754 27.86 81.5674 28.124 80.9794 28.652C80.4034 29.18 80.0734 29.912 79.9894 30.848H86.2174ZM106.732 26.456C107.5 26.456 108.184 26.618 108.784 26.942C109.384 27.254 109.858 27.728 110.206 28.364C110.554 29 110.728 29.774 110.728 30.686V36.5H109.108V30.92C109.108 29.936 108.862 29.186 108.37 28.67C107.89 28.142 107.236 27.878 106.408 27.878C105.556 27.878 104.878 28.154 104.374 28.706C103.87 29.246 103.618 30.032 103.618 31.064V36.5H101.998V30.92C101.998 29.936 101.752 29.186 101.26 28.67C100.78 28.142 100.126 27.878 99.2983 27.878C98.4463 27.878 97.7683 28.154 97.2643 28.706C96.7603 29.246 96.5083 30.032 96.5083 31.064V36.5H94.8703V26.636H96.5083V28.058C96.8323 27.542 97.2643 27.146 97.8043 26.87C98.3563 26.594 98.9623 26.456 99.6223 26.456C100.45 26.456 101.182 26.642 101.818 27.014C102.454 27.386 102.928 27.932 103.24 28.652C103.516 27.956 103.972 27.416 104.608 27.032C105.244 26.648 105.952 26.456 106.732 26.456ZM112.803 31.532C112.803 30.524 113.007 29.642 113.415 28.886C113.823 28.118 114.381 27.524 115.089 27.104C115.809 26.684 116.607 26.474 117.483 26.474C118.347 26.474 119.097 26.66 119.733 27.032C120.369 27.404 120.843 27.872 121.155 28.436V26.636H122.811V36.5H121.155V34.664C120.831 35.24 120.345 35.72 119.697 36.104C119.061 36.476 118.317 36.662 117.465 36.662C116.589 36.662 115.797 36.446 115.089 36.014C114.381 35.582 113.823 34.976 113.415 34.196C113.007 33.416 112.803 32.528 112.803 31.532ZM121.155 31.55C121.155 30.806 121.005 30.158 120.705 29.606C120.405 29.054 119.997 28.634 119.481 28.346C118.977 28.046 118.419 27.896 117.807 27.896C117.195 27.896 116.637 28.04 116.133 28.328C115.629 28.616 115.227 29.036 114.927 29.588C114.627 30.14 114.477 30.788 114.477 31.532C114.477 32.288 114.627 32.948 114.927 33.512C115.227 34.064 115.629 34.49 116.133 34.79C116.637 35.078 117.195 35.222 117.807 35.222C118.419 35.222 118.977 35.078 119.481 34.79C119.997 34.49 120.405 34.064 120.705 33.512C121.005 32.948 121.155 32.294 121.155 31.55ZM127.217 28.238C127.505 27.674 127.913 27.236 128.441 26.924C128.981 26.612 129.635 26.456 130.403 26.456V28.148H129.971C128.135 28.148 127.217 29.144 127.217 31.136V36.5H125.579V26.636H127.217V28.238ZM137.802 36.5L133.932 32.144V36.5H132.294V23.18H133.932V31.01L137.73 26.636H140.016L135.372 31.55L140.034 36.5H137.802ZM150.558 31.19C150.558 31.502 150.54 31.832 150.504 32.18H142.62C142.68 33.152 143.01 33.914 143.61 34.466C144.222 35.006 144.96 35.276 145.824 35.276C146.532 35.276 147.12 35.114 147.588 34.79C148.068 34.454 148.404 34.01 148.596 33.458H150.36C150.096 34.406 149.568 35.18 148.776 35.78C147.984 36.368 147 36.662 145.824 36.662C144.888 36.662 144.048 36.452 143.304 36.032C142.572 35.612 141.996 35.018 141.576 34.25C141.156 33.47 140.946 32.57 140.946 31.55C140.946 30.53 141.15 29.636 141.558 28.868C141.966 28.1 142.536 27.512 143.268 27.104C144.012 26.684 144.864 26.474 145.824 26.474C146.76 26.474 147.588 26.678 148.308 27.086C149.028 27.494 149.58 28.058 149.964 28.778C150.36 29.486 150.558 30.29 150.558 31.19ZM148.866 30.848C148.866 30.224 148.728 29.69 148.452 29.246C148.176 28.79 147.798 28.448 147.318 28.22C146.85 27.98 146.328 27.86 145.752 27.86C144.924 27.86 144.216 28.124 143.628 28.652C143.052 29.18 142.722 29.912 142.638 30.848H148.866ZM154.718 27.986V33.8C154.718 34.28 154.82 34.622 155.024 34.826C155.228 35.018 155.582 35.114 156.086 35.114H157.292V36.5H155.816C154.904 36.5 154.22 36.29 153.764 35.87C153.308 35.45 153.08 34.76 153.08 33.8V27.986H151.802V26.636H153.08V24.152H154.718V26.636H157.292V27.986H154.718Z" fill="white"/>
<path fill-rule="evenodd" clip-rule="evenodd" d="M205.723 27.4388V27.4379L196.088 37.0731L194.22 35.2047L203.855 25.5695L195.634 25.5695L195.634 22.9272H205.723L207.979 25.183L205.723 27.4388ZM205.723 31.2097L205.723 35.5363H208.366V28.5624L205.723 31.2097Z" fill="white"/>
<defs>
<linearGradient id="paint0_linear_2388_3323" x1="59.7507" y1="41.5" x2="218.283" y2="42.4288" gradientUnits="userSpaceOnUse">
<stop stop-color="#2AABEE"/>
<stop offset="1" stop-color="#574DCE"/>
</linearGradient>
</defs>
</svg>
